<svg xmlns="http://www.w3.org/2000/svg" xmlns:xlink="http://www.w3.org/1999/xlink" width="1411" height="455" fill="none" xmlns:v="https://vecta.io/nano"><style><![CDATA[.B{fill:#3a8e8e}.C{fill:#cc4461}.D{fill:#e6e6e6}.E{fill:#cca341}]]></style><mask id="A" maskUnits="userSpaceOnUse" x="4" y="0" width="447" height="447" mask-type="alpha"><circle cx="227.5" cy="223.5" r="218.5" stroke="url(#E)" stroke-width="10"/></mask><g mask="url(#A)"><ellipse cx="22.5" cy="305.5" rx="348.5" ry="375.5" fill="url(#F)"/></g><mask id="B" maskUnits="userSpaceOnUse" x="254" y="12" width="140" height="190" mask-type="alpha"><path d="M393.776 73.161c-34.08-37.036-81.438-58.981-131.656-61.007L254.5 202 393.776 73.161z" fill="#ddec85"/></mask><g mask="url(#B)"><path d="M470.616 193.308c.005 24.862-4.888 49.481-14.4 72.451S432.76 309.6 415.18 327.18s-38.451 31.524-61.421 41.036-47.589 14.405-72.451 14.4C176.757 382.616 92 297.858 92 193.308c-.018-20.337 3.242-40.543 9.655-59.842 12.59-37.691 36.71-70.471 68.949-93.704S241.57 4.019 281.308 4c34.272-.012 67.903 9.283 97.305 26.893s53.469 42.873 69.633 73.093c4.008 7.456 7.504 15.176 10.465 23.106l1.199 3.324v.01c1.735 4.901 3.264 9.893 4.585 14.976 4.077 15.642 6.134 31.742 6.121 47.906h0z" fill="#ff6384"/><use xlink:href="#G" class="C"/><path d="M431.766 150.388l9.781 2.303c-.568 11.011-6.026 21.202-13.346 24.894-3.05 1.535-6.447 2.103-8.971 4.974-2.283 2.609-3.44 6.668-4.502 10.549l-5.584 20.319c-1.999 7.299-4.565 15.408-9.76 18.037-4.459 2.261-9.56-.505-12.989-5.143s-5.521-10.875-7.551-16.953c.126 6.625-2.955 13.125-7.32 15.428-4.375 2.303-9.697.221-12.621-4.922-2.103-3.691-2.976-8.561-5.037-12.305s-6.384-5.889-8.635-2.377c-1.483 2.335-1.294 5.911-2.03 8.877-1.146 4.606-4.617 7.498-8.056 7.751-3.428.252-6.773-1.725-9.644-4.407-5.921-5.553-10.286-14.366-11.979-24.158-.747-4.364-.957-9.118.337-13.209s4.417-7.246 7.519-6.468c2.041-4.312-1.987-10.034-5.616-9.529-3.639.505-6.489 4.407-9.476 7.404-2.976 2.998-7.141 5.175-10.138 2.198.021 2.766-2.23 4.596-4.175 4.365-1.936-.221-3.66-1.777-5.438-2.882-6.867-4.28-15.586-1.441-20.466 6.658 3.05-12.978 7.52-27.871 16.89-30.921 3.829-1.251 8.004-.221 11.622-2.387 6.405-3.839 7.698-18.342 2.166-24.326.705 5.658.568 12.263-2.419 16.133s-9.255 1.346-8.876-4.375c-.863 3.944-5.153 4.543-7.131 1.514-1.987-3.028-1.819-7.982-.41-11.6s3.807-6.216 6.132-8.708c4.995-5.353 10.064-10.77 15.849-14.135 5.795-3.366 12.484-4.501 18.289-1.157 3.061 1.767 5.753 4.712 8.877 6.268 3.123 1.567 7.088 1.367 9.16-2.293 2.324-4.08 1.23-10.138 2.093-15.239 1.546-9.013 10.559-13.231 15.555-7.278-3.734-.957-7.594 3.46-8.057 8.813-.473 5.353 2.23 10.759 5.848 12.378 6.079 2.693 12.032-4.08 16.628-10.349l14.408-19.678a23.75 23.75 0 0 1 2.577-3.134 8.29 8.29 0 0 1 11.327-.231c4.859 3.965 7.141 12.095 11.127 17.69 5.784 8.13 14.44 10.107 22.496 11.685l18.026 3.523c4.008 7.456 7.504 15.176 10.465 23.106-10.181 4.323-19.573 12.41-26.945 23.296z" class="C"/><use xlink:href="#H" class="C"/><use xlink:href="#I" class="C"/><path d="M254.368 113.735c.01-.003.02-.004.03-.006a5.46 5.46 0 0 0 .57-.608l-.6.614z" class="D"/><use xlink:href="#J" class="C"/></g><mask id="C" maskUnits="userSpaceOnUse" x="268" y="97" width="190" height="275" mask-type="alpha"><path d="M389.941 371.856a189.9 189.9 0 0 0 47.446-59.68c11.627-22.906 18.498-47.939 20.196-73.584a190.46 190.46 0 0 0-10.312-75.616c-8.503-24.247-21.824-46.512-39.157-65.448L268.5 226l121.441 145.856z" fill="#ec9785"/></mask><g mask="url(#C)"><path d="M445.616 205.308c.005 24.862-4.888 49.481-14.4 72.451S407.76 321.6 390.18 339.18s-38.451 31.524-61.421 41.036-47.589 14.405-72.451 14.4C151.757 394.616 67 309.858 67 205.308a189.24 189.24 0 0 1 9.655-59.842 189.51 189.51 0 0 1 68.949-93.704C177.843 28.529 216.57 16.019 256.308 16c34.272-.012 67.903 9.283 97.305 26.893s53.469 42.873 69.633 73.093c4.008 7.456 7.504 15.176 10.465 23.106l1.199 3.324v.01c1.735 4.901 3.264 9.893 4.585 14.976 4.077 15.642 6.134 31.742 6.121 47.906h0z" fill="#ffcd56"/><path d="M406.766 162.388l9.781 2.303c-.568 11.011-6.026 21.202-13.346 24.894-3.05 1.535-6.447 2.103-8.971 4.974-2.283 2.609-3.44 6.668-4.502 10.549l-5.584 20.319c-1.999 7.299-4.565 15.408-9.76 18.037-4.459 2.261-9.56-.505-12.989-5.143s-5.521-10.875-7.551-16.953c.126 6.625-2.955 13.125-7.32 15.428-4.375 2.303-9.697.221-12.621-4.922-2.103-3.691-2.976-8.561-5.037-12.305s-6.384-5.889-8.635-2.377c-1.483 2.335-1.294 5.911-2.03 8.877-1.146 4.606-4.617 7.498-8.056 7.751-3.428.252-6.773-1.725-9.644-4.407-5.921-5.553-10.286-14.366-11.979-24.158-.747-4.364-.957-9.118.337-13.209s4.417-7.246 7.519-6.468c2.041-4.312-1.987-10.034-5.616-9.529-3.639.505-6.489 4.407-9.476 7.404-2.976 2.998-7.141 5.175-10.138 2.198.021 2.766-2.23 4.596-4.175 4.365-1.936-.221-3.66-1.777-5.438-2.882-6.867-4.28-15.586-1.441-20.466 6.658 3.05-12.978 7.52-27.871 16.89-30.921 3.829-1.251 8.004-.221 11.622-2.387 6.405-3.839 7.698-18.342 2.166-24.326.705 5.658.568 12.263-2.419 16.133s-9.255 1.346-8.876-4.375c-.863 3.944-5.153 4.543-7.131 1.514-1.987-3.028-1.819-7.982-.41-11.6s3.807-6.216 6.132-8.708c4.995-5.353 10.064-10.77 15.849-14.135 5.795-3.366 12.484-4.501 18.289-1.157 3.061 1.767 5.753 4.712 8.877 6.268 3.123 1.567 7.088 1.367 9.16-2.293 2.324-4.08 1.23-10.138 2.093-15.239 1.546-9.013 10.559-13.23 15.555-7.278-3.734-.957-7.594 3.46-8.057 8.814-.473 5.353 2.23 10.759 5.848 12.378 6.079 2.693 12.032-4.08 16.628-10.349l14.408-19.677a23.75 23.75 0 0 1 2.577-3.134 8.29 8.29 0 0 1 11.327-.231c4.859 3.965 7.141 12.095 11.127 17.689 5.784 8.13 14.44 10.107 22.496 11.685l18.026 3.523c4.008 7.456 7.504 15.176 10.465 23.106-10.181 4.323-19.573 12.41-26.945 23.296zM426.18 288.93a188.5 188.5 0 0 1-15.67 26.219c-3.786-1.62-7.856 1.272-11.4 3.986-3.702 2.839-8.151 5.605-11.948 3.018-3.881-2.65-5.132-10.065-3.902-15.944 1.231-5.868 4.302-10.538 7.278-14.976 3.155-4.712 6.531-9.602 10.917-11.432 4.396-1.83 10.044.757 11.327 7.004l3.113-.105c-1.746-2.398-.831-7.362 1.514-8.235 2.703-1.02 5.049 2.692 6.647 5.974l2.124 4.491z" class="E"/><use xlink:href="#H" x="-25" y="12" class="E"/><use xlink:href="#K" class="E"/><path d="M387.733 261.362c.427-1.227-.189-2.636-.32-3.993-.062-1.752.403-3.483 1.334-4.969.926-1.401 1.627-2.939 2.079-4.556.19-.737.155-1.514-.1-2.231-.289-.65-.99-.946-1.391-.432l.859.554a7.82 7.82 0 0 0-3.488.169 4.32 4.32 0 0 0-1.687 1.167c-.46.519-.788 1.141-.957 1.813-.142 1.049-.374 2.084-.694 3.093-.513 1.054-1.505 1.404-2.129 2.329-.425.821-.64 1.734-.625 2.657a5.57 5.57 0 0 0 .713 2.635c.783 1.318 2.028 2.297 3.494 2.748 1.049.376 2.432.396 2.912-.984zm24.402 7.363a12.05 12.05 0 0 0 1.512 2.775c1.168 1.176 2.756.453 4.173.167 1.287-.203 2.604-.054 3.812.431a7.21 7.21 0 0 1 3.053 2.323c-.55-2.742-1.75-5.311-3.498-7.492a17.47 17.47 0 0 0-6.551-5.045c-3.341-1.362-6.86-1.494-10.334-1.616l-.6.154c1.529 4.451 6.331 4.352 8.433 8.303z" class="E"/><path d="M308.783 277.83l.009.019.175-.336-.184.317z" class="D"/><use xlink:href="#L" class="E"/></g><mask id="D" maskUnits="userSpaceOnUse" x="38" y="33" width="311" height="380" mask-type="alpha"><path d="M234.6 33.133a189.08 189.08 0 0 0-88.938 18.498c-27.711 13.304-51.781 33.164-70.135 57.87s-30.441 53.514-35.22 83.945-2.107 61.57 7.787 90.735 26.711 55.481 49.005 76.679a189.36 189.36 0 0 0 78.964 45.006c29.571 8.362 60.727 9.39 90.782 2.994s58.108-20.023 81.742-39.707L227.5 223l7.1-189.867z" fill="#73e1d4"/></mask><g mask="url(#D)"><path d="M417.616 221.308c.005 24.862-4.888 49.481-14.4 72.451S379.76 337.6 362.18 355.18s-38.451 31.524-61.421 41.036-47.589 14.405-72.451 14.4C123.757 410.616 39 325.858 39 221.308a189.24 189.24 0 0 1 9.655-59.842 189.51 189.51 0 0 1 68.949-93.704C149.843 44.529 188.57 32.019 228.308 32c34.272-.012 67.903 9.283 97.305 26.893s53.469 42.873 69.633 73.093c4.008 7.456 7.504 15.176 10.465 23.106l1.199 3.324v.01c1.735 4.901 3.264 9.893 4.585 14.976 4.077 15.642 6.134 31.742 6.121 47.906h0z" fill="#4bc0c0"/><use xlink:href="#G" x="-53" y="28" class="B"/><path d="M148.714 186.328c-2.913 4.375-6.804 7.12-10.296 10.538-3.481 3.429-6.794 8.056-7.488 13.998-.442 3.808.242 7.678.147 11.527s-1.377 8.182-3.996 9.14c-4.133 1.493-7.289-6.185-11.537-6.721-3.377-.421-6.416 4.891-5.438 9.497s5.574 6.647 8.214 3.639c2.388 4.007.705 11.274-2.882 12.505l-1.125 7.562c-9.066-6.342-18.226-12.789-25.935-22.076-8.574-10.241-13.892-22.81-15.271-36.094-.999-10.675.484-22.886-4.417-31.099-3.923-6.574-10.654-8.025-16.712-7.615a59.36 59.36 0 0 0-3.323.337 187.23 187.23 0 0 1 13.556-31.026c1.233-.529 2.378-1.242 3.397-2.114 5.637-4.785 8.14-14.471 12.715-21.171a27.62 27.62 0 0 1 .915-1.262c4.68-6.11 10.948-9.255 17.006-12.179 13.409-6.51 27.207-13.104 41.363-12.2l-4.028.389-14.114 39.502-2.166 6.068c-2.671 7.488-5.427 15.46-5.017 23.843.242 4.964 1.967 10.264 5.248 11.968 3.061 1.578 6.405-.358 9.36-2.272l3.745-2.408c4.49-2.892 9.465-5.858 14.208-3.923 4.344 1.767 7.551 7.667 8.162 14.03.559 6.185-.95 12.381-4.292 17.616h0zm26.71 89.897l-39.348-24.226.223-.574c-8.155 3.106-11.541 17.602-10.193 29.456s5.918 22.452 8.226 34.002a90.25 90.25 0 0 1-3.403 47.358 387.85 387.85 0 0 0 45.561-62.781c1.823-2.822 3.212-5.903 4.121-9.138.833-3.441.705-7.579-.964-10.339a11.51 11.51 0 0 0-4.223-3.758h0zM123.66 129.306c-1.393 3.132-1.929 7.307-.665 10.547 1.291 3.309 4.02 4.805 6.532 6.05l7.247 3.592c2.411 1.195 5.01 2.402 7.468 1.419 2.964-1.186 5.019-5.834 4.488-10.148-.566-4.591-3.46-7.749-6.137-10.439l-11.236-11.29-2.111 2.585c-2.284 2.227-4.172 4.825-5.586 7.684h0z" class="B"/><use xlink:href="#H" x="-53" y="28" class="B"/><use xlink:href="#I" x="-53" y="28" class="B"/><path d="M201.368 141.735c.01-.003.02-.004.03-.006a5.46 5.46 0 0 0 .57-.608l-.6.614z" class="D"/><use xlink:href="#J" x="-53" y="28" class="B"/><use xlink:href="#K" x="-28" y="16" class="B"/><path d="M280.783 293.83l.009.019.175-.336-.184.317z" class="D"/><use xlink:href="#L" x="-28" y="16" class="B"/><path d="M241.368 110.093a4.21 4.21 0 0 0 2.139 1.122c.807.158 1.643.076 2.404-.236 1.575-.689 3.021-1.644 4.273-2.823a10.04 10.04 0 0 0 2.591-2.826c.371-.657.61-1.381.7-2.13a5.74 5.74 0 0 0-.17-2.236c-.585-1.712-2.07-2.286-3.381-2.674l-6.292-1.866 1.517-1.368c-1.561-.838-3.288.717-4.263 2.642-.626 1.257-1.062 2.6-1.295 3.985-.522 3.021-.011 6.619 1.777 8.41zm37.031-12.432c.591.652 1.408 1.054 2.285 1.126s1.749-.194 2.437-.741c.593-.445 1.086-1.01 1.445-1.659a5.27 5.27 0 0 0 .644-2.103c.149-1.65-.667-3.484-1.832-3.626l.266-1.545c-2.244-.405-5.006-.486-6.209 2.239a6.41 6.41 0 0 0-.361 3.284 6.39 6.39 0 0 0 1.325 3.026z" class="D"/></g><path d="M562.75 176.5c-11 0-20.45-2.2-28.35-6.6-7.8-4.5-13.8-10.8-18-18.9-4.2-8.2-6.3-17.85-6.3-28.95s2.1-20.7 6.3-28.8 10.2-14.35 18-18.75c7.9-4.5 17.35-6.75 28.35-6.75 5.5 0 10.9.7 16.2 2.1s9.95 3.4 13.95 6c2.6 1.7 4.15 3.75 4.65 6.15.5 2.3.2 4.45-.9 6.45-1.1 1.9-2.75 3.2-4.95 3.9-2.2.6-4.65 0-7.35-1.8-3.1-2-6.45-3.45-10.05-4.35a44.98 44.98 0 0 0-10.95-1.35c-10.7 0-18.85 3.25-24.45 9.75-5.6 6.4-8.4 15.55-8.4 27.45s2.8 21.1 8.4 27.6 13.75 9.75 24.45 9.75a47.43 47.43 0 0 0 11.25-1.35c3.7-1 7.2-2.5 10.5-4.5 2.7-1.7 5.1-2.25 7.2-1.65s3.65 1.85 4.65 3.75c1.1 1.8 1.45 3.8 1.05 6s-1.75 4.15-4.05 5.85c-4 2.9-8.8 5.15-14.4 6.75a63.57 63.57 0 0 1-16.8 2.25zm96.638 0c-10.2 0-19.15-2.25-26.85-6.75-7.6-4.5-13.5-10.8-17.7-18.9-4.2-8.2-6.3-17.8-6.3-28.8 0-11.1 2.1-20.7 6.3-28.8s10.1-14.35 17.7-18.75c7.6-4.5 16.55-6.75 26.85-6.75s19.25 2.25 26.85 6.75c7.6 4.4 13.5 10.65 17.7 18.75s6.3 17.65 6.3 28.65c0 11.1-2.1 20.75-6.3 28.95-4.2 8.1-10.1 14.4-17.7 18.9s-16.55 6.75-26.85 6.75zm0-16.5c9.7 0 17.25-3.35 22.65-10.05s8.1-16 8.1-27.9c0-12-2.7-21.3-8.1-27.9-5.3-6.6-12.85-9.9-22.65-9.9-9.7 0-17.25 3.3-22.65 9.9s-8.1 15.9-8.1 27.9c0 11.9 2.7 21.2 8.1 27.9s12.95 10.05 22.65 10.05zm109.736 16.2c-5.1 0-8.75-2.5-10.95-7.5l-39.15-87.9c-1.6-3.8-1.55-6.85.15-9.15 1.8-2.4 4.4-3.6 7.8-3.6 2.9 0 5.05.65 6.45 1.95 1.5 1.2 2.75 3.05 3.75 5.55l32.25 74.85 32.25-75c1.1-2.4 2.4-4.2 3.9-5.4 1.5-1.3 3.6-1.95 6.3-1.95 3.2 0 5.6 1.2 7.2 3.6 1.7 2.4 1.7 5.45 0 9.15l-39.15 87.9c-1.1 2.5-2.5 4.4-4.2 5.7-1.6 1.2-3.8 1.8-6.6 1.8zm74.534 0c-6.4 0-9.6-3.3-9.6-9.9V77.95c0-6.6 3.2-9.9 9.6-9.9s9.6 3.3 9.6 9.9v88.35c0 6.6-3.2 9.9-9.6 9.9zm42.934-1.2c-6.8 0-10.2-3.4-10.2-10.2V79.45c0-6.8 3.4-10.2 10.2-10.2h29.1c17.7 0 31.35 4.55 40.95 13.65 9.7 9.1 14.55 22.15 14.55 39.15 0 16.9-4.85 29.95-14.55 39.15-9.6 9.2-23.25 13.8-40.95 13.8h-29.1zm9-15.9h18.9c24.4 0 36.6-12.35 36.6-37.05 0-24.6-12.2-36.9-36.6-36.9h-18.9v73.95zm145.378 17.1c-6.4 0-9.6-3.3-9.6-9.9V79c0-6.5 3.25-9.75 9.75-9.75h36.15c11.6 0 20.55 2.8 26.85 8.4 6.3 5.5 9.45 13.25 9.45 23.25 0 7.9-2.05 14.45-6.15 19.65-4.1 5.1-10 8.55-17.7 10.35 5.1 1.6 9.3 5.45 12.6 11.55l11.25 20.85c1.7 3.2 2 6.15.9 8.85-1 2.7-3.55 4.05-7.65 4.05-2.7 0-4.9-.55-6.6-1.65-1.7-1.2-3.2-3-4.5-5.4l-15.15-27.9c-1.8-3.4-3.95-5.65-6.45-6.75-2.4-1.2-5.5-1.8-9.3-1.8h-14.25v33.6c0 6.6-3.2 9.9-9.6 9.9zm9.6-57.75h23.4c14 0 21-5.7 21-17.1 0-11.3-7-16.95-21-16.95h-23.4v34.05zM1144.4 175c-6.8 0-10.2-3.4-10.2-10.2V79.45c0-6.8 3.4-10.2 10.2-10.2h53.55c5.2 0 7.8 2.5 7.8 7.5 0 5.2-2.6 7.8-7.8 7.8h-45.3v29.1h42c5.2 0 7.8 2.55 7.8 7.65s-2.6 7.65-7.8 7.65h-42v30.75h45.3c5.2 0 7.8 2.55 7.8 7.65s-2.6 7.65-7.8 7.65h-53.55zm78.45 1.2c-3.5 0-6-1.2-7.5-3.6s-1.45-5.3.15-8.7l39.6-87.75c1.3-2.9 2.85-4.95 4.65-6.15 1.9-1.3 4.05-1.95 6.45-1.95 2.3 0 4.35.65 6.15 1.95 1.9 1.2 3.5 3.25 4.8 6.15l39.75 87.75c1.6 3.5 1.7 6.45.3 8.85-1.4 2.3-3.8 3.45-7.2 3.45-2.8 0-5-.65-6.6-1.95-1.5-1.4-2.85-3.5-4.05-6.3l-7.5-17.4h-51.6l-7.35 17.4c-1.3 2.9-2.65 5-4.05 6.3s-3.4 1.95-6 1.95zm43.05-86.1l-19.05 45.15h38.4L1266.2 90.1h-.3zm77.27 84.9c-6.5 0-9.75-3.3-9.75-9.9V78.55c0-6.5 3.2-9.75 9.6-9.75s9.6 3.25 9.6 9.75v80.1h43.5c5.6 0 8.4 2.7 8.4 8.1 0 5.5-2.8 8.25-8.4 8.25h-52.95zM561.272 386.216c-6.485 0-9.728-3.344-9.728-10.032v-82.08h-29.64c-5.573 0-8.36-2.736-8.36-8.208 0-5.371 2.787-8.056 8.36-8.056h78.736c5.573 0 8.36 2.685 8.36 8.056 0 5.472-2.787 8.208-8.36 8.208H571v82.08c0 6.688-3.243 10.032-9.728 10.032zm76.166 0c-6.485 0-9.728-3.344-9.728-10.032v-89.528c0-6.688 3.243-10.032 9.728-10.032s9.728 3.344 9.728 10.032v89.528c0 6.688-3.242 10.032-9.728 10.032zm49.891 0c-5.878 0-8.816-3.04-8.816-9.12v-91.352c0-6.08 3.04-9.12 9.12-9.12 2.533 0 4.509.507 5.928 1.52 1.52.912 2.888 2.533 4.104 4.864l35.112 64.904 35.112-64.904c1.216-2.331 2.533-3.952 3.952-4.864 1.418-1.013 3.394-1.52 5.928-1.52 5.877 0 8.816 3.04 8.816 9.12v91.352c0 6.08-2.939 9.12-8.816 9.12s-8.816-3.04-8.816-9.12V312.8l-28.576 52.136c-1.014 1.723-2.078 2.989-3.192 3.8s-2.635 1.216-4.56 1.216-3.496-.405-4.712-1.216c-1.216-.912-2.28-2.179-3.192-3.8l-28.576-51.832v63.992c0 6.08-2.939 9.12-8.816 9.12zM828.106 385c-6.891 0-10.336-3.445-10.336-10.336v-86.488c0-6.891 3.445-10.336 10.336-10.336h54.264c5.269 0 7.904 2.533 7.904 7.6 0 5.269-2.635 7.904-7.904 7.904h-45.904v29.488h42.56c5.269 0 7.904 2.584 7.904 7.752s-2.635 7.752-7.904 7.752h-42.56v31.16h45.904c5.269 0 7.904 2.584 7.904 7.752S887.639 385 882.37 385h-54.264zm147.161 0c-6.891 0-10.336-3.445-10.336-10.336v-86.488c0-6.891 3.445-10.336 10.336-10.336h29.483c17.94 0 31.77 4.611 41.5 13.832 9.83 9.221 14.74 22.445 14.74 39.672 0 17.125-4.91 30.349-14.74 39.672-9.73 9.323-23.56 13.984-41.5 13.984h-29.483zm9.12-16.112h19.153c24.72 0 37.09-12.515 37.09-37.544 0-24.928-12.37-37.392-37.09-37.392h-19.153v74.936zm102.763 17.328c-3.55 0-6.08-1.216-7.6-3.648s-1.47-5.371.15-8.816l40.13-88.92c1.32-2.939 2.89-5.016 4.71-6.232 1.93-1.317 4.11-1.976 6.54-1.976 2.33 0 4.41.659 6.23 1.976 1.92 1.216 3.55 3.293 4.86 6.232l40.28 88.92c1.62 3.547 1.73 6.536.31 8.968-1.42 2.331-3.85 3.496-7.3 3.496-2.84 0-5.07-.659-6.69-1.976-1.52-1.419-2.88-3.547-4.1-6.384l-7.6-17.632h-52.29l-7.45 17.632c-1.31 2.939-2.68 5.067-4.1 6.384s-3.45 1.976-6.08 1.976zm43.62-87.248l-19.3 45.752h38.91l-19.3-45.752h-.31zm99.72 87.248c-6.49 0-9.73-3.344-9.73-10.032v-82.08h-29.64c-5.57 0-8.36-2.736-8.36-8.208 0-5.371 2.79-8.056 8.36-8.056h78.74c5.57 0 8.36 2.685 8.36 8.056 0 5.472-2.79 8.208-8.36 8.208h-29.64v82.08c0 6.688-3.25 10.032-9.73 10.032zm55.62 0c-3.54 0-6.08-1.216-7.6-3.648s-1.46-5.371.16-8.816l40.12-88.92c1.32-2.939 2.89-5.016 4.72-6.232 1.92-1.317 4.1-1.976 6.53-1.976 2.33 0 4.41.659 6.23 1.976 1.93 1.216 3.55 3.293 4.87 6.232l40.28 88.92c1.62 3.547 1.72 6.536.3 8.968-1.42 2.331-3.85 3.496-7.29 3.496-2.84 0-5.07-.659-6.69-1.976-1.52-1.419-2.89-3.547-4.11-6.384l-7.6-17.632h-52.28l-7.45 17.632c-1.32 2.939-2.69 5.067-4.11 6.384-1.41 1.317-3.44 1.976-6.08 1.976zm43.63-87.248l-19.31 45.752h38.92l-19.31-45.752h-.3z" fill="#000"/><path stroke="#000" stroke-width="3" d="M514 228.5h897"/><defs><linearGradient id="E" x1="227.5" y1="5" x2="227.5" y2="442" gradientUnits="userSpaceOnUse"><stop stop-color="#ff6384"/><stop offset="1" stop-color="#ffcd56"/></linearGradient><linearGradient id="F" x1="22.5" y1="-70" x2="384.526" y2="603.071" gradientUnits="userSpaceOnUse"><stop stop-color="#ff6384"/><stop offset=".99" stop-color="#ffcd56"/></linearGradient><path id="G" d="M260.596 65.584c-8.507-4.601-17.953-7.198-27.617-7.593s-19.289 1.421-28.144 5.312c-7.797 3.393-16.006 9.48-18.607 20.471 10.519-6.208 24.136 3.601 26.843 19.336l-.632.174c-1.43 10.898 1.762 22.764 7.94 29.522.812-7.019 5.427-11.797 9.967-14.781s9.562-5.152 13.027-10.282c4.108-6.081 5.151-14.969 6.783-23.077s4.728-16.822 10.44-19.082z"/><path id="H" d="M331.953 232.506c-6.692.421-11.992-7.816-15.514-15.92s-6.736-17.371-12.773-21.496c-3.45-2.357-7.383-2.68-11.125-3.822s-7.659-3.505-9.448-8.318l-4.244-1.715c-5.606 3.152-11.285 6.362-16.116 11.491-5.417 5.755-8.792 13.132-9.602 20.993-.811 8.497 2.183 17.97 7.777 21.162 4.421 2.522 9.568.932 14.046 3.241 5.594 2.884 8.916 11.263 10.173 19.537s.939 16.871 1.838 25.238 3.379 17.073 8.51 21.361c6.42 5.366 15.841.907 18.721-8.86 1.413-4.791 1.365-10.198 2.421-15.171 1.861-8.758 6.883-15.256 10.866-22.441s7.119-16.942 4.47-25.28z"/><path id="I" d="M265.832 146.443c.624.575 1.207 1.193 1.743 1.85.555.957.838 2.047.819 3.153a6.08 6.08 0 0 1-.926 3.123c.806-.046 1.593-.259 2.313-.624a5.84 5.84 0 0 0 1.868-1.501 26.91 26.91 0 0 0 3.206-4.516c.682-1.113 1.408-2.618.945-3.939-.316-.903-1.064-1.287-1.588-1.966-.83-1.075-1.036-2.783-1.466-4.259-.928-3.188-3.153-5.532-5.567-5.867l.335.064c-1.008.345-1.713 1.947-1.49 3.388.204 1.313 1.047 2.402.963 3.741-.121 1.924-2.044 2.828-2.163 4.753a3.67 3.67 0 0 0 1.008 2.6h0z"/><path id="J" d="M256.374 122.769c1.48-.951 2.306-3.582 1.817-5.784-.486-2.189-2.206-3.66-3.793-3.256-.461.467-1.032.809-1.661.994s-1.295.207-1.934.064c-.982-.252-2.059-.903-2.909-.164a4.4 4.4 0 0 0-.991 1.935l-.945 2.9a1.83 1.83 0 0 0-.112 1.1.94.94 0 0 0 .283.377.93.93 0 0 0 .431.19l5.669 1.671c1.377.406 2.864.797 4.145-.027z"/><path id="K" d="M374.03 259.501l-2.62-4.29a14.33 14.33 0 0 0-3.453-4.336c-.313-.262-.675-.459-1.065-.579a3.05 3.05 0 0 0-1.205-.12c-.406.041-.8.162-1.158.357s-.674.46-.928.778l.106.817c1.991 2.498 4.098 5.273 4.603 8.98.199 1.462.129 2.975.304 4.442s.671 2.991 1.618 3.623c1.376.919 2.991-.436 3.97-2.089a7.19 7.19 0 0 0 1.114-4.579 8.03 8.03 0 0 0-1.286-3.004h0z"/><path id="L" d="M305.081 284.995c-.807 1.466-1.501 2.991-2.077 4.562a39.82 39.82 0 0 0-1.505 7.807c-.188 1.504-.246 3.426.697 4.159.27.179.597.254.919.211s.617-.203.83-.449a6.94 6.94 0 0 0 1.268-1.884 43.44 43.44 0 0 0 4.28-10.159c.902-3.744.894-8.152-.701-11.393l-3.711 7.146z"/></defs></svg>