<?xml version="1.0" encoding="UTF-8"?>
<svg fill="none" viewBox="0 0 1411 455" xmlns="http://www.w3.org/2000/svg">
<mask id="f" x="4" y="0" width="447" height="447" style="mask-type:alpha" maskUnits="userSpaceOnUse">
<circle cx="227.5" cy="223.5" r="218.5" stroke="url(#b)" stroke-width="10"/>
</mask>
<g mask="url(#f)">
<ellipse cx="22.5" cy="305.5" rx="348.5" ry="375.5" fill="url(#a)"/>
</g>
<mask id="e" x="254" y="12" width="140" height="190" style="mask-type:alpha" maskUnits="userSpaceOnUse">
<path d="m393.78 73.161c-34.08-37.036-81.438-58.981-131.66-61.007l-7.62 189.85 139.28-128.84z" fill="#DDEC85"/>
</mask>
<g mask="url(#e)">
<path d="m470.62 193.31c5e-3 24.862-4.888 49.481-14.4 72.451s-23.456 43.841-41.036 61.421-38.451 31.524-61.421 41.036-47.589 14.405-72.451 14.4c-104.55 0-189.31-84.758-189.31-189.31-0.0181-20.337 3.242-40.543 9.6549-59.842 12.59-37.691 36.71-70.471 68.949-93.704 32.239-23.233 70.966-35.743 110.7-35.762 34.272-0.0119 67.903 9.2831 97.305 26.893 29.401 17.61 53.469 42.873 69.633 73.093 4.008 7.456 7.504 15.176 10.465 23.106 0.41 1.104 0.81 2.209 1.199 3.324v0.01c1.735 4.901 3.264 9.893 4.585 14.976 4.077 15.642 6.134 31.742 6.121 47.906z" fill="#C96379"/>
<path d="m260.6 65.584c-8.507-4.6006-17.953-7.1976-27.617-7.593-9.663-0.3953-19.289 1.4214-28.144 5.3116-7.797 3.393-16.006 9.4797-18.607 20.471 10.519-6.208 24.136 3.6006 26.843 19.336l-0.632 0.174c-1.43 10.898 1.762 22.764 7.94 29.522 0.812-7.019 5.427-11.797 9.967-14.781 4.54-2.985 9.562-5.152 13.027-10.282 4.108-6.081 5.151-14.969 6.783-23.077 1.632-8.1079 4.728-16.822 10.44-19.082z" fill="#9D5161"/>
<path d="m431.77 150.39c3.26 0.767 6.521 1.535 9.781 2.303-0.568 11.011-6.026 21.202-13.346 24.894-3.05 1.535-6.447 2.103-8.971 4.974-2.283 2.609-3.44 6.668-4.502 10.549-1.861 6.773-3.723 13.546-5.584 20.319-1.999 7.299-4.565 15.408-9.76 18.037-4.459 2.261-9.56-0.505-12.989-5.143-3.428-4.638-5.521-10.875-7.551-16.953 0.126 6.625-2.955 13.125-7.32 15.428-4.375 2.303-9.697 0.221-12.621-4.922-2.103-3.691-2.976-8.561-5.037-12.305-2.062-3.744-6.384-5.889-8.635-2.377-1.483 2.335-1.294 5.911-2.03 8.877-1.146 4.606-4.617 7.498-8.056 7.751-3.428 0.252-6.773-1.725-9.644-4.407-5.921-5.553-10.286-14.366-11.979-24.158-0.747-4.364-0.957-9.118 0.337-13.209 1.293-4.091 4.417-7.246 7.519-6.468 2.041-4.312-1.987-10.034-5.616-9.529-3.639 0.505-6.489 4.407-9.476 7.404-2.976 2.998-7.141 5.175-10.138 2.198 0.021 2.766-2.23 4.596-4.175 4.365-1.936-0.221-3.66-1.777-5.438-2.882-6.867-4.28-15.586-1.441-20.466 6.658 3.05-12.978 7.52-27.871 16.89-30.921 3.829-1.251 8.004-0.221 11.622-2.387 6.405-3.839 7.698-18.342 2.166-24.326 0.705 5.658 0.568 12.263-2.419 16.133-2.986 3.87-9.255 1.346-8.876-4.375-0.863 3.944-5.153 4.543-7.131 1.514-1.987-3.028-1.819-7.982-0.41-11.6s3.807-6.216 6.132-8.708c4.995-5.353 10.064-10.77 15.849-14.135 5.795-3.3656 12.484-4.5015 18.289-1.157 3.061 1.767 5.753 4.712 8.877 6.268 3.123 1.567 7.088 1.367 9.16-2.293 2.324-4.08 1.23-10.138 2.093-15.239 1.546-9.0131 10.559-13.23 15.555-7.2779-3.734-0.957-7.594 3.4602-8.057 8.8135-0.473 5.3532 2.23 10.759 5.848 12.378 6.079 2.693 12.032-4.08 16.628-10.348 4.795-6.5627 9.598-13.122 14.408-19.678 0.768-1.1162 1.63-2.1647 2.577-3.1341 1.506-1.4683 3.514-2.3091 5.618-2.3521 2.103-0.043 4.144 0.7152 5.709 2.1208 4.859 3.9648 7.141 12.095 11.127 17.69 5.784 8.1297 14.44 10.107 22.496 11.685 6.005 1.167 12.014 2.342 18.026 3.523 4.008 7.456 7.504 15.176 10.465 23.106-10.181 4.323-19.573 12.41-26.945 23.296z" fill="#9D5161"/>
<path d="m331.95 232.51c-6.692 0.421-11.992-7.816-15.514-15.92s-6.736-17.371-12.773-21.496c-3.45-2.357-7.383-2.68-11.125-3.822s-7.659-3.505-9.448-8.318l-4.244-1.715c-5.606 3.152-11.285 6.362-16.116 11.491-5.417 5.755-8.792 13.132-9.602 20.993-0.811 8.497 2.183 17.97 7.777 21.162 4.421 2.522 9.568 0.932 14.046 3.241 5.594 2.884 8.916 11.263 10.173 19.537 1.257 8.273 0.939 16.871 1.838 25.238 0.9 8.367 3.379 17.073 8.51 21.361 6.42 5.366 15.841 0.907 18.721-8.86 1.413-4.791 1.365-10.198 2.421-15.171 1.861-8.758 6.883-15.256 10.866-22.441 3.983-7.184 7.119-16.942 4.47-25.28z" fill="#9D5161"/>
<path d="m265.83 146.44c0.624 0.575 1.207 1.193 1.743 1.85 0.555 0.957 0.838 2.047 0.819 3.153s-0.339 2.185-0.926 3.123c0.806-0.046 1.593-0.259 2.313-0.624 0.72-0.366 1.356-0.877 1.868-1.501 1.221-1.391 2.296-2.905 3.206-4.516 0.682-1.113 1.408-2.618 0.945-3.939-0.316-0.903-1.064-1.287-1.588-1.966-0.83-1.075-1.036-2.783-1.466-4.259-0.928-3.188-3.153-5.532-5.567-5.867l0.335 0.064c-1.008 0.345-1.713 1.947-1.49 3.388 0.204 1.313 1.047 2.402 0.963 3.741-0.121 1.924-2.044 2.828-2.163 4.753-0.019 0.965 0.343 1.9 1.008 2.6z" fill="#9D5161"/>
<path d="m254.37 113.74c0.01-3e-3 0.02-4e-3 0.03-6e-3 0.205-0.188 0.396-0.391 0.57-0.608l-0.6 0.614z" fill="#E6E6E6"/>
<path d="m256.37 122.77c1.48-0.951 2.306-3.582 1.817-5.784-0.486-2.189-2.206-3.66-3.793-3.256-0.461 0.467-1.032 0.809-1.661 0.994s-1.295 0.207-1.934 0.064c-0.982-0.252-2.059-0.903-2.909-0.164-0.487 0.552-0.828 1.218-0.991 1.935-0.315 0.967-0.63 1.934-0.945 2.9-0.15 0.347-0.189 0.73-0.112 1.1 0.06 0.147 0.158 0.277 0.283 0.377 0.125 0.099 0.273 0.165 0.431 0.19 1.89 0.557 3.779 1.114 5.669 1.671 1.377 0.406 2.864 0.797 4.145-0.027z" fill="#9D5161"/>
</g>
<mask id="d" x="268" y="97" width="190" height="275" style="mask-type:alpha" maskUnits="userSpaceOnUse">
<path d="m389.94 371.86c19.679-16.471 35.82-36.774 47.446-59.68 11.627-22.906 18.498-47.939 20.196-73.584 1.699-25.645-1.809-51.37-10.312-75.616-8.503-24.247-21.824-46.512-39.157-65.448l-139.61 128.47 121.44 145.86z" fill="#EC9785"/>
</mask>
<g mask="url(#d)">
<path d="m445.62 205.31c5e-3 24.862-4.888 49.481-14.4 72.451s-23.456 43.841-41.036 61.421-38.451 31.524-61.421 41.036-47.589 14.405-72.451 14.4c-104.55 0-189.31-84.758-189.31-189.31-0.0181-20.337 3.242-40.543 9.6547-59.842 12.59-37.691 36.71-70.471 68.949-93.704 32.239-23.233 70.966-35.743 110.7-35.762 34.272-0.0119 67.903 9.2831 97.305 26.893 29.401 17.61 53.469 42.873 69.633 73.093 4.008 7.456 7.504 15.176 10.465 23.106 0.41 1.104 0.81 2.209 1.199 3.324v0.01c1.735 4.901 3.264 9.893 4.585 14.976 4.077 15.642 6.134 31.742 6.121 47.906z" fill="#C4944D"/>
<path d="m406.77 162.39c3.26 0.767 6.521 1.535 9.781 2.303-0.568 11.011-6.026 21.202-13.346 24.894-3.05 1.535-6.447 2.103-8.971 4.974-2.283 2.609-3.44 6.668-4.502 10.549-1.861 6.773-3.723 13.546-5.584 20.319-1.999 7.299-4.565 15.408-9.76 18.037-4.459 2.261-9.56-0.505-12.989-5.143-3.428-4.638-5.521-10.875-7.551-16.953 0.126 6.625-2.955 13.125-7.32 15.428-4.375 2.303-9.697 0.221-12.621-4.922-2.103-3.691-2.976-8.561-5.037-12.305-2.062-3.744-6.384-5.889-8.635-2.377-1.483 2.335-1.294 5.911-2.03 8.877-1.146 4.606-4.617 7.498-8.056 7.751-3.428 0.252-6.773-1.725-9.644-4.407-5.921-5.553-10.286-14.366-11.979-24.158-0.747-4.364-0.957-9.118 0.337-13.209 1.293-4.091 4.417-7.246 7.519-6.468 2.041-4.312-1.987-10.034-5.616-9.529-3.639 0.505-6.489 4.407-9.476 7.404-2.976 2.998-7.141 5.175-10.138 2.198 0.021 2.766-2.23 4.596-4.175 4.365-1.936-0.221-3.66-1.777-5.438-2.882-6.867-4.28-15.586-1.441-20.466 6.658 3.05-12.978 7.52-27.871 16.89-30.921 3.829-1.251 8.004-0.221 11.622-2.387 6.405-3.839 7.698-18.342 2.166-24.326 0.705 5.658 0.568 12.263-2.419 16.133-2.986 3.87-9.255 1.346-8.876-4.375-0.863 3.944-5.153 4.543-7.131 1.514-1.987-3.028-1.819-7.982-0.41-11.6s3.807-6.216 6.132-8.708c4.995-5.353 10.064-10.77 15.849-14.135 5.795-3.366 12.484-4.501 18.289-1.157 3.061 1.767 5.753 4.712 8.877 6.268 3.123 1.567 7.088 1.367 9.16-2.293 2.324-4.08 1.23-10.138 2.093-15.239 1.546-9.013 10.559-13.23 15.555-7.2778-3.734-0.957-7.594 3.4602-8.057 8.8138-0.473 5.353 2.23 10.759 5.848 12.378 6.079 2.693 12.032-4.08 16.628-10.349 4.795-6.5622 9.598-13.121 14.408-19.677 0.768-1.1162 1.63-2.1647 2.577-3.1341 1.506-1.4683 3.514-2.3091 5.618-2.3521 2.103-0.043 4.144 0.7152 5.709 2.1208 4.859 3.9648 7.141 12.095 11.127 17.689 5.784 8.13 14.44 10.107 22.496 11.685 6.005 1.167 12.014 2.342 18.026 3.523 4.008 7.456 7.504 15.176 10.465 23.106-10.181 4.323-19.573 12.41-26.945 23.296z" fill="#9B763E"/>
<path d="m426.18 288.93c-4.505 9.149-9.746 17.917-15.67 26.219-3.786-1.62-7.856 1.272-11.4 3.986-3.702 2.839-8.151 5.605-11.948 3.018-3.881-2.65-5.132-10.065-3.902-15.944 1.231-5.868 4.302-10.538 7.278-14.976 3.155-4.712 6.531-9.602 10.917-11.432 4.396-1.83 10.044 0.757 11.327 7.004l3.113-0.105c-1.746-2.398-0.831-7.362 1.514-8.235 2.703-1.02 5.049 2.692 6.647 5.974 0.715 1.483 1.441 2.976 2.124 4.491z" fill="#9B763E"/>
<path d="m306.95 244.51c-6.692 0.421-11.992-7.816-15.514-15.92s-6.736-17.371-12.773-21.496c-3.45-2.357-7.383-2.68-11.125-3.822s-7.659-3.505-9.448-8.318l-4.244-1.715c-5.606 3.152-11.285 6.362-16.116 11.491-5.417 5.755-8.792 13.132-9.602 20.993-0.811 8.497 2.183 17.97 7.777 21.162 4.421 2.522 9.568 0.932 14.046 3.241 5.594 2.884 8.916 11.263 10.173 19.537 1.257 8.273 0.939 16.871 1.838 25.238 0.9 8.367 3.379 17.073 8.51 21.361 6.42 5.366 15.841 0.907 18.721-8.86 1.413-4.791 1.365-10.198 2.421-15.171 1.861-8.758 6.883-15.256 10.866-22.441 3.983-7.184 7.119-16.942 4.47-25.28z" fill="#9B763E"/>
<path d="m374.03 259.5c-0.873-1.43-1.747-2.86-2.62-4.29-0.858-1.657-2.031-3.129-3.453-4.336-0.313-0.262-0.675-0.459-1.065-0.579s-0.799-0.161-1.205-0.12-0.8 0.162-1.158 0.357-0.674 0.46-0.928 0.778l0.106 0.817c1.991 2.498 4.098 5.273 4.603 8.98 0.199 1.462 0.129 2.975 0.304 4.442 0.175 1.468 0.671 2.991 1.618 3.623 1.376 0.919 2.991-0.436 3.97-2.089 0.875-1.358 1.268-2.97 1.114-4.579-0.218-1.079-0.656-2.101-1.286-3.004z" fill="#9B763E"/>
<path d="m387.73 261.36c0.427-1.227-0.189-2.636-0.32-3.993-0.062-1.752 0.403-3.483 1.334-4.969 0.926-1.401 1.627-2.939 2.079-4.556 0.19-0.737 0.155-1.514-0.1-2.231-0.289-0.65-0.99-0.946-1.391-0.432l0.859 0.554c-1.16-0.207-2.353-0.15-3.488 0.169-0.648 0.248-1.226 0.648-1.687 1.167-0.46 0.519-0.788 1.141-0.957 1.813-0.142 1.049-0.374 2.084-0.694 3.093-0.513 1.054-1.505 1.404-2.129 2.329-0.425 0.821-0.64 1.734-0.625 2.657 0.016 0.924 0.26 1.83 0.713 2.635 0.783 1.318 2.028 2.297 3.494 2.748 1.049 0.376 2.432 0.396 2.912-0.984z" fill="#9B763E"/>
<path d="m412.14 268.72c0.38 0.987 0.888 1.92 1.512 2.775 1.168 1.176 2.756 0.453 4.173 0.167 1.287-0.203 2.604-0.054 3.812 0.431 1.209 0.484 2.263 1.287 3.053 2.323-0.55-2.742-1.75-5.311-3.498-7.492-1.749-2.182-3.995-3.912-6.551-5.045-3.341-1.362-6.86-1.494-10.334-1.616l-0.6 0.154c1.529 4.451 6.331 4.352 8.433 8.303z" fill="#9B763E"/>
<path d="m308.78 277.83 9e-3 0.019c0.058-0.112 0.116-0.224 0.175-0.336l-0.184 0.317z" fill="#E6E6E6"/>
<path d="m305.08 285c-0.807 1.466-1.501 2.991-2.077 4.562-0.761 2.546-1.265 5.161-1.505 7.807-0.188 1.504-0.246 3.426 0.697 4.159 0.27 0.179 0.597 0.254 0.919 0.211 0.322-0.044 0.617-0.203 0.83-0.449 0.523-0.554 0.952-1.191 1.268-1.884 1.852-3.191 3.291-6.605 4.28-10.159 0.902-3.744 0.894-8.152-0.701-11.393l-3.711 7.146z" fill="#9B763E"/>
</g>
<mask id="c" x="38" y="33" width="311" height="380" style="mask-type:alpha" maskUnits="userSpaceOnUse">
<path d="m234.6 33.133c-30.703-1.1542-61.226 5.1942-88.938 18.498-27.711 13.304-51.781 33.164-70.135 57.87-18.354 24.705-30.441 53.514-35.22 83.945-4.7791 30.431-2.1068 61.57 7.7867 90.735s26.712 55.481 49.005 76.679c22.293 21.199 49.393 36.645 78.964 45.006 29.571 8.362 60.726 9.39 90.782 2.994 30.055-6.396 58.108-20.023 81.742-39.707l-121.09-146.15 7.1-189.87z" fill="#73E1D4"/>
</mask>
<g mask="url(#c)">
<path d="m417.62 221.31c5e-3 24.862-4.888 49.481-14.4 72.451s-23.456 43.841-41.036 61.421-38.451 31.524-61.421 41.036-47.589 14.405-72.451 14.4c-104.55 0-189.31-84.758-189.31-189.31-0.0181-20.337 3.242-40.543 9.6547-59.842 12.59-37.691 36.71-70.471 68.949-93.704 32.239-23.233 70.966-35.743 110.7-35.762 34.272-0.0119 67.903 9.2831 97.305 26.893 29.401 17.61 53.469 42.873 69.633 73.093 4.008 7.456 7.504 15.176 10.465 23.106 0.41 1.104 0.81 2.209 1.199 3.324v0.01c1.735 4.901 3.264 9.893 4.585 14.976 4.077 15.642 6.134 31.742 6.121 47.906z" fill="#5A928B"/>
<path d="m207.6 93.584c-8.507-4.6006-17.953-7.1976-27.617-7.593-9.663-0.3953-19.289 1.4214-28.144 5.3116-7.797 3.393-16.006 9.4801-18.607 20.471 10.519-6.208 24.136 3.601 26.843 19.336l-0.632 0.174c-1.43 10.898 1.762 22.764 7.94 29.522 0.812-7.019 5.427-11.797 9.967-14.781 4.54-2.985 9.562-5.152 13.027-10.282 4.108-6.081 5.151-14.969 6.783-23.077s4.728-16.822 10.44-19.082z" fill="#48746E"/>
<path d="m148.71 186.33c-2.913 4.375-6.804 7.12-10.296 10.538-3.481 3.429-6.794 8.056-7.488 13.998-0.442 3.808 0.242 7.678 0.147 11.527-0.094 3.849-1.377 8.182-3.996 9.14-4.133 1.493-7.289-6.185-11.537-6.721-3.377-0.421-6.416 4.891-5.438 9.497 0.978 4.607 5.574 6.647 8.214 3.639 2.388 4.007 0.705 11.274-2.882 12.505-0.378 2.524-0.757 5.038-1.125 7.562-9.066-6.342-18.226-12.789-25.935-22.076-8.5738-10.241-13.892-22.81-15.271-36.094-0.9991-10.675 0.4837-22.886-4.4172-31.099-3.923-6.574-10.654-8.025-16.712-7.615-1.1042 0.074-2.219 0.2-3.3233 0.337 3.5725-10.73 8.1099-21.115 13.556-31.026 1.2326-0.529 2.3779-1.242 3.397-2.114 5.6373-4.785 8.1404-14.471 12.715-21.171 0.2945-0.431 0.5995-0.852 0.915-1.262 4.6802-6.1103 10.948-9.2549 17.006-12.179 13.409-6.51 27.207-13.104 41.363-12.2l-4.028 0.3891c-4.701 13.167-9.405 26.334-14.114 39.502-0.715 2.019-1.437 4.042-2.166 6.068-2.671 7.488-5.427 15.46-5.017 23.843 0.242 4.964 1.967 10.264 5.248 11.968 3.061 1.578 6.405-0.358 9.36-2.272 1.252-0.799 2.493-1.598 3.745-2.408 4.49-2.892 9.465-5.858 14.208-3.923 4.344 1.767 7.551 7.667 8.162 14.03 0.559 6.185-0.95 12.381-4.292 17.616z" fill="#48746E"/>
<path d="m175.42 276.22c-13.116-8.075-26.232-16.151-39.348-24.226l0.223-0.574c-8.155 3.106-11.541 17.602-10.193 29.456 1.348 11.855 5.918 22.452 8.226 34.002 3.113 15.807 1.938 32.159-3.403 47.358 17.247-19.352 32.51-40.384 45.561-62.781 1.823-2.822 3.212-5.903 4.121-9.138 0.833-3.441 0.705-7.579-0.964-10.339-1.073-1.584-2.525-2.876-4.223-3.758z" fill="#48746E"/>
<path d="m123.66 129.31c-1.393 3.132-1.929 7.307-0.665 10.547 1.291 3.309 4.02 4.805 6.532 6.05l7.247 3.592c2.411 1.195 5.01 2.402 7.468 1.419 2.964-1.186 5.019-5.834 4.488-10.148-0.566-4.591-3.46-7.749-6.137-10.439-3.745-3.763-7.491-7.527-11.236-11.29l-2.111 2.585c-2.284 2.227-4.172 4.825-5.586 7.684z" fill="#48746E"/>
<path d="m278.95 260.51c-6.692 0.421-11.992-7.816-15.514-15.92s-6.736-17.371-12.773-21.496c-3.45-2.357-7.383-2.68-11.125-3.822s-7.659-3.505-9.448-8.318l-4.244-1.715c-5.606 3.152-11.285 6.362-16.116 11.491-5.417 5.755-8.792 13.132-9.602 20.993-0.811 8.497 2.183 17.97 7.777 21.162 4.421 2.522 9.568 0.932 14.046 3.241 5.594 2.884 8.916 11.263 10.173 19.537 1.257 8.273 0.939 16.871 1.838 25.238 0.9 8.367 3.379 17.073 8.51 21.361 6.42 5.366 15.841 0.907 18.721-8.86 1.413-4.791 1.365-10.198 2.421-15.171 1.861-8.758 6.883-15.256 10.866-22.441 3.983-7.184 7.119-16.942 4.47-25.28z" fill="#48746E"/>
<path d="m212.83 174.44c0.624 0.575 1.207 1.193 1.743 1.85 0.555 0.957 0.838 2.047 0.819 3.153s-0.339 2.185-0.926 3.123c0.806-0.046 1.593-0.259 2.313-0.624 0.72-0.366 1.356-0.877 1.868-1.501 1.221-1.391 2.296-2.905 3.206-4.516 0.682-1.113 1.408-2.618 0.945-3.939-0.316-0.903-1.064-1.287-1.588-1.966-0.83-1.075-1.036-2.783-1.466-4.259-0.928-3.188-3.153-5.532-5.567-5.867l0.335 0.064c-1.008 0.345-1.713 1.947-1.49 3.388 0.204 1.313 1.047 2.402 0.963 3.741-0.121 1.924-2.044 2.828-2.163 4.753-0.019 0.965 0.343 1.9 1.008 2.6z" fill="#48746E"/>
<path d="m201.37 141.74c0.01-3e-3 0.02-4e-3 0.03-6e-3 0.205-0.188 0.396-0.391 0.57-0.608l-0.6 0.614z" fill="#E6E6E6"/>
<path d="m203.37 150.77c1.48-0.951 2.306-3.582 1.817-5.784-0.486-2.189-2.206-3.66-3.793-3.256-0.461 0.467-1.032 0.809-1.661 0.994s-1.295 0.207-1.934 0.064c-0.982-0.252-2.059-0.903-2.909-0.164-0.487 0.552-0.828 1.218-0.991 1.935-0.315 0.967-0.63 1.934-0.945 2.9-0.15 0.347-0.189 0.73-0.112 1.1 0.06 0.147 0.158 0.277 0.283 0.377 0.125 0.099 0.273 0.165 0.431 0.19 1.89 0.557 3.779 1.114 5.669 1.671 1.377 0.406 2.864 0.797 4.145-0.027z" fill="#48746E"/>
<path d="m346.03 275.5c-0.873-1.43-1.747-2.86-2.62-4.29-0.858-1.657-2.031-3.129-3.453-4.336-0.313-0.262-0.675-0.459-1.065-0.579s-0.799-0.161-1.205-0.12-0.8 0.162-1.158 0.357-0.674 0.46-0.928 0.778l0.106 0.817c1.991 2.498 4.098 5.273 4.603 8.98 0.199 1.462 0.129 2.975 0.304 4.442 0.175 1.468 0.671 2.991 1.618 3.623 1.376 0.919 2.991-0.436 3.97-2.089 0.875-1.358 1.268-2.97 1.114-4.579-0.218-1.079-0.656-2.101-1.286-3.004z" fill="#48746E"/>
<path d="m280.78 293.83 9e-3 0.019c0.058-0.112 0.116-0.224 0.175-0.336l-0.184 0.317z" fill="#E6E6E6"/>
<path d="m277.08 301c-0.807 1.466-1.501 2.991-2.077 4.562-0.761 2.546-1.265 5.161-1.505 7.807-0.188 1.504-0.246 3.426 0.697 4.159 0.27 0.179 0.597 0.254 0.919 0.211 0.322-0.044 0.617-0.203 0.83-0.449 0.523-0.554 0.952-1.191 1.268-1.884 1.852-3.191 3.291-6.605 4.28-10.159 0.902-3.744 0.894-8.152-0.701-11.393l-3.711 7.146z" fill="#48746E"/>
<path d="m241.37 110.09c0.588 0.575 1.332 0.965 2.139 1.122 0.807 0.158 1.643 0.076 2.404-0.236 1.575-0.689 3.021-1.644 4.273-2.823 1.037-0.767 1.917-1.726 2.591-2.826 0.371-0.657 0.61-1.381 0.7-2.13 0.091-0.749 0.033-1.509-0.17-2.236-0.585-1.712-2.07-2.2857-3.381-2.6743-2.097-0.622-4.194-1.2439-6.292-1.8659l1.517-1.3675c-1.561-0.8378-3.288 0.7171-4.263 2.6421-0.626 1.2569-1.062 2.5996-1.295 3.9846-0.522 3.021-0.011 6.619 1.777 8.41z" fill="#E6E6E6"/>
<path d="m278.4 97.661c0.591 0.6517 1.408 1.0541 2.285 1.1255 0.877 0.0713 1.749-0.1937 2.437-0.7413 0.593-0.4453 1.086-1.0104 1.445-1.6586 0.36-0.6482 0.58-1.3649 0.644-2.1035 0.149-1.6498-0.667-3.4836-1.832-3.626l0.266-1.5447c-2.244-0.4053-5.006-0.4865-6.209 2.239-0.405 1.0441-0.53 2.1763-0.361 3.2835 0.169 1.1073 0.626 2.1507 1.325 3.0261z" fill="#E6E6E6"/>
</g>
<path d="m562.75 176.5c-11 0-20.45-2.2-28.35-6.6-7.8-4.5-13.8-10.8-18-18.9-4.2-8.2-6.3-17.85-6.3-28.95s2.1-20.7 6.3-28.8 10.2-14.35 18-18.75c7.9-4.5 17.35-6.75 28.35-6.75 5.5 0 10.9 0.7 16.2 2.1s9.95 3.4 13.95 6c2.6 1.7 4.15 3.75 4.65 6.15 0.5 2.3 0.2 4.45-0.9 6.45-1.1 1.9-2.75 3.2-4.95 3.9-2.2 0.6-4.65 0-7.35-1.8-3.1-2-6.45-3.45-10.05-4.35s-7.25-1.35-10.95-1.35c-10.7 0-18.85 3.25-24.45 9.75-5.6 6.4-8.4 15.55-8.4 27.45s2.8 21.1 8.4 27.6 13.75 9.75 24.45 9.75c3.8 0 7.55-0.45 11.25-1.35 3.7-1 7.2-2.5 10.5-4.5 2.7-1.7 5.1-2.25 7.2-1.65s3.65 1.85 4.65 3.75c1.1 1.8 1.45 3.8 1.05 6s-1.75 4.15-4.05 5.85c-4 2.9-8.8 5.15-14.4 6.75-5.5 1.5-11.1 2.25-16.8 2.25zm96.638 0c-10.2 0-19.15-2.25-26.85-6.75-7.6-4.5-13.5-10.8-17.7-18.9-4.2-8.2-6.3-17.8-6.3-28.8 0-11.1 2.1-20.7 6.3-28.8s10.1-14.35 17.7-18.75c7.6-4.5 16.55-6.75 26.85-6.75s19.25 2.25 26.85 6.75c7.6 4.4 13.5 10.65 17.7 18.75s6.3 17.65 6.3 28.65c0 11.1-2.1 20.75-6.3 28.95-4.2 8.1-10.1 14.4-17.7 18.9s-16.55 6.75-26.85 6.75zm0-16.5c9.7 0 17.25-3.35 22.65-10.05s8.1-16 8.1-27.9c0-12-2.7-21.3-8.1-27.9-5.3-6.6-12.85-9.9-22.65-9.9-9.7 0-17.25 3.3-22.65 9.9s-8.1 15.9-8.1 27.9c0 11.9 2.7 21.2 8.1 27.9s12.95 10.05 22.65 10.05zm109.74 16.2c-5.1 0-8.75-2.5-10.95-7.5l-39.15-87.9c-1.6-3.8-1.55-6.85 0.15-9.15 1.8-2.4 4.4-3.6 7.8-3.6 2.9 0 5.05 0.65 6.45 1.95 1.5 1.2 2.75 3.05 3.75 5.55l32.25 74.85 32.25-75c1.1-2.4 2.4-4.2 3.9-5.4 1.5-1.3 3.6-1.95 6.3-1.95 3.2 0 5.6 1.2 7.2 3.6 1.7 2.4 1.7 5.45 0 9.15l-39.15 87.9c-1.1 2.5-2.5 4.4-4.2 5.7-1.6 1.2-3.8 1.8-6.6 1.8zm74.534 0c-6.4 0-9.6-3.3-9.6-9.9v-88.35c0-6.6 3.2-9.9 9.6-9.9s9.6 3.3 9.6 9.9v88.35c0 6.6-3.2 9.9-9.6 9.9zm42.934-1.2c-6.8 0-10.2-3.4-10.2-10.2v-85.35c0-6.8 3.4-10.2 10.2-10.2h29.1c17.7 0 31.35 4.55 40.95 13.65 9.7 9.1 14.55 22.15 14.55 39.15 0 16.9-4.85 29.95-14.55 39.15-9.6 9.2-23.25 13.8-40.95 13.8h-29.1zm9-15.9h18.9c24.4 0 36.6-12.35 36.6-37.05 0-24.6-12.2-36.9-36.6-36.9h-18.9v73.95zm145.38 17.1c-6.4 0-9.6-3.3-9.6-9.9v-87.3c0-6.5 3.25-9.75 9.75-9.75h36.15c11.6 0 20.55 2.8 26.85 8.4 6.3 5.5 9.45 13.25 9.45 23.25 0 7.9-2.05 14.45-6.15 19.65-4.1 5.1-10 8.55-17.7 10.35 5.1 1.6 9.3 5.45 12.6 11.55l11.25 20.85c1.7 3.2 2 6.15 0.9 8.85-1 2.7-3.55 4.05-7.65 4.05-2.7 0-4.9-0.55-6.6-1.65-1.7-1.2-3.2-3-4.5-5.4l-15.15-27.9c-1.8-3.4-3.95-5.65-6.45-6.75-2.4-1.2-5.5-1.8-9.3-1.8h-14.25v33.6c0 6.6-3.2 9.9-9.6 9.9zm9.6-57.75h23.4c14 0 21-5.7 21-17.1 0-11.3-7-16.95-21-16.95h-23.4v34.05zm93.83 56.55c-6.8 0-10.2-3.4-10.2-10.2v-85.35c0-6.8 3.4-10.2 10.2-10.2h53.55c5.2 0 7.8 2.5 7.8 7.5 0 5.2-2.6 7.8-7.8 7.8h-45.3v29.1h42c5.2 0 7.8 2.55 7.8 7.65s-2.6 7.65-7.8 7.65h-42v30.75h45.3c5.2 0 7.8 2.55 7.8 7.65s-2.6 7.65-7.8 7.65h-53.55zm78.45 1.2c-3.5 0-6-1.2-7.5-3.6s-1.45-5.3 0.15-8.7l39.6-87.75c1.3-2.9 2.85-4.95 4.65-6.15 1.9-1.3 4.05-1.95 6.45-1.95 2.3 0 4.35 0.65 6.15 1.95 1.9 1.2 3.5 3.25 4.8 6.15l39.75 87.75c1.6 3.5 1.7 6.45 0.3 8.85-1.4 2.3-3.8 3.45-7.2 3.45-2.8 0-5-0.65-6.6-1.95-1.5-1.4-2.85-3.5-4.05-6.3l-7.5-17.4h-51.6l-7.35 17.4c-1.3 2.9-2.65 5-4.05 6.3s-3.4 1.95-6 1.95zm43.05-86.1-19.05 45.15h38.4l-19.05-45.15h-0.3zm77.27 84.9c-6.5 0-9.75-3.3-9.75-9.9v-86.55c0-6.5 3.2-9.75 9.6-9.75s9.6 3.25 9.6 9.75v80.1h43.5c5.6 0 8.4 2.7 8.4 8.1 0 5.5-2.8 8.25-8.4 8.25h-52.95z" fill="#000"/>
<path d="m561.27 386.22c-6.485 0-9.728-3.344-9.728-10.032v-82.08h-29.64c-5.573 0-8.36-2.736-8.36-8.208 0-5.371 2.787-8.056 8.36-8.056h78.736c5.573 0 8.36 2.685 8.36 8.056 0 5.472-2.787 8.208-8.36 8.208h-29.64v82.08c0 6.688-3.243 10.032-9.728 10.032zm76.166 0c-6.485 0-9.728-3.344-9.728-10.032v-89.528c0-6.688 3.243-10.032 9.728-10.032 6.486 0 9.728 3.344 9.728 10.032v89.528c0 6.688-3.242 10.032-9.728 10.032zm49.891 0c-5.878 0-8.816-3.04-8.816-9.12v-91.352c0-6.08 3.04-9.12 9.12-9.12 2.533 0 4.509 0.507 5.928 1.52 1.52 0.912 2.888 2.533 4.104 4.864l35.112 64.904 35.112-64.904c1.216-2.331 2.533-3.952 3.952-4.864 1.418-1.013 3.394-1.52 5.928-1.52 5.877 0 8.816 3.04 8.816 9.12v91.352c0 6.08-2.939 9.12-8.816 9.12-5.878 0-8.816-3.04-8.816-9.12v-64.296l-28.576 52.136c-1.014 1.723-2.078 2.989-3.192 3.8-1.115 0.811-2.635 1.216-4.56 1.216-1.926 0-3.496-0.405-4.712-1.216-1.216-0.912-2.28-2.179-3.192-3.8l-28.576-51.832v63.992c0 6.08-2.939 9.12-8.816 9.12zm140.78-1.216c-6.891 0-10.336-3.445-10.336-10.336v-86.488c0-6.891 3.445-10.336 10.336-10.336h54.264c5.269 0 7.904 2.533 7.904 7.6 0 5.269-2.635 7.904-7.904 7.904h-45.904v29.488h42.56c5.269 0 7.904 2.584 7.904 7.752s-2.635 7.752-7.904 7.752h-42.56v31.16h45.904c5.269 0 7.904 2.584 7.904 7.752s-2.635 7.752-7.904 7.752h-54.264zm147.16 0c-6.891 0-10.336-3.445-10.336-10.336v-86.488c0-6.891 3.445-10.336 10.336-10.336h29.483c17.94 0 31.77 4.611 41.5 13.832 9.83 9.221 14.74 22.445 14.74 39.672 0 17.125-4.91 30.349-14.74 39.672-9.73 9.323-23.56 13.984-41.5 13.984h-29.483zm9.12-16.112h19.153c24.72 0 37.09-12.515 37.09-37.544 0-24.928-12.37-37.392-37.09-37.392h-19.153v74.936zm102.76 17.328c-3.55 0-6.08-1.216-7.6-3.648s-1.47-5.371 0.15-8.816l40.13-88.92c1.32-2.939 2.89-5.016 4.71-6.232 1.93-1.317 4.11-1.976 6.54-1.976 2.33 0 4.41 0.659 6.23 1.976 1.92 1.216 3.55 3.293 4.86 6.232l40.28 88.92c1.62 3.547 1.73 6.536 0.31 8.968-1.42 2.331-3.85 3.496-7.3 3.496-2.84 0-5.07-0.659-6.69-1.976-1.52-1.419-2.88-3.547-4.1-6.384l-7.6-17.632h-52.29l-7.45 17.632c-1.31 2.939-2.68 5.067-4.1 6.384s-3.45 1.976-6.08 1.976zm43.62-87.248-19.3 45.752h38.91l-19.3-45.752h-0.31zm99.72 87.248c-6.49 0-9.73-3.344-9.73-10.032v-82.08h-29.64c-5.57 0-8.36-2.736-8.36-8.208 0-5.371 2.79-8.056 8.36-8.056h78.74c5.57 0 8.36 2.685 8.36 8.056 0 5.472-2.79 8.208-8.36 8.208h-29.64v82.08c0 6.688-3.25 10.032-9.73 10.032zm55.62 0c-3.54 0-6.08-1.216-7.6-3.648s-1.46-5.371 0.16-8.816l40.12-88.92c1.32-2.939 2.89-5.016 4.72-6.232 1.92-1.317 4.1-1.976 6.53-1.976 2.33 0 4.41 0.659 6.23 1.976 1.93 1.216 3.55 3.293 4.87 6.232l40.28 88.92c1.62 3.547 1.72 6.536 0.3 8.968-1.42 2.331-3.85 3.496-7.29 3.496-2.84 0-5.07-0.659-6.69-1.976-1.52-1.419-2.89-3.547-4.11-6.384l-7.6-17.632h-52.28l-7.45 17.632c-1.32 2.939-2.69 5.067-4.11 6.384-1.41 1.317-3.44 1.976-6.08 1.976zm43.63-87.248-19.31 45.752h38.92l-19.31-45.752h-0.3z" fill="#000"/>
<line x1="514" x2="1411" y1="227.5" y2="227.5" stroke="#000" stroke-width="5"/>
<defs>
<linearGradient id="b" x1="227.5" x2="227.5" y1="5" y2="442" gradientUnits="userSpaceOnUse">
<stop stop-color="#FF6384" offset="0"/>
<stop stop-color="#FFCD56" offset="1"/>
</linearGradient>
<linearGradient id="a" x1="22.5" x2="384.53" y1="-70" y2="603.07" gradientUnits="userSpaceOnUse">
<stop stop-color="#C96379" offset="0"/>
<stop stop-color="#C77866" offset=".4375"/>
<stop stop-color="#C4944D" offset="1"/>
</linearGradient>
</defs>
</svg>
