<?xml version="1.0" encoding="UTF-8"?>
<svg fill="none" viewBox="0 0 1209 758" xmlns="http://www.w3.org/2000/svg">
<path d="m881.76 99.436c90.553 3.9559 172.65 43.506 234.26 101.35 59.17 55.545 84.88 128.22 90.73 203.76 6.39 82.427 2.5 168.73-56.85 233.23-65.29 70.954-163.73 116.47-268.14 119.96-108.08 3.612-218.78-30.196-289.57-101.32-67.164-67.479-67.667-162.75-61.966-251.87 5.296-82.776 25.026-166.75 92.495-225.31 67.408-58.506 163.94-83.959 259.04-79.804z" clip-rule="evenodd" fill="url(#b)" fill-rule="evenodd"/>
<path d="m394.86 1.6812c116.23 4.5466 227.16 34.099 314.15 97.861 92.902 68.095 171.42 156.67 172.97 259.19 1.558 103.46-73.277 195.21-165.06 265.71-88.222 67.76-201.55 106.4-322.06 108.43-123.2 2.071-255.93-19.711-335.45-97.374-75.768-73.996-45.925-179.91-47.644-276.76-1.7629-99.33-42.136-210.61 37.674-284.99 81.835-76.272 222.1-76.885 345.42-72.061z" clip-rule="evenodd" fill="url(#a)" fill-rule="evenodd"/>
<path d="m167.95 152.63c42.838-0.745 85.679-0.852 128.53-0.321 42.84 0.534 85.666 1.709 128.48 3.524 24.023 1.019 48.037 2.239 72.041 3.662 1.928 0.114 1.921-2.887 0-3-42.769-2.531-85.57-4.425-128.4-5.682-42.825-1.253-85.663-1.865-128.51-1.837-24.045 0.016-48.088 0.234-72.131 0.654-1.928 0.033-1.934 3.034 0 3z" fill="#E6E6E6"/>
<path d="m466.49 133.82 18.731-1.394c1.914-0.142 1.929-3.144 0-3l-18.731 1.394c-1.914 0.143-1.929 3.144 0 3z" fill="#E6E6E6"/>
<path d="m466.49 151.82 18.731-1.394c1.914-0.142 1.929-3.144 0-3l-18.731 1.394c-1.914 0.143-1.929 3.144 0 3z" fill="#E6E6E6"/>
<path d="m465.08 143.6 26.632 2.419c1.922 0.175 1.91-2.826 0-3l-26.632-2.419c-1.922-0.175-1.91 2.826 0 3z" fill="#E6E6E6"/>
<path d="m179.04 129.79c-1.303-8e-3 -2.579 0.367-3.67 1.079-1.09 0.713-1.947 1.73-2.463 2.926-0.578 1.171-0.756 2.498-0.508 3.78 0.248 1.281 0.909 2.446 1.882 3.316 0.915 0.778 2.012 1.312 3.189 1.551 1.176 0.239 2.394 0.175 3.54-0.184 1.172-0.409 2.188-1.172 2.908-2.182 0.721-1.011 1.11-2.22 1.115-3.461 0.053-1.377-0.32-2.736-1.068-3.894-0.747-1.157-1.833-2.056-3.11-2.575-0.384-0.104-0.793-0.052-1.138 0.144-0.346 0.196-0.6 0.521-0.707 0.904-0.095 0.383-0.039 0.788 0.156 1.131 0.195 0.344 0.514 0.599 0.891 0.714 0.262 0.101-0.238-0.128 6e-3 5e-3 0.1 0.054 0.202 0.104 0.301 0.162 0.084 0.05 0.164 0.104 0.245 0.157 0.28 0.183-0.136-0.134 0.043 0.03 0.155 0.143 0.309 0.282 0.45 0.439 0.053 0.059 0.262 0.225 0.1 0.109-0.125-0.088-0.048-0.067 0 4e-3 0.036 0.053 0.074 0.106 0.11 0.16 0.117 0.177 0.223 0.361 0.319 0.55 0.022 0.044 0.042 0.089 0.064 0.133 0.042 0.082 0.103 0.103 4e-3 1e-3 -0.094-0.098-0.034-0.092 0 3e-3 0.022 0.062 0.046 0.123 0.068 0.185 0.07 0.202 0.129 0.408 0.177 0.617 0.022 0.097 0.039 0.194 0.058 0.291 0.067 0.344-9e-3 -0.214 7e-3 0.042 0.013 0.213 0.029 0.425 0.025 0.639-1e-3 0.098-6e-3 0.196-0.013 0.294-3e-3 0.049-8e-3 0.098-0.012 0.147-0.015 0.235-0.016-0.086 0.017-0.108-0.068 0.199-0.114 0.406-0.135 0.617-0.027 0.093-0.059 0.184-0.089 0.276-0.104 0.322 0.098-0.175-0.013 0.045-0.092 0.189-0.194 0.372-0.307 0.55-0.049 0.074-0.233 0.241-0.082 0.125 0.163-0.127-0.086 0.091-0.139 0.147-0.068 0.072-0.139 0.142-0.213 0.209-0.047 0.046-0.097 0.089-0.149 0.129-9e-3 -5e-3 0.251-0.173 0.111-0.084-0.178 0.114-0.347 0.235-0.535 0.334-0.022 0.012-0.262 0.123-0.261 0.127-0.01-0.041 0.309-0.112 0.09-0.042-0.046 0.015-0.091 0.033-0.137 0.049-0.2 0.067-0.403 0.121-0.61 0.162-0.047 9e-3 -0.097 0.014-0.143 0.026-0.155 0.04 0.148-0.023 0.157-0.018-0.115-5e-3 -0.229 5e-3 -0.341 0.03-0.213 0.012-0.427 0.012-0.639 0-0.05-3e-3 -0.099-8e-3 -0.148-0.011-0.114-6e-3 -0.198-0.089-0.046 1e-3 0.117 0.069 0.107 0.018 3e-3 -1e-3 -0.048-9e-3 -0.097-0.016-0.146-0.025-0.21-0.04-0.419-0.091-0.624-0.153-0.11-0.034-0.218-0.073-0.327-0.111-0.047-0.014-0.093-0.032-0.138-0.053-1e-3 -0.012 0.281 0.134 0.132 0.054-0.187-0.101-0.381-0.185-0.564-0.296-0.098-0.059-0.191-0.123-0.286-0.186-0.042-0.025-0.082-0.053-0.119-0.085 3e-3 -0.012 0.233 0.2 0.112 0.085-0.152-0.145-0.315-0.275-0.459-0.429-0.033-0.036-0.064-0.073-0.097-0.108l-0.032-0.036c-0.081-0.1-0.083-0.099-5e-3 1e-3 0.08 0.023 0.076 0.111 1e-3 -3e-3 -0.027-0.04-0.056-0.079-0.083-0.12-0.121-0.173-0.225-0.359-0.31-0.553 8e-3 -6e-3 0.13 0.361 0.037 0.084-0.018-0.052-0.038-0.104-0.055-0.156-0.035-0.104-0.065-0.209-0.091-0.315s-0.04-0.214-0.066-0.319c-0.044-0.177 0.026 0.139 0.018 0.132-0.025-0.025-0.014-0.178-0.016-0.215-0.012-0.235 0.015-0.464 0.019-0.698 3e-3 -0.181-0.015 0.141-0.019 0.132 1e-3 -0.054 0.01-0.108 0.028-0.159 0.028-0.124 0.053-0.247 0.086-0.369 0.038-0.14 0.082-0.278 0.132-0.414 0.018-0.051 0.041-0.101 0.058-0.153 0.063-0.188-0.125 0.228-0.021 0.058 0.142-0.234 0.249-0.487 0.4-0.717 0.036-0.055 0.254-0.36 0.138-0.206-0.115 0.153 0.119-0.137 0.163-0.187 0.184-0.204 0.401-0.373 0.591-0.569 0.113-0.116-0.078 0.057-0.09 0.065 0.059-0.042 0.117-0.085 0.177-0.127 0.104-0.071 0.211-0.139 0.32-0.203 0.123-0.072 0.262-0.126 0.381-0.202 0.141-0.091-0.107 0.039-0.112 0.042 0.064-0.032 0.132-0.058 0.201-0.077 0.116-0.041 0.621-0.259 0.727-0.191-5e-3 -3e-3 -0.383 0.031-0.077 0.011 0.072-5e-3 0.144-0.012 0.217-0.015 0.146-6e-3 0.292-2e-3 0.439 6e-3 0.397-3e-3 0.777-0.162 1.058-0.443 0.28-0.28 0.439-0.66 0.442-1.057-9e-3 -0.396-0.169-0.772-0.449-1.052-0.279-0.279-0.656-0.44-1.051-0.448z" fill="#E6E6E6"/>
<path d="m200.04 129.79c-1.303-8e-3 -2.579 0.367-3.67 1.079-1.09 0.713-1.947 1.73-2.463 2.926-0.578 1.171-0.756 2.498-0.508 3.78 0.248 1.281 0.909 2.446 1.882 3.316 0.915 0.778 2.012 1.312 3.189 1.551 1.176 0.239 2.394 0.175 3.54-0.184 1.172-0.409 2.188-1.172 2.908-2.182 0.721-1.011 1.11-2.22 1.115-3.461 0.053-1.377-0.32-2.736-1.068-3.894-0.747-1.157-1.833-2.056-3.11-2.575-0.384-0.104-0.793-0.052-1.138 0.144-0.346 0.196-0.6 0.521-0.707 0.904-0.095 0.383-0.039 0.788 0.156 1.131 0.195 0.344 0.514 0.599 0.891 0.714 0.262 0.101-0.238-0.128 6e-3 5e-3 0.1 0.054 0.202 0.104 0.301 0.162 0.084 0.05 0.164 0.104 0.245 0.157 0.28 0.183-0.136-0.134 0.043 0.03 0.155 0.143 0.309 0.282 0.45 0.439 0.053 0.059 0.262 0.225 0.1 0.109-0.125-0.088-0.048-0.067 0 4e-3 0.036 0.053 0.074 0.106 0.11 0.16 0.117 0.177 0.223 0.361 0.319 0.55 0.022 0.044 0.042 0.089 0.064 0.133 0.042 0.082 0.103 0.103 4e-3 1e-3 -0.094-0.098-0.034-0.092 0 3e-3 0.022 0.062 0.046 0.123 0.068 0.185 0.07 0.202 0.129 0.408 0.177 0.617 0.022 0.097 0.039 0.194 0.058 0.291 0.067 0.344-9e-3 -0.214 7e-3 0.042 0.013 0.213 0.029 0.425 0.025 0.639-1e-3 0.098-6e-3 0.196-0.013 0.294-3e-3 0.049-8e-3 0.098-0.012 0.147-0.015 0.235-0.016-0.086 0.017-0.108-0.068 0.199-0.114 0.406-0.135 0.617-0.027 0.093-0.059 0.184-0.089 0.276-0.104 0.322 0.098-0.175-0.013 0.045-0.092 0.189-0.194 0.372-0.307 0.55-0.049 0.074-0.233 0.241-0.082 0.125 0.163-0.127-0.086 0.091-0.139 0.147-0.068 0.072-0.139 0.142-0.213 0.209-0.047 0.046-0.097 0.089-0.149 0.129-9e-3 -5e-3 0.251-0.173 0.111-0.084-0.178 0.114-0.347 0.235-0.535 0.334-0.022 0.012-0.262 0.123-0.261 0.127-0.01-0.041 0.309-0.112 0.09-0.042-0.046 0.015-0.091 0.033-0.137 0.049-0.2 0.067-0.403 0.121-0.61 0.162-0.047 9e-3 -0.097 0.014-0.143 0.026-0.155 0.04 0.148-0.023 0.157-0.018-0.115-5e-3 -0.229 5e-3 -0.341 0.03-0.213 0.012-0.427 0.012-0.639 0-0.05-3e-3 -0.099-8e-3 -0.148-0.011-0.114-6e-3 -0.198-0.089-0.046 1e-3 0.117 0.069 0.107 0.018 3e-3 -1e-3 -0.048-9e-3 -0.097-0.016-0.146-0.025-0.21-0.04-0.419-0.091-0.624-0.153-0.11-0.034-0.218-0.073-0.327-0.111-0.047-0.014-0.093-0.032-0.138-0.053-1e-3 -0.012 0.281 0.134 0.132 0.054-0.187-0.101-0.381-0.185-0.564-0.296-0.098-0.059-0.191-0.123-0.286-0.186-0.042-0.025-0.082-0.053-0.119-0.085 3e-3 -0.012 0.233 0.2 0.112 0.085-0.152-0.145-0.315-0.275-0.459-0.429-0.033-0.036-0.064-0.073-0.097-0.108l-0.032-0.036c-0.081-0.1-0.083-0.099-5e-3 1e-3 0.08 0.023 0.076 0.111 1e-3 -3e-3 -0.027-0.04-0.056-0.079-0.083-0.12-0.121-0.173-0.225-0.359-0.31-0.553 8e-3 -6e-3 0.13 0.361 0.037 0.084-0.018-0.052-0.038-0.104-0.055-0.156-0.035-0.104-0.065-0.209-0.091-0.315s-0.04-0.214-0.066-0.319c-0.044-0.177 0.026 0.139 0.018 0.132-0.025-0.025-0.014-0.178-0.016-0.215-0.012-0.235 0.015-0.464 0.019-0.698 3e-3 -0.181-0.015 0.141-0.019 0.132 1e-3 -0.054 0.01-0.108 0.028-0.159 0.028-0.124 0.053-0.247 0.086-0.369 0.038-0.14 0.082-0.278 0.132-0.414 0.018-0.051 0.041-0.101 0.058-0.153 0.063-0.188-0.125 0.228-0.021 0.058 0.142-0.234 0.249-0.487 0.4-0.717 0.036-0.055 0.254-0.36 0.138-0.206-0.115 0.153 0.119-0.137 0.163-0.187 0.184-0.204 0.401-0.373 0.591-0.569 0.113-0.116-0.078 0.057-0.09 0.065 0.059-0.042 0.117-0.085 0.177-0.127 0.104-0.071 0.211-0.139 0.32-0.203 0.123-0.072 0.262-0.126 0.381-0.202 0.141-0.091-0.107 0.039-0.112 0.042 0.064-0.032 0.132-0.058 0.201-0.077 0.116-0.041 0.621-0.259 0.727-0.191-5e-3 -3e-3 -0.383 0.031-0.077 0.011 0.072-5e-3 0.144-0.012 0.217-0.015 0.146-6e-3 0.292-2e-3 0.439 6e-3 0.397-3e-3 0.777-0.162 1.058-0.443 0.28-0.28 0.439-0.66 0.442-1.057-9e-3 -0.396-0.169-0.772-0.449-1.052-0.279-0.279-0.656-0.44-1.051-0.448z" fill="#E6E6E6"/>
<path d="m221.04 129.79c-1.303-8e-3 -2.579 0.367-3.67 1.079-1.09 0.713-1.947 1.73-2.463 2.926-0.578 1.171-0.756 2.498-0.508 3.78 0.248 1.281 0.909 2.446 1.882 3.316 0.915 0.778 2.012 1.312 3.189 1.551 1.176 0.239 2.394 0.175 3.54-0.184 1.172-0.409 2.188-1.172 2.908-2.182 0.721-1.011 1.11-2.22 1.115-3.461 0.053-1.377-0.32-2.736-1.068-3.894-0.747-1.157-1.833-2.056-3.11-2.575-0.384-0.104-0.793-0.052-1.138 0.144-0.346 0.196-0.6 0.521-0.707 0.904-0.095 0.383-0.039 0.788 0.156 1.131 0.195 0.344 0.514 0.599 0.891 0.714 0.262 0.101-0.238-0.128 6e-3 5e-3 0.1 0.054 0.202 0.104 0.301 0.162 0.084 0.05 0.164 0.104 0.245 0.157 0.28 0.183-0.136-0.134 0.043 0.03 0.155 0.143 0.309 0.282 0.45 0.439 0.053 0.059 0.262 0.225 0.1 0.109-0.125-0.088-0.048-0.067 0 4e-3 0.036 0.053 0.074 0.106 0.11 0.16 0.117 0.177 0.223 0.361 0.319 0.55 0.022 0.044 0.042 0.089 0.064 0.133 0.042 0.082 0.103 0.103 4e-3 1e-3 -0.094-0.098-0.034-0.092 0 3e-3 0.022 0.062 0.046 0.123 0.068 0.185 0.07 0.202 0.129 0.408 0.177 0.617 0.022 0.097 0.039 0.194 0.058 0.291 0.067 0.344-9e-3 -0.214 7e-3 0.042 0.013 0.213 0.029 0.425 0.025 0.639-1e-3 0.098-6e-3 0.196-0.013 0.294-3e-3 0.049-8e-3 0.098-0.012 0.147-0.015 0.235-0.016-0.086 0.017-0.108-0.068 0.199-0.114 0.406-0.135 0.617-0.027 0.093-0.059 0.184-0.089 0.276-0.104 0.322 0.098-0.175-0.013 0.045-0.092 0.189-0.194 0.372-0.307 0.55-0.049 0.074-0.233 0.241-0.082 0.125 0.163-0.127-0.086 0.091-0.139 0.147-0.068 0.072-0.139 0.142-0.213 0.209-0.047 0.046-0.097 0.089-0.149 0.129-9e-3 -5e-3 0.251-0.173 0.111-0.084-0.178 0.114-0.347 0.235-0.535 0.334-0.022 0.012-0.262 0.123-0.261 0.127-0.01-0.041 0.309-0.112 0.09-0.042-0.046 0.015-0.091 0.033-0.137 0.049-0.2 0.067-0.403 0.121-0.61 0.162-0.047 9e-3 -0.097 0.014-0.143 0.026-0.155 0.04 0.148-0.023 0.157-0.018-0.115-5e-3 -0.229 5e-3 -0.341 0.03-0.213 0.012-0.427 0.012-0.639 0-0.05-3e-3 -0.099-8e-3 -0.148-0.011-0.114-6e-3 -0.198-0.089-0.046 1e-3 0.117 0.069 0.107 0.018 3e-3 -1e-3 -0.048-9e-3 -0.097-0.016-0.146-0.025-0.21-0.04-0.419-0.091-0.624-0.153-0.11-0.034-0.218-0.073-0.327-0.111-0.047-0.014-0.093-0.032-0.138-0.053-1e-3 -0.012 0.281 0.134 0.132 0.054-0.187-0.101-0.381-0.185-0.564-0.296-0.098-0.059-0.191-0.123-0.286-0.186-0.042-0.025-0.082-0.053-0.119-0.085 3e-3 -0.012 0.233 0.2 0.112 0.085-0.152-0.145-0.315-0.275-0.459-0.429-0.033-0.036-0.064-0.073-0.097-0.108l-0.032-0.036c-0.081-0.1-0.083-0.099-5e-3 1e-3 0.08 0.023 0.076 0.111 1e-3 -3e-3 -0.027-0.04-0.056-0.079-0.083-0.12-0.121-0.173-0.225-0.359-0.31-0.553 8e-3 -6e-3 0.13 0.361 0.037 0.084-0.018-0.052-0.038-0.104-0.055-0.156-0.035-0.104-0.065-0.209-0.091-0.315s-0.04-0.214-0.066-0.319c-0.044-0.177 0.026 0.139 0.018 0.132-0.025-0.025-0.014-0.178-0.016-0.215-0.012-0.235 0.015-0.464 0.019-0.698 3e-3 -0.181-0.015 0.141-0.019 0.132 1e-3 -0.054 0.01-0.108 0.028-0.159 0.028-0.124 0.053-0.247 0.086-0.369 0.038-0.14 0.082-0.278 0.132-0.414 0.018-0.051 0.041-0.101 0.058-0.153 0.063-0.188-0.125 0.228-0.021 0.058 0.142-0.234 0.249-0.487 0.4-0.717 0.036-0.055 0.254-0.36 0.138-0.206-0.115 0.153 0.119-0.137 0.163-0.187 0.184-0.204 0.401-0.373 0.591-0.569 0.113-0.116-0.078 0.057-0.09 0.065 0.059-0.042 0.117-0.085 0.177-0.127 0.104-0.071 0.211-0.139 0.32-0.203 0.123-0.072 0.262-0.126 0.381-0.202 0.141-0.091-0.107 0.039-0.112 0.042 0.064-0.032 0.132-0.058 0.201-0.077 0.116-0.041 0.621-0.259 0.727-0.191-5e-3 -3e-3 -0.383 0.031-0.077 0.011 0.072-5e-3 0.144-0.012 0.217-0.015 0.146-6e-3 0.292-2e-3 0.439 6e-3 0.397-3e-3 0.777-0.162 1.058-0.443 0.28-0.28 0.439-0.66 0.442-1.057-9e-3 -0.396-0.169-0.772-0.449-1.052-0.279-0.279-0.656-0.44-1.051-0.448z" fill="#E6E6E6"/>
<path d="m524.41 462h-367.9c-4.652-5e-3 -9.112-1.855-12.402-5.145s-5.14-7.75-5.145-12.402v-327.91c5e-3 -4.652 1.855-9.112 5.145-12.402 3.289-3.289 7.75-5.1398 12.402-5.145h367.9c4.652 0.0052 9.113 1.856 12.402 5.145 3.29 3.29 5.14 7.75 5.146 12.402v327.91c-6e-3 4.652-1.856 9.112-5.146 12.402-3.289 3.29-7.75 5.14-12.402 5.145zm-367.9-361c-4.122 5e-3 -8.074 1.644-10.989 4.559-2.914 2.915-4.554 6.866-4.558 10.988v327.91c4e-3 4.122 1.644 8.074 4.559 10.988 2.914 2.915 6.866 4.554 10.988 4.559h367.9c4.122-5e-3 8.074-1.644 10.989-4.559 2.914-2.914 4.554-6.866 4.559-10.988v-327.91c-5e-3 -4.122-1.645-8.073-4.559-10.988-2.915-2.915-6.867-4.554-10.989-4.559h-367.9z" fill="#E6E6E6"/>
<path d="m155.9 322.11 129.38-0.394 201.33-0.612c0.389-0.013 0.758-0.177 1.028-0.457s0.421-0.654 0.421-1.043-0.151-0.763-0.421-1.043-0.639-0.444-1.028-0.457l-129.38 0.394-201.33 0.612c-0.388 0.013-0.757 0.177-1.027 0.457s-0.422 0.654-0.422 1.043 0.152 0.763 0.422 1.043 0.639 0.443 1.027 0.457z" fill="#E6E6E6"/>
<path d="m221.17 319.67 0.8-47.237c0.033-1.931-2.967-1.932-3 0l-0.8 47.237c-0.033 1.931 2.967 1.931 3 0z" fill="#E6E6E6"/>
<path d="m283 320.18 1.95-59.375 0.557-16.964c0.063-1.931-2.937-1.928-3 0l-1.95 59.375-0.557 16.964c-0.063 1.931 2.937 1.929 3 0z" fill="#E6E6E6"/>
<path d="m344.67 215.7c-1.176 21.03-3.352 83.06-4.528 104.09-0.108 1.929 2.893 1.923 3 0 1.176-21.03 3.352-83.06 4.528-104.09 0.108-1.929-2.893-1.923-3 0z" fill="#E6E6E6"/>
<path d="m406.04 298.69-0.367 20.213c-0.035 1.932 2.965 1.932 3 0 0.434-23.873 1.548-23.095 1.67-29.832 0.036-1.932-2.964-1.932-3 0 0 0-0.868-14.254-1.303 9.619z" fill="#E6E6E6"/>
<path d="m466.15 245.59 0.34 56.708 0.097 16.238c0.013 0.389 0.177 0.758 0.457 1.028s0.654 0.421 1.043 0.421 0.763-0.151 1.043-0.421c0.279-0.27 0.443-0.639 0.457-1.028l-0.339-56.708-0.098-16.238c-0.013-0.389-0.177-0.758-0.457-1.028s-0.654-0.421-1.043-0.421-0.763 0.151-1.042 0.421c-0.28 0.27-0.444 0.639-0.458 1.028z" fill="#E6E6E6"/>
<path d="m156.14 320.42c-2.484-6.824 3.114-13.387 8.866-16.336 6.891-3.533 14.818-4.334 21.782-7.74 10.382-5.078 17.945-14.192 24.673-23.314 6.926-9.39 13.263-19.467 22.064-27.268 4.637-4.202 10.114-7.372 16.068-9.299 7.503-2.341 15.459-2.502 23.211-1.558 16.019 1.949 30.868 8.565 46.324 12.771 14.572 3.964 30.628 6.193 44.931 0.028 7.267-3.132 13.209-8.385 19.592-12.931 6.177-4.446 13.084-7.778 20.408-9.845 14.358-3.992 30.038-2.926 43.405 3.823 12.288 6.125 22.017 16.393 27.47 28.993 6.337 15.138 5.512 32.055 3.442 47.989-0.535 4.119-1.172 8.224-1.815 12.327-0.297 1.889 2.594 2.702 2.892 0.798 2.578-16.431 5.148-33.382 1.941-49.917-2.773-14.437-10.712-27.369-22.331-36.376-11.668-9.032-26.173-13.609-40.912-12.911-7.723 0.358-15.326 2.049-22.474 4.998-7.419 3.069-13.702 7.617-20.083 12.404-6.562 4.921-13.325 8.991-21.472 10.596-7.901 1.557-16.121 0.973-23.988-0.497-16.232-3.032-31.362-9.985-47.457-13.547-14.912-3.3-31.003-3.63-44.355 4.794-10.272 6.48-17.53 16.54-24.495 26.254-6.905 9.629-13.896 19.925-23.992 26.503-6.159 4.012-13.082 5.493-19.972 7.749-6.907 2.262-13.538 6.079-16.354 13.156-1.214 2.914-1.307 6.175-0.262 9.154 0.655 1.8 3.555 1.023 2.893-0.798z" fill="#E6E6E6"/>
<path d="m220.17 265.9-4e-3 2e-3 8e-3 -2e-3h-4e-3z" fill="#E6E6E6"/>
<path d="m225.37 263.14c-0.694-1.227-1.8-2.17-3.122-2.659-1.323-0.49-2.776-0.494-4.102-0.014-0.659 0.241-1.263 0.611-1.776 1.089s-0.926 1.054-1.213 1.694c-0.057 0.136-0.091 0.279-0.138 0.419-0.065 0.105-0.143 0.2-0.201 0.31-0.622 1.239-0.792 2.656-0.481 4.007 0.31 1.351 1.082 2.551 2.183 3.394 1.1 0.843 2.46 1.276 3.845 1.224 1.386-0.051 2.709-0.585 3.744-1.507 1.087-0.983 1.805-2.308 2.034-3.756 0.23-1.447-0.043-2.93-0.773-4.201zm-3.758 2.548c0.013 0.076 8e-3 0.145 0 0zm-0.382-0.868c-0.014-0.017-0.013-0.015 0 0zm-1.683 0.677c-0.023-0.035-0.025-0.041 0 0zm0.399 0.338c0.095 0.032 0.057 0.025 0 0zm0.178 0.085 0.04-0.018c-0.01 1e-3 -0.02-1e-3 -0.028-6e-3h1e-3l0.031 4e-3 6e-3 -3e-3 -0.018-4e-3c0.015-1e-3 0.017 2e-3 0.018 4e-3 0.178-0.082 0.058-0.042-0.046-0.01l-7e-3 -2e-3c-0.064-0.033-0.134-0.055-0.205-0.066-7e-3 -4e-3 -0.015-6e-3 -0.02-0.01-0.058-0.041-0.348-0.268-0.079-0.03-0.058-0.052-0.116-0.103-0.171-0.159-0.033-0.033-0.062-0.069-0.088-0.108-0.036-0.06-0.07-0.122-0.103-0.183l-5e-3 -0.034c-5e-3 -0.027-8e-3 -0.039-0.012-0.055 2e-3 -0.017 5e-3 -0.036 8e-3 -0.054 0.02-0.054 0.032-0.11 0.038-0.167l0.011-0.015c0.043-0.06 0.081-0.13 0.122-0.193-0.217 0.33 0.085-0.036 0.108-0.083 4e-3 -8e-3 -3e-3 -3e-3 -1e-3 -9e-3 8e-3 -5e-3 6e-3 -1e-3 0.016-8e-3 0.068-0.039 0.132-0.083 0.2-0.121 0.081-0.046 0.402-0.137 0.07-0.041 0.075-0.022 0.148-0.049 0.224-0.069 0.014-4e-3 0.126-0.02 0.186-0.03 0.053-2e-3 0.105-3e-3 0.11-3e-3 0.025 0 0.05 3e-3 0.075 4e-3 -0.055 8e-3 0.19 0.06 0.262 0.072 0.011 8e-3 0.016 0.013 0.03 0.024 0.062 0.044 0.137 0.084 0.202 0.126-0.291-0.187 3e-3 0.015 0.059 0.071 0.033 0.033 0.063 0.068 0.095 0.103 0.028 0.033 0.054 0.069 0.077 0.106 0.047 0.087 0.098 0.175 0.148 0.261l0.014 0.022c0 3e-3 -1e-3 6e-3 -1e-3 9e-3 0.026 0.139 0.065 0.275 0.115 0.407 3e-3 0.012 5e-3 0.023 6e-3 0.034 5e-3 0.076 0.011 0.152 0.011 0.229l-1e-3 0.015c-0.231-0.12-0.487-0.184-0.747-0.186-0.261-2e-3 -0.518 0.059-0.751 0.176z" fill="#E6E6E6"/>
<path d="m220.18 265.9c5e-3 1e-3 0 1e-3 -1e-3 2e-3l1e-3 -2e-3z" fill="#E6E6E6"/>
<path d="m220.18 265.9h1e-3 -1e-3z" fill="#E6E6E6"/>
<path d="m220.18 265.9h-4e-3c6e-3 1e-3 4e-3 0 4e-3 0z" fill="#E6E6E6"/>
<path d="m220.18 265.9 2e-3 1e-3 -2e-3 -1e-3z" fill="#E6E6E6"/>
<path d="m284.17 237.9-4e-3 2e-3 8e-3 -2e-3h-4e-3z" fill="#E6E6E6"/>
<path d="m289.37 235.14c-0.694-1.227-1.8-2.17-3.122-2.659-1.323-0.49-2.776-0.494-4.102-0.014-0.659 0.241-1.263 0.611-1.776 1.089s-0.926 1.054-1.213 1.694c-0.057 0.136-0.091 0.279-0.138 0.419-0.065 0.105-0.143 0.2-0.201 0.31-0.622 1.239-0.792 2.656-0.481 4.007 0.31 1.351 1.082 2.551 2.183 3.394 1.1 0.843 2.46 1.276 3.845 1.224 1.386-0.051 2.709-0.585 3.744-1.507 1.087-0.983 1.805-2.308 2.034-3.756 0.23-1.447-0.043-2.93-0.773-4.201zm-3.758 2.548c0.013 0.076 8e-3 0.145 0 0zm-0.382-0.868c-0.014-0.017-0.012-0.015 0 0zm-1.683 0.677c-0.022-0.035-0.025-0.041 0 0zm0.399 0.338c0.095 0.032 0.057 0.025 0 0zm0.178 0.085 0.04-0.018c-0.01 1e-3 -0.02-1e-3 -0.028-6e-3h1e-3l0.031 4e-3 6e-3 -3e-3 -0.018-4e-3c0.015-1e-3 0.017 2e-3 0.018 4e-3 0.178-0.082 0.058-0.042-0.046-0.01l-7e-3 -2e-3c-0.064-0.033-0.134-0.055-0.205-0.066-7e-3 -4e-3 -0.015-6e-3 -0.02-0.01-0.058-0.041-0.348-0.268-0.079-0.03-0.058-0.052-0.116-0.103-0.171-0.159-0.033-0.033-0.062-0.069-0.089-0.108-0.035-0.06-0.069-0.122-0.102-0.183l-5e-3 -0.034c-5e-3 -0.027-8e-3 -0.039-0.012-0.055 2e-3 -0.017 5e-3 -0.036 8e-3 -0.054 0.02-0.054 0.032-0.11 0.038-0.167l0.011-0.015c0.043-0.06 0.081-0.13 0.122-0.193-0.217 0.33 0.085-0.036 0.108-0.083 4e-3 -8e-3 -3e-3 -3e-3 -1e-3 -9e-3 8e-3 -5e-3 6e-3 -1e-3 0.016-8e-3 0.068-0.039 0.131-0.083 0.2-0.121 0.081-0.046 0.402-0.137 0.069-0.041 0.076-0.022 0.149-0.049 0.225-0.069 0.014-4e-3 0.126-0.02 0.186-0.03 0.053-2e-3 0.105-3e-3 0.11-3e-3 0.025 0 0.05 3e-3 0.075 4e-3 -0.055 8e-3 0.19 0.06 0.262 0.072 0.011 8e-3 0.016 0.013 0.03 0.024 0.062 0.044 0.137 0.084 0.201 0.126-0.29-0.187 4e-3 0.015 0.06 0.071 0.033 0.033 0.063 0.068 0.095 0.103 0.028 0.033 0.054 0.069 0.077 0.106 0.047 0.087 0.098 0.175 0.148 0.261l0.014 0.022c0 3e-3 -1e-3 6e-3 -1e-3 9e-3 0.026 0.139 0.065 0.275 0.115 0.407 3e-3 0.012 5e-3 0.023 6e-3 0.034 5e-3 0.076 0.011 0.152 0.011 0.229l-1e-3 0.015c-0.231-0.12-0.487-0.184-0.747-0.186-0.261-2e-3 -0.518 0.059-0.751 0.176z" fill="#E6E6E6"/>
<path d="m284.18 237.9h-4e-3c6e-3 1e-3 4e-3 0 4e-3 0z" fill="#E6E6E6"/>
<path d="m284.18 237.9 2e-3 1e-3 -2e-3 -1e-3z" fill="#E6E6E6"/>
<path d="m284.18 237.9c5e-3 1e-3 0 1e-3 -1e-3 2e-3l1e-3 -2e-3z" fill="#E6E6E6"/>
<path d="m284.18 237.9h1e-3 -1e-3z" fill="#E6E6E6"/>
<path d="m346.18 251.9 2e-3 1e-3 -2e-3 -1e-3z" fill="#E6E6E6"/>
<path d="m351.37 207.14c-0.694-1.227-1.8-2.17-3.122-2.659-1.323-0.49-2.776-0.494-4.102-0.014-0.659 0.241-1.263 0.611-1.776 1.089s-0.926 1.054-1.213 1.694c-0.057 0.136-0.091 0.279-0.138 0.419-0.065 0.105-0.143 0.2-0.201 0.31-0.622 1.239-0.792 2.656-0.481 4.007 0.31 1.351 1.082 2.551 2.183 3.394 1.1 0.843 2.46 1.276 3.845 1.224 1.386-0.051 2.709-0.585 3.744-1.507 1.087-0.983 1.805-2.308 2.034-3.756 0.23-1.447-0.043-2.93-0.773-4.201zm-3.758 2.548c0.013 0.076 8e-3 0.145 0 0zm-0.382-0.868c-0.014-0.017-0.012-0.015 0 0zm-1.683 0.677c-0.022-0.035-0.025-0.041 0 0zm0.399 0.338c0.095 0.032 0.057 0.025 0 0zm0.178 0.085 0.04-0.018c-0.01 1e-3 -0.02-1e-3 -0.028-6e-3h1e-3l0.031 4e-3 6e-3 -3e-3 -0.018-4e-3c0.015-1e-3 0.017 2e-3 0.018 4e-3 0.178-0.082 0.058-0.042-0.046-0.01l-7e-3 -2e-3c-0.064-0.033-0.134-0.055-0.205-0.066-7e-3 -4e-3 -0.015-6e-3 -0.02-0.01-0.058-0.041-0.348-0.268-0.079-0.03-0.058-0.052-0.116-0.103-0.171-0.159-0.033-0.033-0.062-0.069-0.089-0.108-0.035-0.06-0.069-0.122-0.102-0.183l-5e-3 -0.034c-5e-3 -0.027-8e-3 -0.039-0.012-0.055 2e-3 -0.017 5e-3 -0.036 8e-3 -0.054 0.02-0.054 0.032-0.11 0.038-0.167l0.011-0.015c0.043-0.06 0.081-0.13 0.122-0.193-0.217 0.33 0.085-0.036 0.108-0.083 4e-3 -8e-3 -3e-3 -3e-3 -1e-3 -9e-3 8e-3 -5e-3 6e-3 -1e-3 0.016-7e-3 0.068-0.04 0.131-0.084 0.2-0.122 0.081-0.045 0.402-0.137 0.069-0.041 0.076-0.022 0.149-0.049 0.225-0.069 0.014-4e-3 0.126-0.02 0.186-0.03 0.053-2e-3 0.105-3e-3 0.11-3e-3 0.025 0 0.05 3e-3 0.075 4e-3 -0.055 8e-3 0.19 0.06 0.262 0.072 0.011 8e-3 0.016 0.013 0.03 0.024 0.062 0.045 0.137 0.084 0.201 0.126-0.29-0.187 4e-3 0.015 0.06 0.071 0.033 0.033 0.063 0.068 0.095 0.103 0.028 0.033 0.054 0.069 0.077 0.106 0.047 0.087 0.098 0.175 0.148 0.261l0.014 0.022c0 3e-3 -1e-3 6e-3 -1e-3 9e-3 0.026 0.139 0.065 0.275 0.115 0.407 3e-3 0.012 5e-3 0.023 6e-3 0.034 5e-3 0.076 0.011 0.152 0.011 0.229l-1e-3 0.015c-0.231-0.12-0.487-0.184-0.747-0.186-0.261-1e-3 -0.518 0.059-0.751 0.176z" fill="#E6E6E6"/>
<path d="m346.17 251.9-4e-3 2e-3 8e-3 -2e-3h-4e-3z" fill="#E6E6E6"/>
<path d="m346.18 251.9h1e-3 -1e-3z" fill="#E6E6E6"/>
<path d="m346.18 251.9h-4e-3c6e-3 1e-3 4e-3 0 4e-3 0z" fill="#E6E6E6"/>
<path d="m346.18 251.9c5e-3 1e-3 0 1e-3 -1e-3 2e-3l1e-3 -2e-3z" fill="#E6E6E6"/>
<path d="m414.37 284.14c-0.694-1.227-1.8-2.17-3.122-2.659-1.323-0.49-2.776-0.494-4.102-0.014-0.659 0.241-1.263 0.611-1.776 1.089s-0.926 1.054-1.213 1.694c-0.057 0.136-0.091 0.279-0.138 0.419-0.065 0.105-0.143 0.2-0.201 0.31-0.622 1.239-0.792 2.656-0.481 4.007 0.31 1.351 1.082 2.551 2.183 3.394 1.1 0.843 2.46 1.276 3.845 1.224 1.386-0.051 2.709-0.585 3.744-1.507 1.087-0.983 1.805-2.308 2.034-3.756 0.23-1.447-0.043-2.93-0.773-4.201zm-3.758 2.548c0.013 0.076 8e-3 0.145 0 0zm-0.382-0.868c-0.014-0.017-0.012-0.015 0 0zm-1.683 0.677c-0.022-0.035-0.025-0.041 0 0zm0.399 0.338c0.095 0.032 0.057 0.025 0 0zm0.178 0.085 0.04-0.018c-0.01 1e-3 -0.02-1e-3 -0.028-6e-3h1e-3l0.031 4e-3 6e-3 -3e-3 -0.018-4e-3c0.015-1e-3 0.017 2e-3 0.018 4e-3 0.178-0.082 0.058-0.042-0.046-0.01l-7e-3 -2e-3c-0.064-0.033-0.134-0.055-0.205-0.066-7e-3 -4e-3 -0.015-6e-3 -0.02-0.01-0.058-0.041-0.348-0.268-0.079-0.03-0.058-0.052-0.116-0.103-0.171-0.159-0.033-0.033-0.062-0.069-0.089-0.108-0.035-0.06-0.069-0.122-0.102-0.183l-5e-3 -0.034c-5e-3 -0.027-8e-3 -0.039-0.012-0.055 2e-3 -0.017 5e-3 -0.036 8e-3 -0.054 0.02-0.054 0.032-0.11 0.038-0.167l0.011-0.015c0.043-0.06 0.081-0.13 0.122-0.193-0.217 0.33 0.085-0.036 0.108-0.083 4e-3 -8e-3 -3e-3 -3e-3 -1e-3 -9e-3 8e-3 -5e-3 6e-3 -1e-3 0.016-8e-3 0.068-0.039 0.131-0.083 0.2-0.121 0.081-0.046 0.402-0.137 0.069-0.041 0.076-0.022 0.149-0.049 0.225-0.069 0.014-4e-3 0.126-0.02 0.186-0.03 0.053-2e-3 0.105-3e-3 0.11-3e-3 0.025 0 0.05 3e-3 0.075 4e-3 -0.055 8e-3 0.19 0.06 0.262 0.072 0.011 8e-3 0.016 0.013 0.03 0.024 0.062 0.044 0.137 0.084 0.201 0.126-0.29-0.187 4e-3 0.015 0.06 0.071 0.033 0.033 0.063 0.068 0.095 0.103 0.028 0.033 0.054 0.069 0.077 0.106 0.047 0.087 0.098 0.175 0.148 0.261l0.014 0.022c0 3e-3 -1e-3 6e-3 -1e-3 9e-3 0.026 0.139 0.065 0.275 0.115 0.407 3e-3 0.012 5e-3 0.023 6e-3 0.034 5e-3 0.076 0.011 0.152 0.011 0.229l-1e-3 0.015c-0.231-0.12-0.487-0.184-0.747-0.186-0.261-2e-3 -0.518 0.059-0.751 0.176z" fill="#E6E6E6"/>
<path d="m409.17 220.9-4e-3 2e-3 8e-3 -2e-3h-4e-3z" fill="#E6E6E6"/>
<path d="m409.18 220.9h1e-3 -1e-3z" fill="#E6E6E6"/>
<path d="m409.18 220.9h-4e-3c6e-3 1e-3 4e-3 0 4e-3 0z" fill="#E6E6E6"/>
<path d="m409.18 220.9c5e-3 1e-3 0 1e-3 -1e-3 2e-3l1e-3 -2e-3z" fill="#E6E6E6"/>
<path d="m409.18 220.9 2e-3 1e-3 -2e-3 -1e-3z" fill="#E6E6E6"/>
<path d="m468.18 240.9h1e-3 -1e-3z" fill="#E6E6E6"/>
<path d="m473.37 238.14c-0.694-1.227-1.8-2.17-3.122-2.659-1.323-0.49-2.776-0.494-4.102-0.014-0.659 0.241-1.263 0.611-1.776 1.089s-0.926 1.054-1.213 1.694c-0.057 0.136-0.091 0.279-0.138 0.419-0.065 0.105-0.143 0.2-0.201 0.31-0.622 1.239-0.792 2.656-0.481 4.007 0.31 1.351 1.082 2.551 2.183 3.394 1.1 0.843 2.46 1.276 3.845 1.224 1.386-0.051 2.709-0.585 3.744-1.507 1.087-0.983 1.805-2.308 2.034-3.756 0.23-1.447-0.043-2.93-0.773-4.201zm-3.758 2.548c0.013 0.076 8e-3 0.145 0 0zm-0.382-0.868c-0.014-0.017-0.012-0.015 0 0zm-1.683 0.677c-0.022-0.035-0.025-0.041 0 0zm0.399 0.338c0.095 0.032 0.057 0.025 0 0zm0.178 0.085 0.04-0.018c-0.01 1e-3 -0.02-1e-3 -0.028-6e-3h1e-3l0.031 4e-3 6e-3 -3e-3 -0.018-4e-3c0.015-1e-3 0.017 2e-3 0.018 4e-3 0.178-0.082 0.058-0.042-0.046-0.01l-7e-3 -2e-3c-0.064-0.033-0.134-0.055-0.205-0.066-7e-3 -4e-3 -0.015-6e-3 -0.02-0.01-0.058-0.041-0.348-0.268-0.079-0.03-0.058-0.052-0.116-0.103-0.171-0.159-0.033-0.033-0.062-0.069-0.089-0.108-0.035-0.06-0.069-0.122-0.102-0.183l-5e-3 -0.034c-5e-3 -0.027-8e-3 -0.039-0.012-0.055 2e-3 -0.017 5e-3 -0.036 8e-3 -0.054 0.02-0.054 0.032-0.11 0.038-0.167l0.011-0.015c0.043-0.06 0.081-0.13 0.122-0.193-0.217 0.33 0.085-0.036 0.108-0.083 4e-3 -8e-3 -3e-3 -3e-3 -1e-3 -9e-3 8e-3 -5e-3 6e-3 -1e-3 0.016-8e-3 0.068-0.039 0.131-0.083 0.2-0.121 0.081-0.046 0.402-0.137 0.069-0.041 0.076-0.022 0.149-0.049 0.225-0.069 0.014-4e-3 0.126-0.02 0.186-0.03 0.053-2e-3 0.105-3e-3 0.11-3e-3 0.025 0 0.05 3e-3 0.075 4e-3 -0.055 8e-3 0.19 0.06 0.262 0.072 0.011 8e-3 0.016 0.013 0.03 0.024 0.062 0.044 0.137 0.084 0.201 0.126-0.29-0.187 4e-3 0.015 0.06 0.071 0.033 0.033 0.063 0.068 0.095 0.103 0.028 0.033 0.054 0.069 0.077 0.106 0.047 0.087 0.098 0.175 0.148 0.261l0.014 0.022c0 3e-3 -1e-3 6e-3 -1e-3 9e-3 0.026 0.139 0.065 0.275 0.115 0.407 3e-3 0.012 5e-3 0.023 6e-3 0.034 5e-3 0.076 0.011 0.152 0.011 0.229l-1e-3 0.015c-0.231-0.12-0.487-0.184-0.747-0.186-0.261-2e-3 -0.518 0.059-0.751 0.176z" fill="#E6E6E6"/>
<path d="m468.17 240.9-4e-3 2e-3 8e-3 -2e-3h-4e-3z" fill="#E6E6E6"/>
<path d="m468.18 240.9 2e-3 1e-3 -2e-3 -1e-3z" fill="#E6E6E6"/>
<path d="m468.18 240.9c5e-3 1e-3 0 1e-3 -1e-3 2e-3l1e-3 -2e-3z" fill="#E6E6E6"/>
<path d="m468.18 240.9h-4e-3c6e-3 1e-3 4e-3 0 4e-3 0z" fill="#E6E6E6"/>
<path d="m452 286.73-46.497 2.585c-0.262 0.014-0.519-0.072-0.72-0.242-0.2-0.17-0.327-0.41-0.356-0.671-0.028-0.261 0.045-0.523 0.204-0.732s0.392-0.349 0.651-0.391l47.524-7.733-0.806 7.184z" fill="#3F3D56"/>
<path d="m511.09 390.25 17.522-29.478 12.95 6.117s-22.315 27.871-23.026 28.673c0.304 1.355 0.19 2.77-0.327 4.059-0.518 1.288-1.414 2.389-2.571 3.157-1.156 0.768-2.519 1.167-3.907 1.144-1.389-0.024-2.737-0.468-3.868-1.274-1.13-0.807-1.989-1.937-2.463-3.242s-0.54-2.724-0.19-4.067c0.349-1.344 1.099-2.55 2.149-3.459 1.05-0.908 2.351-1.477 3.731-1.63z" fill="#FFB6B6"/>
<path d="m518.38 321.77 28.388 14.81c1.774 1.278 3.262 2.913 4.368 4.798 1.107 1.886 1.808 3.982 2.058 6.154 0.251 2.172 0.045 4.373-0.603 6.461-0.649 2.088-1.726 4.018-3.163 5.666l-19.57 22.449-8.525-11.552 6.571-13.74-12.724-3.355 3.2-31.691z" fill="#9E616A"/>
<path d="m437.49 287.22-3.198 34.143-14.322 0.024s8.217-34.746 8.516-35.775c-0.856-1.094-1.36-2.421-1.444-3.807-0.085-1.386 0.253-2.765 0.969-3.955 0.716-1.189 1.776-2.134 3.041-2.708 1.264-0.574 2.673-0.75 4.04-0.506 1.366 0.244 2.627 0.897 3.614 1.874 0.988 0.976 1.656 2.229 1.916 3.593s0.099 2.774-0.46 4.045-1.491 2.342-2.672 3.072z" fill="#FFB6B6"/>
<path d="m466 357.04-32.965-6.046c-13.881-1.669-19.578-10.803-17.073-19.711l8.06-28.671 12.655 6.785-0.049 15.23 17.713-2.422 11.659 34.835z" fill="#9E616A"/>
<path d="m452.5 592.99h-9.064l-4.312-34.962h13.378l-2e-3 34.962z" fill="#FFB6B6"/>
<path d="m452.82 602.45-27.874-1e-3v-0.352c0-2.878 1.143-5.637 3.178-7.672 2.035-2.034 4.794-3.177 7.671-3.177h1e-3l5.091-3.863 9.5 3.863h2.433v11.202z" fill="#2F2E41"/>
<path d="m516.64 592.99h9.064l4.312-34.962h-13.378l2e-3 34.962z" fill="#FFB6B6"/>
<path d="m516.32 602.45 27.873-1e-3v-0.352c0-2.878-1.143-5.637-3.178-7.672-2.034-2.034-4.794-3.177-7.671-3.177h-1e-3l-5.091-3.863-9.5 3.863h-2.433l1e-3 11.202z" fill="#2F2E41"/>
<path d="m438.73 532.34c0.134-1.995 1.199-13.028 1.199-13.028l2.549-23.397 4.493-62.022 4.006-16.302 19.825 7.723 16.087-7.712 19.121 6.112 14.889 5.584s0.025 2.39 0.14 5.277c0.153 3.78 0.421 8.413 1.058 9.618 1.065 2.129 0.797 13.557 0.797 13.557s1.058 23.251 2.39 25.8 1.6 7.859 1.198 8.923c-0.401 1.064 1.332 28.987 1.332 28.987s4.45 49.413 1.658 56.864c-2.791 7.451-13.341 2.57-13.341 2.57s0.51-1.988-2.549-2.925-12.378-71.002-12.378-71.002-1.733-14.367-3.327-18.484c-1.593-4.117-3.059-15.685-3.059-15.685s-9.841-19.147-9.968-23.404c0 0-1.288-3.984-2.505 0.401s-4.806 14.889-4.806 14.889l-3.499 12.9-4.117 19.274-2.664 16.227s-3.99 21.537-4.628 22.467c-0.637 0.931 0 20.606 0 20.606s-3.084 16.756-7.444 19.682c-4.36 2.925-15.91 0.046-15.91 0.046s-0.681-41.551-0.547-43.546z" fill="#4F7A99"/>
<path d="m453.55 365.13-2.533 32.818-3.806 3.939c-0.343 0.356-0.611 0.776-0.788 1.237-0.177 0.462-0.259 0.954-0.241 1.447 0.018 0.494 0.136 0.979 0.345 1.426 0.21 0.447 0.508 0.847 0.876 1.176l-2.097 3.596-0.742 11.33c-0.212 0.882-0.227 1.799-0.043 2.687s0.562 1.724 1.106 2.449 1.242 1.321 2.043 1.745c0.802 0.425 1.687 0.667 2.593 0.709l65.632 3.084c0.9 0.042 1.799-0.114 2.633-0.457 0.833-0.343 1.582-0.865 2.191-1.53 0.61-0.664 1.067-1.453 1.338-2.313s0.35-1.769 0.231-2.663l-5.581-42.014v-3.141l-2.498-6.067 1.284-20.324 2.987-32.259-17.362-4.485-9.414-6.477-16.355 0.261-9.924 8.15-13.231 2.072-10.007 1.989-1.275 2.771 2.55-0.554 9.24 36.041 0.848 3.357z" fill="#9E616A"/>
<path d="m483.16 306.65c10.64 0 19.266-8.626 19.266-19.266s-8.626-19.266-19.266-19.266c-10.641 0-19.266 8.626-19.266 19.266s8.625 19.266 19.266 19.266z" fill="#FFB6B6"/>
<path d="m478.51 305.4 13.919-0.71c1.784-0.091 3.731-0.248 5.028-1.476 0.698-0.758 1.234-1.65 1.578-2.621 1.287-2.989 2.574-5.978 3.828-8.982 1.734-4.154 3.438-8.539 2.995-13.019-0.104-2.046-0.962-3.981-2.409-5.431-0.738-0.699-1.687-1.134-2.698-1.236-1.011-0.103-2.028 0.133-2.892 0.669-0.214-1.416-0.748-2.766-1.561-3.946-0.813-1.181-1.883-2.16-3.131-2.866-2.519-1.392-5.395-2.001-8.262-1.752-4.16 0.268-8.132 1.834-11.356 4.476-0.907 0.837-1.875 1.604-2.897 2.296-0.514 0.343-1.093 0.579-1.701 0.691-0.608 0.113-1.232 0.1-1.835-0.037-0.597-0.16-1.116-0.53-1.462-1.043-0.345-0.512-0.493-1.133-0.417-1.746-0.98 0.733-1.652 1.805-1.885 3.006-0.233 1.202-0.01 2.448 0.626 3.494-0.722 0.302-1.511 0.413-2.289 0.321s-1.519-0.384-2.151-0.847c-0.677 0.336-1.277 0.81-1.76 1.391s-0.84 1.257-1.047 1.984c-0.208 0.727-0.261 1.489-0.157 2.237 0.105 0.749 0.364 1.468 0.762 2.11 0.399 0.643 0.926 1.195 1.55 1.622 0.624 0.426 1.33 0.718 2.073 0.856 0.744 0.138 1.507 0.12 2.243-0.055 0.735-0.174 1.426-0.5 2.029-0.956 0.845 1.183 0.53 2.791 0.42 4.241-0.11 1.449 0.279 3.251 1.676 3.652 1.89 0.542 3.42-2.002 5.385-1.975 0.485 0.039 0.953 0.198 1.362 0.461 0.409 0.264 0.746 0.624 0.982 1.049 0.463 0.854 0.781 1.78 0.939 2.739l2.515 11.324" fill="#2F2E41"/>
<path d="m1021.3 478.64c0-2.984-1-5.405-2.23-5.41h-335.35c-1.235 5e-3 -2.232 2.426-2.237 5.41v122.81c0 0.277-0.103 0.544-0.289 0.749-0.186 0.206-0.442 0.334-0.718 0.361-0.9 0.086-1.8 0.167-2.7 0.241-0.022 0-0.045 6e-3 -0.067 6e-3 -0.49 0.044-0.979 0.078-1.469 0.117h-6e-3c-0.252-0.466-0.501-0.936-0.747-1.41-0.083-0.16-0.127-0.337-0.127-0.517v-129.38c0-0.824 0.034-1.653 0.089-2.471 0.08-1.124 0.219-2.242 0.418-3.351 0.94-5.171 3.067-8.672 5.482-8.683h340.08c0.35 3e-3 0.7 0.076 1.02 0.217 0.48 0.21 0.91 0.511 1.27 0.885 0.49 0.508 0.9 1.079 1.24 1.698 1.39 2.762 2.18 5.781 2.34 8.866 0 0.034 0.01 0.067 0.01 0.101 0.08 0.901 0.12 1.82 0.11 2.738l0.08 11.928 0.05 7.113 0.15 22.32 0.05 7.926 0.25 81.375c0 0.295-0.12 0.578-0.33 0.787-0.21 0.208-0.49 0.326-0.78 0.326h-4.48c-0.29 0-0.58-0.118-0.79-0.326-0.21-0.209-0.32-0.492-0.32-0.787v-123.64z" fill="#E6E6E6"/>
<path d="m930.13 401.3h-36.134c-0.511 1e-3 -1.001 0.205-1.362 0.566-0.361 0.362-0.563 0.853-0.563 1.364v57.081h39.989v-57.081c0-0.254-0.049-0.505-0.146-0.739s-0.24-0.447-0.419-0.626-0.392-0.321-0.626-0.418-0.485-0.147-0.739-0.147zm-17.945 32.433c-1.13-6e-3 -2.212-0.457-3.011-1.256-0.8-0.799-1.251-1.881-1.256-3.011v-6.584c0-1.132 0.449-2.217 1.25-3.017 0.8-0.8 1.885-1.25 3.017-1.25 1.131 0 2.217 0.45 3.017 1.25s1.25 1.885 1.25 3.017v6.584c-6e-3 1.13-0.457 2.212-1.256 3.011s-1.881 1.25-3.011 1.256z" fill="#ccc"/>
<path d="m891.95 458.48v5.507c1e-3 0.286 0.114 0.559 0.316 0.761s0.475 0.315 0.761 0.316h38.084c0.285-1e-3 0.558-0.115 0.759-0.317 0.202-0.202 0.316-0.475 0.317-0.76v-5.507h-40.237z" fill="#3F3D56"/>
<path d="m989.97 312.22h-154.46c-1.327 2e-3 -2.599 0.53-3.537 1.468-0.939 0.938-1.467 2.211-1.469 3.538v104.23c1e-3 1.327 0.529 2.6 1.468 3.538 0.938 0.939 2.211 1.467 3.538 1.468h154.46c1.327-1e-3 2.6-0.529 3.538-1.468 0.939-0.938 1.467-2.211 1.468-3.538v-104.23c-2e-3 -1.327-0.53-2.6-1.469-3.538-0.938-0.938-2.21-1.466-3.537-1.468z" fill="#E6E6E6"/>
<path d="m988.68 315.83h-151.88c-0.711 2e-3 -1.392 0.285-1.894 0.788s-0.783 1.185-0.784 1.895v101.65c2e-3 0.71 0.284 1.39 0.786 1.892s1.182 0.784 1.892 0.785h151.88c0.709-1e-3 1.389-0.283 1.891-0.785s0.785-1.182 0.786-1.892v-101.65c0-0.71-0.282-1.392-0.784-1.895s-1.183-0.786-1.893-0.788z" fill="#fff"/>
<path d="m959.1 466.98h-90.36c-0.247 0-0.491-0.055-0.714-0.161-0.224-0.107-0.421-0.261-0.576-0.454-0.156-0.192-0.267-0.416-0.325-0.656-0.058-0.241-0.062-0.491-0.011-0.733l1.402-6.659c0.08-0.373 0.285-0.707 0.58-0.947 0.296-0.24 0.665-0.372 1.046-0.373h87.556c0.381 1e-3 0.75 0.133 1.046 0.373s0.501 0.574 0.581 0.947l1.402 6.659c0.051 0.242 0.047 0.492-0.011 0.733-0.058 0.24-0.169 0.464-0.325 0.656-0.156 0.193-0.353 0.347-0.576 0.454-0.223 0.106-0.468 0.161-0.715 0.161z" fill="#ccc"/>
<path d="m873.07 458.2h-1.807c-0.27 0-0.488 0.219-0.488 0.488v0.694c0 0.269 0.218 0.488 0.488 0.488h1.807c0.269 0 0.488-0.219 0.488-0.488v-0.694c0-0.269-0.219-0.488-0.488-0.488z" fill="#E6E6E6"/>
<path d="m878.64 458.2h-1.807c-0.27 0-0.488 0.219-0.488 0.488v0.694c0 0.269 0.218 0.488 0.488 0.488h1.807c0.269 0 0.488-0.219 0.488-0.488v-0.694c0-0.269-0.219-0.488-0.488-0.488z" fill="#E6E6E6"/>
<path d="m884.21 458.2h-1.807c-0.27 0-0.488 0.219-0.488 0.488v0.694c0 0.269 0.218 0.488 0.488 0.488h1.807c0.269 0 0.488-0.219 0.488-0.488v-0.694c0-0.269-0.219-0.488-0.488-0.488z" fill="#E6E6E6"/>
<path d="m889.77 458.2h-1.807c-0.27 0-0.488 0.219-0.488 0.488v0.694c0 0.269 0.218 0.488 0.488 0.488h1.807c0.269 0 0.488-0.219 0.488-0.488v-0.694c0-0.269-0.219-0.488-0.488-0.488z" fill="#E6E6E6"/>
<path d="m895.34 458.2h-1.807c-0.27 0-0.488 0.219-0.488 0.488v0.694c0 0.269 0.218 0.488 0.488 0.488h1.807c0.269 0 0.488-0.219 0.488-0.488v-0.694c0-0.269-0.219-0.488-0.488-0.488z" fill="#E6E6E6"/>
<path d="m900.9 458.2h-1.807c-0.27 0-0.488 0.219-0.488 0.488v0.694c0 0.269 0.218 0.488 0.488 0.488h1.807c0.269 0 0.488-0.219 0.488-0.488v-0.694c0-0.269-0.219-0.488-0.488-0.488z" fill="#E6E6E6"/>
<path d="m906.47 458.2h-1.807c-0.27 0-0.488 0.219-0.488 0.488v0.694c0 0.269 0.218 0.488 0.488 0.488h1.807c0.269 0 0.488-0.219 0.488-0.488v-0.694c0-0.269-0.219-0.488-0.488-0.488z" fill="#E6E6E6"/>
<path d="m912.04 458.2h-1.807c-0.27 0-0.488 0.219-0.488 0.488v0.694c0 0.269 0.218 0.488 0.488 0.488h1.807c0.269 0 0.488-0.219 0.488-0.488v-0.694c0-0.269-0.219-0.488-0.488-0.488z" fill="#E6E6E6"/>
<path d="m917.6 458.2h-1.807c-0.27 0-0.488 0.219-0.488 0.488v0.694c0 0.269 0.218 0.488 0.488 0.488h1.807c0.269 0 0.488-0.219 0.488-0.488v-0.694c0-0.269-0.219-0.488-0.488-0.488z" fill="#E6E6E6"/>
<path d="m923.17 458.2h-1.807c-0.27 0-0.488 0.219-0.488 0.488v0.694c0 0.269 0.218 0.488 0.488 0.488h1.807c0.269 0 0.488-0.219 0.488-0.488v-0.694c0-0.269-0.219-0.488-0.488-0.488z" fill="#E6E6E6"/>
<path d="m928.73 458.2h-1.807c-0.27 0-0.488 0.219-0.488 0.488v0.694c0 0.269 0.218 0.488 0.488 0.488h1.807c0.269 0 0.488-0.219 0.488-0.488v-0.694c0-0.269-0.219-0.488-0.488-0.488z" fill="#E6E6E6"/>
<path d="m934.3 458.2h-1.806c-0.27 0-0.488 0.219-0.488 0.488v0.694c0 0.269 0.218 0.488 0.488 0.488h1.806c0.27 0 0.489-0.219 0.489-0.488v-0.694c0-0.269-0.219-0.488-0.489-0.488z" fill="#E6E6E6"/>
<path d="m939.86 458.2h-1.806c-0.27 0-0.488 0.219-0.488 0.488v0.694c0 0.269 0.218 0.488 0.488 0.488h1.806c0.27 0 0.489-0.219 0.489-0.488v-0.694c0-0.269-0.219-0.488-0.489-0.488z" fill="#E6E6E6"/>
<path d="m945.43 458.2h-1.806c-0.27 0-0.488 0.219-0.488 0.488v0.694c0 0.269 0.218 0.488 0.488 0.488h1.806c0.27 0 0.489-0.219 0.489-0.488v-0.694c0-0.269-0.219-0.488-0.489-0.488z" fill="#E6E6E6"/>
<path d="m951 458.2h-1.806c-0.27 0-0.488 0.219-0.488 0.488v0.694c0 0.269 0.218 0.488 0.488 0.488h1.806c0.27 0 0.489-0.219 0.489-0.488v-0.694c0-0.269-0.219-0.488-0.489-0.488z" fill="#E6E6E6"/>
<path d="m956.56 458.2h-1.806c-0.27 0-0.488 0.219-0.488 0.488v0.694c0 0.269 0.218 0.488 0.488 0.488h1.806c0.27 0 0.489-0.219 0.489-0.488v-0.694c0-0.269-0.219-0.488-0.489-0.488z" fill="#E6E6E6"/>
<path d="m873.01 460.98h-1.807c-0.269 0-0.488 0.219-0.488 0.488v0.694c0 0.269 0.219 0.488 0.488 0.488h1.807c0.27 0 0.488-0.219 0.488-0.488v-0.694c0-0.269-0.218-0.488-0.488-0.488z" fill="#E6E6E6"/>
<path d="m878.57 460.98h-1.807c-0.269 0-0.488 0.219-0.488 0.488v0.694c0 0.269 0.219 0.488 0.488 0.488h1.807c0.27 0 0.488-0.219 0.488-0.488v-0.694c0-0.269-0.218-0.488-0.488-0.488z" fill="#E6E6E6"/>
<path d="m884.14 460.98h-1.807c-0.269 0-0.488 0.219-0.488 0.488v0.694c0 0.269 0.219 0.488 0.488 0.488h1.807c0.27 0 0.488-0.219 0.488-0.488v-0.694c0-0.269-0.218-0.488-0.488-0.488z" fill="#E6E6E6"/>
<path d="m889.71 460.98h-1.807c-0.269 0-0.488 0.219-0.488 0.488v0.694c0 0.269 0.219 0.488 0.488 0.488h1.807c0.269 0 0.488-0.219 0.488-0.488v-0.694c0-0.269-0.219-0.488-0.488-0.488z" fill="#E6E6E6"/>
<path d="m895.27 460.98h-1.807c-0.269 0-0.488 0.219-0.488 0.488v0.694c0 0.269 0.219 0.488 0.488 0.488h1.807c0.269 0 0.488-0.219 0.488-0.488v-0.694c0-0.269-0.219-0.488-0.488-0.488z" fill="#E6E6E6"/>
<path d="m900.84 460.98h-1.807c-0.269 0-0.488 0.219-0.488 0.488v0.694c0 0.269 0.219 0.488 0.488 0.488h1.807c0.269 0 0.488-0.219 0.488-0.488v-0.694c0-0.269-0.219-0.488-0.488-0.488z" fill="#E6E6E6"/>
<path d="m906.4 460.98h-1.807c-0.269 0-0.488 0.219-0.488 0.488v0.694c0 0.269 0.219 0.488 0.488 0.488h1.807c0.269 0 0.488-0.219 0.488-0.488v-0.694c0-0.269-0.219-0.488-0.488-0.488z" fill="#E6E6E6"/>
<path d="m911.97 460.98h-1.807c-0.269 0-0.488 0.219-0.488 0.488v0.694c0 0.269 0.219 0.488 0.488 0.488h1.807c0.269 0 0.488-0.219 0.488-0.488v-0.694c0-0.269-0.219-0.488-0.488-0.488z" fill="#E6E6E6"/>
<path d="m917.54 460.98h-1.807c-0.269 0-0.488 0.219-0.488 0.488v0.694c0 0.269 0.219 0.488 0.488 0.488h1.807c0.269 0 0.488-0.219 0.488-0.488v-0.694c0-0.269-0.219-0.488-0.488-0.488z" fill="#E6E6E6"/>
<path d="m923.1 460.98h-1.807c-0.269 0-0.488 0.219-0.488 0.488v0.694c0 0.269 0.219 0.488 0.488 0.488h1.807c0.269 0 0.488-0.219 0.488-0.488v-0.694c0-0.269-0.219-0.488-0.488-0.488z" fill="#E6E6E6"/>
<path d="m928.67 460.98h-1.807c-0.269 0-0.488 0.219-0.488 0.488v0.694c0 0.269 0.219 0.488 0.488 0.488h1.807c0.269 0 0.488-0.219 0.488-0.488v-0.694c0-0.269-0.219-0.488-0.488-0.488z" fill="#E6E6E6"/>
<path d="m934.23 460.98h-1.807c-0.269 0-0.488 0.219-0.488 0.488v0.694c0 0.269 0.219 0.488 0.488 0.488h1.807c0.269 0 0.488-0.219 0.488-0.488v-0.694c0-0.269-0.219-0.488-0.488-0.488z" fill="#E6E6E6"/>
<path d="m939.8 460.98h-1.807c-0.27 0-0.488 0.219-0.488 0.488v0.694c0 0.269 0.218 0.488 0.488 0.488h1.807c0.269 0 0.488-0.219 0.488-0.488v-0.694c0-0.269-0.219-0.488-0.488-0.488z" fill="#E6E6E6"/>
<path d="m945.37 460.98h-1.807c-0.27 0-0.488 0.219-0.488 0.488v0.694c0 0.269 0.218 0.488 0.488 0.488h1.807c0.269 0 0.488-0.219 0.488-0.488v-0.694c0-0.269-0.219-0.488-0.488-0.488z" fill="#E6E6E6"/>
<path d="m950.93 460.98h-1.807c-0.27 0-0.488 0.219-0.488 0.488v0.694c0 0.269 0.218 0.488 0.488 0.488h1.807c0.269 0 0.488-0.219 0.488-0.488v-0.694c0-0.269-0.219-0.488-0.488-0.488z" fill="#E6E6E6"/>
<path d="m956.5 460.98h-1.807c-0.27 0-0.488 0.219-0.488 0.488v0.694c0 0.269 0.218 0.488 0.488 0.488h1.807c0.269 0 0.488-0.219 0.488-0.488v-0.694c0-0.269-0.219-0.488-0.488-0.488z" fill="#E6E6E6"/>
<path d="m919.21 464.32h-21.288c-0.27 0-0.488 0.218-0.488 0.488v0.693c0 0.27 0.218 0.488 0.488 0.488h21.288c0.269 0 0.488-0.218 0.488-0.488v-0.693c0-0.27-0.219-0.488-0.488-0.488z" fill="#E6E6E6"/>
<path d="m981.04 329.84h-142.11c-0.147-3e-3 -0.288-0.064-0.391-0.17-0.104-0.106-0.161-0.248-0.161-0.395 0-0.148 0.057-0.29 0.161-0.396 0.103-0.105 0.244-0.166 0.391-0.169h142.11c0.148 3e-3 0.288 0.064 0.391 0.169 0.104 0.106 0.162 0.248 0.162 0.396 0 0.147-0.058 0.289-0.162 0.395-0.103 0.106-0.243 0.167-0.391 0.17z" fill="#CACACA"/>
<path d="m848.6 325.82c1.829 0 3.312-1.516 3.312-3.386s-1.483-3.386-3.312-3.386-3.312 1.516-3.312 3.386 1.483 3.386 3.312 3.386z" fill="#ccc"/>
<path d="m860.05 325.82c1.829 0 3.312-1.516 3.312-3.386s-1.483-3.386-3.312-3.386c-1.83 0-3.312 1.516-3.312 3.386s1.482 3.386 3.312 3.386z" fill="#ccc"/>
<path d="m871.49 325.82c1.829 0 3.312-1.516 3.312-3.386s-1.483-3.386-3.312-3.386-3.312 1.516-3.312 3.386 1.483 3.386 3.312 3.386z" fill="#ccc"/>
<path d="m974.16 319.89h-8.127c-0.161 3e-3 -0.315 0.069-0.428 0.184-0.112 0.115-0.176 0.27-0.176 0.431s0.064 0.316 0.176 0.431c0.113 0.115 0.267 0.181 0.428 0.184h8.127c0.161-3e-3 0.315-0.069 0.427-0.184 0.113-0.115 0.176-0.27 0.176-0.431s-0.063-0.316-0.176-0.431c-0.112-0.115-0.266-0.181-0.427-0.184z" fill="#ccc"/>
<path d="m974.16 322.2h-8.127c-0.161 3e-3 -0.315 0.069-0.428 0.184-0.112 0.115-0.175 0.27-0.175 0.431s0.063 0.316 0.175 0.431c0.113 0.115 0.267 0.181 0.428 0.184h8.127c0.161-3e-3 0.315-0.069 0.427-0.184 0.113-0.115 0.176-0.27 0.176-0.431s-0.063-0.316-0.176-0.431c-0.112-0.115-0.266-0.181-0.427-0.184z" fill="#ccc"/>
<path d="m974.16 324.51h-8.127c-0.161 3e-3 -0.315 0.069-0.428 0.184-0.112 0.115-0.176 0.27-0.176 0.431s0.064 0.316 0.176 0.431c0.113 0.115 0.267 0.181 0.428 0.184h8.127c0.161-3e-3 0.315-0.069 0.427-0.184 0.113-0.115 0.176-0.27 0.176-0.431s-0.063-0.316-0.176-0.431c-0.112-0.115-0.266-0.181-0.427-0.184z" fill="#ccc"/>
<path d="m921.46 360.63h-17.758c-1.334 0-2.415 1.081-2.415 2.415s1.081 2.415 2.415 2.415h17.758c1.334 0 2.415-1.081 2.415-2.415s-1.081-2.415-2.415-2.415z" fill="#C96379"/>
<path d="m932.93 370.29h-40.701c-1.333 0-2.415 1.081-2.415 2.415s1.082 2.415 2.415 2.415h40.701c1.334 0 2.415-1.081 2.415-2.415s-1.081-2.415-2.415-2.415z" fill="#E6E6E6"/>
<path d="m932.93 379.95h-40.701c-1.333 0-2.415 1.081-2.415 2.415s1.082 2.415 2.415 2.415h40.701c1.334 0 2.415-1.081 2.415-2.415s-1.081-2.415-2.415-2.415z" fill="#E6E6E6"/>
<path d="m658.73 530.45-8.186-3.916 11.245-34.217 12.082 5.778-15.141 32.355z" fill="#FFB6B6"/>
<path d="m713.61 524.93c-0.595 0.373-1.19 0.74-1.792 1.107-1.196 0.733-2.405 1.455-3.613 2.164-0.608 0.355-1.221 0.71-1.828 1.059v0.018l-0.037 6e-3 -0.012 6e-3 -0.926 0.228-1.328-3.511-0.614-1.618-0.866-2.291-1.587-4.191-8.358-22.068 12.994-3.205 0.487 1.99h6e-3l0.241 0.986 4.539 18.413 0.926 3.764 0.031 0.114 0.559 2.249 0.481 1.948 0.535 2.177 0.162 0.655z" fill="#FFB6B6"/>
<path d="m791.12 447.43c-0.824 1.323-1.665 2.64-2.513 3.945-1.576 2.429-3.193 4.822-4.853 7.18 0 6e-3 -6e-3 6e-3 -0.012 0.012-0.968 0.897-2.038 1.677-3.187 2.327-0.048 0.036-0.102 0.06-0.15 0.09-0.846 0.468-1.747 0.829-2.682 1.076-0.337 0.084-0.679 0.169-1.016 0.253-1.215 0.288-2.417 0.535-3.614 0.751-2.129 0.379-4.233 0.65-6.326 0.818-0.168 0.018-0.336 0.03-0.505 0.042-8.605 0.632-16.981-0.385-25.724-2.05-4.317-0.818-8.725-1.798-13.289-2.814-1.491-0.337-2.988-0.668-4.504-0.999-0.114-0.024-0.234-0.054-0.354-0.078-2.165-0.475-4.366-0.944-6.621-1.407-2.838-0.583-5.766-1.148-8.809-1.683l0.217 4.287c0.18 3.298 0.865 6.549 2.032 9.639 1.299 3.8 2.327 6.807 0.156 13.066l-1.046 3.031c0.542 1.505 0.729 3.115 0.544 4.704s-0.735 3.114-1.608 4.454l-0.211 0.319 8.725 22.074 0.566 1.431h-4.468l-5.496 6e-3h-9.314l-13.44-26.963-0.643-1.287v-0.066l1.389-51.815c0.018-0.457 0.054-0.92 0.114-1.377 0.245-2.077 0.901-4.085 1.931-5.906 1.029-1.821 2.411-3.419 4.064-4.701 1.585-1.238 3.399-2.149 5.339-2.68 1.94-0.53 3.966-0.67 5.96-0.41l4.6 0.595 9.398 1.214 6.621 0.86 0.132 0.018 19.524 2.526 1.401-5.713 0.259-0.096 8.22-3.012 28.43-10.421 0.072-0.024 1.87-0.686 0.222 0.361c0.067 0.109 0.133 0.217 0.193 0.325 1.848 3.314 3.353 6.807 4.492 10.427 1.914 5.912 3.49 11.929 4.72 18.021 0.054 0.264 0.102 0.505 0.144 0.721l0.018 0.067c0.018 0.102 0.03 0.168 0.036 0.186 0.564 3.153 0.216 6.401-1.004 9.362z" fill="#2F2E41"/>
<path d="m792.32 428.34c-0.09-0.385-0.204-0.776-0.324-1.154-0.955-2.87-2.067-5.684-3.332-8.431-1.419-3.127-3.121-6.476-5.147-10.102-0.98-1.756-2.034-3.582-3.163-5.478-0.565-0.95-1.152-1.918-1.762-2.904-0.023-0.045-0.05-0.09-0.078-0.132l-0.174-0.289-28.129 3.764-10.475 1.401-0.626 5.22-0.15 1.293c-6e-3 0-6e-3 0 0 6e-3l-0.421 3.523v6e-3l-0.559 4.654-0.048-6e-3 -31.563-4.089-8.605-1.112c-1.994-0.26-4.02-0.12-5.959 0.41-1.94 0.531-3.755 1.442-5.339 2.681-1.653 1.282-3.035 2.88-4.064 4.701s-1.686 3.828-1.931 5.906c-0.054 0.421-0.09 0.854-0.108 1.281l-8.118 19.236c-4.858 11.504-7.951 23.675-9.176 36.102l-5.953 19.032 0.848 0.078 12.615 1.172 3.331 0.313 7.336-10.709c0.836-1.221 1.63-2.478 2.37-3.765 1.217-2.101 2.3-4.278 3.241-6.518l15.868-37.762c1.227 0.211 2.442 0.411 3.644 0.601 5.562 0.902 10.902 1.638 16.019 2.207 16.638 1.858 31.046 2.003 43.871 0.427 3.602-0.439 7.084-1.016 10.445-1.732 1.233-0.258 2.45-0.537 3.65-0.835 0.283-0.067 0.559-0.133 0.836-0.205 2.485-0.641 4.77-1.895 6.645-3.647s3.281-3.947 4.088-6.383c0.965-2.823 1.102-5.862 0.397-8.761z" fill="#2F2E41"/>
<path d="m661.34 524.86-8.857-4.245-1.389-0.668-2.219 5.448-15.49 3.41c-0.766 0.168-1.458 0.576-1.975 1.165-0.517 0.59-0.832 1.329-0.9 2.11-0.067 0.781 0.118 1.563 0.527 2.232s1.021 1.19 1.747 1.486l15.135 6.175 4.804-4.323-1.178 5.803 5.7 2.327 6.248-19.886-2.153-1.034z" fill="#2F2E41"/>
<path d="m715.77 516.47 0.566 1.431h-0.566v-1.431z" fill="#2F2E41"/>
<path d="m712.69 518.21-9.28 3.215-1.457 0.503 2.257 5.433-8.608 13.321c-0.426 0.658-0.631 1.435-0.584 2.218 0.048 0.783 0.344 1.53 0.846 2.132 0.502 0.603 1.183 1.029 1.944 1.216 0.762 0.188 1.563 0.127 2.287-0.174l15.1-6.261 0.372-6.452 3.245 4.952 5.688-2.357-9.552-18.526-2.258 0.78z" fill="#2F2E41"/>
<path d="m656.36 319.25c0.44 0.857 1.063 1.608 1.824 2.198 0.761 0.591 1.643 1.008 2.583 1.221s1.915 0.217 2.857 0.012c0.941-0.204 1.827-0.613 2.593-1.196l19.516 12.955 0.037-12.173-18.538-10.436c-1.066-1.223-2.544-2.013-4.153-2.219s-3.238 0.185-4.578 1.099c-1.34 0.915-2.299 2.289-2.693 3.863-0.395 1.574-0.198 3.237 0.552 4.676z" fill="#FFB6B6"/>
<path d="m670.94 324.88 9.105-10.358 37.074 22.009 49.146-4.501c2.429-0.222 4.877 0.093 7.171 0.923 2.294 0.831 4.377 2.156 6.101 3.881 1.724 1.726 3.047 3.81 3.875 6.105s1.141 4.743 0.916 7.172c-0.411 4.387-2.545 8.432-5.935 11.247-3.389 2.815-7.757 4.171-12.145 3.769l-55.35-5.123-39.958-35.124z" fill="#C96379"/>
<path d="m785.01 325.04-0.085-0.107c-6.914-0.682-13.877 0.656-20.046 3.852-6.168 3.196-11.277 8.113-14.706 14.154l-4.171 7.347c-13.491 16.494-3.688 27.868-3.101 29.559l-4.683 21.592 1.05 7.226 0.524 2.146 53.454 27.931c3.043-14.622 0.101-27.083-10.987-36.601l10.728-33.378c2.378-7.381 2.895-15.234 1.503-22.863-1.392-7.628-4.649-14.793-9.48-20.858z" fill="#C96379"/>
<path d="m742.5 487.19h-17.146c-0.943-1e-3 -1.854-0.342-2.566-0.96-0.712-0.619-1.177-1.473-1.309-2.407-1.059-7.791-1.059-15.689 0-23.48 0.131-0.922 0.586-1.768 1.285-2.385 0.698-0.617 1.593-0.965 2.525-0.981 5.394-2.418 11.204-2.418 17.27-1e-3 0.565 8e-3 1.122 0.139 1.631 0.384 0.509 0.246 0.958 0.6 1.316 1.037 0.372 0.455 0.639 0.988 0.781 1.559 0.141 0.571 0.153 1.166 0.036 1.743-1.377 6.854-1.377 13.914 0 20.768 0.117 0.577 0.105 1.172-0.036 1.743-0.142 0.571-0.409 1.104-0.781 1.559-0.364 0.445-0.823 0.804-1.343 1.049-0.519 0.246-1.088 0.373-1.663 0.372z" fill="#C96379"/>
<path d="m740.71 465.93h-14.432c-0.119 1e-3 -0.237-0.021-0.347-0.066-0.111-0.045-0.211-0.111-0.296-0.195-0.084-0.084-0.151-0.184-0.197-0.294s-0.07-0.228-0.07-0.347 0.024-0.237 0.07-0.347 0.113-0.209 0.197-0.293c0.085-0.084 0.185-0.15 0.296-0.195 0.11-0.045 0.228-0.068 0.347-0.067h14.432c0.119-1e-3 0.237 0.022 0.347 0.067 0.111 0.045 0.211 0.111 0.296 0.195 0.084 0.084 0.152 0.183 0.197 0.293 0.046 0.11 0.07 0.228 0.07 0.347s-0.024 0.237-0.07 0.347c-0.045 0.11-0.113 0.21-0.197 0.294-0.085 0.084-0.185 0.15-0.296 0.195-0.11 0.045-0.228 0.067-0.347 0.066z" fill="#fff"/>
<path d="m740.71 473.15h-14.432c-0.119 1e-3 -0.237-0.022-0.347-0.066-0.111-0.045-0.211-0.112-0.296-0.195-0.084-0.084-0.151-0.184-0.197-0.294s-0.07-0.228-0.07-0.347 0.024-0.237 0.07-0.347 0.113-0.21 0.197-0.294c0.085-0.083 0.185-0.15 0.296-0.195 0.11-0.044 0.228-0.067 0.347-0.066h14.432c0.119-1e-3 0.237 0.022 0.347 0.066 0.111 0.045 0.211 0.112 0.296 0.195 0.084 0.084 0.152 0.184 0.197 0.294 0.046 0.11 0.07 0.228 0.07 0.347s-0.024 0.237-0.07 0.347c-0.045 0.11-0.113 0.21-0.197 0.294-0.085 0.083-0.185 0.15-0.296 0.195-0.11 0.044-0.228 0.067-0.347 0.066z" fill="#fff"/>
<path d="m740.71 480.36h-14.432c-0.119 1e-3 -0.237-0.022-0.347-0.067-0.111-0.044-0.211-0.111-0.296-0.194-0.085-0.084-0.152-0.184-0.198-0.294-0.045-0.11-0.069-0.228-0.069-0.347s0.024-0.237 0.069-0.347c0.046-0.11 0.113-0.21 0.198-0.294s0.185-0.15 0.296-0.195c0.11-0.045 0.228-0.067 0.347-0.066h14.432c0.119-1e-3 0.237 0.021 0.348 0.066 0.11 0.045 0.21 0.111 0.295 0.195s0.152 0.184 0.198 0.294 0.069 0.228 0.069 0.347-0.023 0.237-0.069 0.347-0.113 0.21-0.198 0.294c-0.085 0.083-0.185 0.15-0.295 0.194-0.111 0.045-0.229 0.068-0.348 0.067z" fill="#fff"/>
<path d="m659.5 325.19h-17.146c-0.943-1e-3 -1.854-0.342-2.566-0.96-0.712-0.619-1.177-1.473-1.309-2.407-1.059-7.791-1.059-15.689 0-23.48 0.131-0.922 0.586-1.768 1.285-2.385 0.698-0.617 1.593-0.965 2.525-0.981 5.394-2.418 11.204-2.418 17.27-1e-3 0.565 8e-3 1.122 0.139 1.631 0.384 0.509 0.246 0.958 0.6 1.316 1.037 0.372 0.455 0.639 0.988 0.781 1.559 0.141 0.571 0.153 1.166 0.036 1.743-1.377 6.854-1.377 13.914 0 20.768 0.117 0.577 0.105 1.172-0.036 1.743-0.142 0.571-0.409 1.104-0.781 1.559-0.364 0.445-0.823 0.803-1.343 1.049-0.519 0.246-1.088 0.373-1.663 0.372z" fill="#BFCCA4"/>
<path d="m657.71 303.93h-14.432c-0.119 1e-3 -0.237-0.021-0.347-0.066-0.111-0.045-0.211-0.111-0.296-0.195-0.084-0.084-0.151-0.184-0.197-0.294s-0.07-0.228-0.07-0.347 0.024-0.237 0.07-0.347 0.113-0.209 0.197-0.293c0.085-0.084 0.185-0.15 0.296-0.195 0.11-0.045 0.228-0.068 0.347-0.067h14.432c0.119-1e-3 0.237 0.022 0.347 0.067 0.111 0.045 0.211 0.111 0.296 0.195 0.084 0.084 0.152 0.183 0.197 0.293 0.046 0.11 0.07 0.228 0.07 0.347s-0.024 0.237-0.07 0.347c-0.045 0.11-0.113 0.21-0.197 0.294-0.085 0.084-0.185 0.15-0.296 0.195-0.11 0.045-0.228 0.067-0.347 0.066z" fill="#fff"/>
<path d="m657.71 311.15h-14.432c-0.119 1e-3 -0.237-0.022-0.347-0.066-0.111-0.045-0.211-0.112-0.296-0.195-0.084-0.084-0.151-0.184-0.197-0.294s-0.07-0.228-0.07-0.347 0.024-0.237 0.07-0.347 0.113-0.21 0.197-0.294c0.085-0.084 0.185-0.15 0.296-0.195 0.11-0.044 0.228-0.067 0.347-0.066h14.432c0.119-1e-3 0.237 0.022 0.347 0.066 0.111 0.045 0.211 0.111 0.296 0.195 0.084 0.084 0.152 0.184 0.197 0.294 0.046 0.11 0.07 0.228 0.07 0.347s-0.024 0.237-0.07 0.347c-0.045 0.11-0.113 0.21-0.197 0.294-0.085 0.083-0.185 0.15-0.296 0.195-0.11 0.044-0.228 0.067-0.347 0.066z" fill="#fff"/>
<path d="m657.71 318.36h-14.432c-0.119 1e-3 -0.237-0.022-0.347-0.067-0.111-0.044-0.211-0.111-0.296-0.194-0.085-0.084-0.152-0.184-0.198-0.294-0.045-0.11-0.069-0.228-0.069-0.347s0.024-0.237 0.069-0.347c0.046-0.11 0.113-0.21 0.198-0.294s0.185-0.15 0.296-0.195c0.11-0.045 0.228-0.067 0.347-0.066h14.432c0.119-1e-3 0.237 0.021 0.348 0.066 0.11 0.045 0.21 0.111 0.295 0.195s0.152 0.184 0.198 0.294 0.069 0.228 0.069 0.347-0.023 0.237-0.069 0.347-0.113 0.21-0.198 0.294c-0.085 0.083-0.185 0.15-0.295 0.194-0.111 0.045-0.229 0.068-0.348 0.067z" fill="#fff"/>
<path d="m358.5 369.19h-17.147c-0.943-1e-3 -1.854-0.342-2.566-0.96-0.712-0.619-1.177-1.473-1.309-2.407-1.059-7.791-1.059-15.689 0-23.48 0.131-0.922 0.586-1.768 1.285-2.385 0.698-0.617 1.593-0.965 2.525-0.981 5.394-2.418 11.204-2.418 17.27-1e-3 0.565 8e-3 1.122 0.139 1.631 0.384 0.509 0.246 0.958 0.6 1.316 1.037 0.372 0.455 0.639 0.988 0.781 1.559 0.141 0.571 0.153 1.166 0.036 1.743-1.377 6.854-1.377 13.914 0 20.768 0.117 0.577 0.105 1.172-0.036 1.743-0.142 0.571-0.409 1.104-0.781 1.559-0.364 0.445-0.823 0.803-1.343 1.049-0.519 0.246-1.088 0.373-1.662 0.372z" fill="#87E4A3" fill-opacity=".8"/>
<path d="m356.71 347.93h-14.432c-0.119 1e-3 -0.237-0.021-0.347-0.066-0.111-0.045-0.211-0.111-0.296-0.195-0.084-0.084-0.151-0.184-0.197-0.294s-0.07-0.228-0.07-0.347 0.024-0.237 0.07-0.347 0.113-0.209 0.197-0.293c0.085-0.084 0.185-0.15 0.296-0.195 0.11-0.045 0.228-0.068 0.347-0.067h14.432c0.119-1e-3 0.237 0.022 0.347 0.067 0.111 0.045 0.211 0.111 0.296 0.195 0.084 0.084 0.151 0.183 0.197 0.293s0.07 0.228 0.07 0.347-0.024 0.237-0.07 0.347-0.113 0.21-0.197 0.294c-0.085 0.084-0.185 0.15-0.296 0.195-0.11 0.045-0.228 0.067-0.347 0.066z" fill="#fff"/>
<path d="m356.71 355.15h-14.432c-0.119 1e-3 -0.237-0.022-0.347-0.066-0.111-0.045-0.211-0.112-0.296-0.195-0.084-0.084-0.151-0.184-0.197-0.294s-0.07-0.228-0.07-0.347 0.024-0.237 0.07-0.347 0.113-0.21 0.197-0.294c0.085-0.084 0.185-0.15 0.296-0.195 0.11-0.044 0.228-0.067 0.347-0.066h14.432c0.119-1e-3 0.237 0.022 0.347 0.066 0.111 0.045 0.211 0.111 0.296 0.195 0.084 0.084 0.151 0.184 0.197 0.294s0.07 0.228 0.07 0.347-0.024 0.237-0.07 0.347-0.113 0.21-0.197 0.294c-0.085 0.083-0.185 0.15-0.296 0.195-0.11 0.044-0.228 0.067-0.347 0.066z" fill="#fff"/>
<path d="m356.71 362.36h-14.432c-0.119 1e-3 -0.237-0.022-0.347-0.067-0.111-0.044-0.211-0.111-0.296-0.194-0.085-0.084-0.152-0.184-0.198-0.294-0.045-0.11-0.069-0.228-0.069-0.347s0.024-0.237 0.069-0.347c0.046-0.11 0.113-0.21 0.198-0.294s0.185-0.15 0.296-0.195c0.11-0.045 0.228-0.067 0.347-0.066h14.432c0.119-1e-3 0.237 0.021 0.348 0.066 0.11 0.045 0.21 0.111 0.295 0.195s0.152 0.184 0.198 0.294 0.069 0.228 0.069 0.347-0.023 0.237-0.069 0.347-0.113 0.21-0.198 0.294c-0.085 0.083-0.185 0.15-0.295 0.194-0.111 0.045-0.229 0.068-0.348 0.067z" fill="#fff"/>
<path d="m747.53 465.27c0.83-0.49 1.542-1.156 2.087-1.951 0.544-0.796 0.907-1.7 1.064-2.651s0.104-1.925-0.156-2.852c-0.26-0.928-0.721-1.788-1.349-2.519l11.775-20.249-12.153 0.685-9.319 19.124c-1.157 1.137-1.858 2.659-1.968 4.277-0.111 1.619 0.376 3.222 1.369 4.505 0.992 1.284 2.421 2.159 4.015 2.459 1.595 0.301 3.244 6e-3 4.635-0.828z" fill="#FFB6B6"/>
<path d="m752.28 450.39-10.881-8.475 19.771-38.314-7.408-48.792c-0.366-2.412-0.197-4.875 0.496-7.214s1.892-4.497 3.512-6.32c1.621-1.824 3.623-3.268 5.864-4.231 2.241-0.962 4.667-1.42 7.105-1.34 4.404 0.15 8.568 2.041 11.579 5.257 3.012 3.217 4.624 7.497 4.484 11.9l-1.831 55.557-32.691 41.972z" fill="#C96379"/>
<path d="m226.38 439.92c0.686-0.689 1.212-1.52 1.541-2.434 0.33-0.914 0.455-1.889 0.367-2.856-0.088-0.968-0.388-1.905-0.877-2.744-0.489-0.84-1.156-1.562-1.955-2.115l10.582-52.561-11.686 3.752-8.47 50.839c-0.841 1.403-1.139 3.066-0.836 4.674 0.303 1.607 1.185 3.048 2.479 4.049 1.294 1 2.91 1.492 4.542 1.38 1.633-0.111 3.167-0.817 4.313-1.984z" fill="#9E616A"/>
<path d="m242.01 328.71-7.25-5.473s-6.396-0.453-7.529 11.082c-1.133 11.534-3.459 34.013-3.459 34.013l-11.095 51.387 15.358 3.371 11.884-55.455 7.128-16.468-5.037-22.457z" fill="#BFCCA4"/>
<path d="m230.06 412.62 40.857-0.681 3.405-27.919h-44.262v28.6z" fill="#9E616A"/>
<path d="m266.83 584.43h9.432l4.487-36.381-13.921 1e-3 2e-3 36.38z" fill="#9E616A"/>
<path d="m207.74 585.3 9.432-0.067 4.232-36.411-12.267 2.814-1.397 33.664z" fill="#9E616A"/>
<path d="m237.24 359.98-2.137 5.556 0.427 5.557 41.827 14.487-2.075-24.318-4.702-5.557-33.34 4.275z" fill="#FFB6B6"/>
<path d="m255.18 309.98c8.251 0 14.939-6.688 14.939-14.939 0-8.25-6.688-14.938-14.939-14.938-8.25 0-14.939 6.688-14.939 14.938 0 8.251 6.689 14.939 14.939 14.939z" fill="#9E616A"/>
<path d="m264.49 579.77 14.91-0.89v6.389l14.175 9.79c0.7 0.483 1.228 1.178 1.505 1.982 0.278 0.804 0.291 1.676 0.038 2.489-0.254 0.812-0.76 1.522-1.445 2.026-0.686 0.505-1.514 0.777-2.365 0.777h-17.751l-3.06-6.319-1.195 6.319h-6.692l1.88-22.563z" fill="#2F2E41"/>
<path d="m204.51 580.67 14.904-0.994 0.045 6.388 14.243 9.69c0.704 0.479 1.236 1.17 1.519 1.972 0.283 0.803 0.303 1.675 0.055 2.489s-0.749 1.527-1.431 2.036c-0.681 0.509-1.508 0.787-2.359 0.793l-17.751 0.124-3.104-6.297-1.15 6.327-6.693 0.047 1.722-22.575z" fill="#2F2E41"/>
<path d="m204.8 557.41 6.868-54.898 8.172-57.881c-5.985-11.113 7.49-45.624 7.49-45.624l1.902 0.092 43.05 8.121-9e-3 -0.041c8.805 24.016 11.722 35.88 11.24 61.454l-1.735 91.935h0.544c0.903 0 1.769 0.359 2.408 0.998 0.638 0.638 0.997 1.504 0.997 2.407s-0.359 1.769-0.997 2.408c-0.639 0.638-1.505 0.997-2.408 0.997h-17.024c-0.447 1e-3 -0.891-0.087-1.304-0.258-0.414-0.17-0.79-0.421-1.107-0.737s-0.568-0.692-0.74-1.105c-0.171-0.414-0.259-0.857-0.259-1.305 0-0.447 0.088-0.891 0.259-1.304 0.172-0.414 0.423-0.789 0.74-1.105 0.317-0.317 0.693-0.567 1.107-0.738 0.413-0.171 0.857-0.258 1.304-0.258h0.439l-15.625-109.47-13.249 45.963-14.981 59.924c5.448-1.362 4.602 1.793 4.602 3.58 0 0.903-0.359 1.77-0.997 2.408-0.639 0.639-1.505 0.997-2.408 0.997h-17.023c-0.792 1e-3 -1.559-0.274-2.17-0.779-0.61-0.504-1.026-1.205-1.174-1.983-0.149-0.778-0.022-1.583 0.359-2.277s0.993-1.233 1.729-1.524z" fill="#2F2E41"/>
<path d="m223.98 400.79 1.362-13.619c0.141-0.556 0.455-1.052 0.896-1.419 0.441-0.366 0.987-0.583 1.559-0.62 0.567-6.488 2.955-34.476 3.097-35.697l6e-3 -0.051 1.086-23.192c0.039-0.842 0.387-1.64 0.978-2.242s1.382-0.965 2.224-1.02l5.734-0.375c0.079-2e-3 0.153-0.036 0.208-0.092 0.054-0.057 0.085-0.132 0.085-0.211 0-0.633 0.125-1.26 0.367-1.845s0.598-1.117 1.045-1.565c0.448-0.447 0.98-0.803 1.565-1.045s1.212-0.367 1.845-0.367h16.977c1.1 0 2.161 0.402 2.986 1.13 0.824 0.727 1.355 1.731 1.492 2.822 7e-3 0.075 0.043 0.145 0.099 0.195 0.057 0.05 0.13 0.077 0.206 0.075h2e-3c1.929-0.04 3.808 0.613 5.297 1.841 1.489 1.227 2.488 2.947 2.817 4.849 2.321 13.504 6.972 44.152 4.672 61.191-0.8 5.932 0.925 1.234 1.228 6.197 0.03 0.479-0.035 0.96-0.191 1.415-0.156 0.454-0.4 0.874-0.718 1.234 0.651 0.236 1.183 0.721 1.48 1.348 0.297 0.626 0.335 1.345 0.105 1.999l0.298-0.074c-0.087 0.347-0.242 0.673-0.455 0.96-0.214 0.287-0.482 0.529-0.789 0.713-0.307 0.183-0.647 0.304-1.001 0.356s-0.715 0.034-1.062-0.053l-44.415 6.018c-1.459-0.368-11.453-7.397-11.085-8.856z" fill="#BFCCA4"/>
<path d="m342.67 345.42c-0.279 0.931-0.758 1.79-1.404 2.515-0.646 0.726-1.443 1.301-2.335 1.686-0.893 0.384-1.858 0.568-2.83 0.539-0.971-0.029-1.924-0.271-2.791-0.709l-17.171 15.671-2.28-12.06 16.666-12.993c0.831-1.409 2.151-2.464 3.708-2.965s3.244-0.413 4.741 0.246c1.497 0.66 2.7 1.846 3.381 3.333s0.793 3.173 0.315 4.737z" fill="#9E616A"/>
<path d="m282.9 333.44s-5.987-13.531-13.549-10.841c-7.562 2.689-3.658 15.818-3.658 15.818l28.411 42.811s40.979-26.287 35.996-26.473-6.473-9.249-6.473-9.249l-21.659 10.822-0.732-3.853-1.175 1.175-3.031-2.386-14.13-17.824z" fill="#BFCCA4"/>
<path d="m772.68 318.58c11.519 0 20.857-9.338 20.857-20.857s-9.338-20.857-20.857-20.857-20.857 9.338-20.857 20.857 9.338 20.857 20.857 20.857z" fill="#FFB6B6"/>
<path d="m839.62 328.41c-2.407 3.411-5.919 5.884-9.942 7-1.61 0.479-3.272 0.761-4.95 0.841-0.207-1.898-0.703-3.752-1.471-5.499 0.078 1.859-0.181 3.718-0.764 5.486-2.519-0.143-4.982-0.803-7.236-1.939-2.213-1.114-4.136-2.728-5.617-4.714s-2.479-4.291-2.914-6.73c-0.884-5.705 1.703-11.306 2.638-17.003 0.939-5.696-0.824-12.91-6.4-14.407-4.246-1.141-3.77-0.648-7.3 1.973 3.672 5.429-9.891 25.326-15.441 23.591-3.139-0.981-5.148-3.861-5.795-3.861-4.362 7.515 3.852 20.177-4.427 22.807l0.682-0.682c4.997-6.147-5.447-19.156-0.45-25.303 1.394-1.72 2.878-3.757 2.466-5.932-0.39-2.067-3.671-3.161-4.632-1.463 1.728-3.959-0.824-9.243-5.049-10.26-3.753-0.905-3.684 0.211-7.45 0.695-0.246-1.627-0.706-3.215-1.368-4.722 0.069 1.624-0.121 3.248-0.562 4.812-1.331-0.026-2.615-0.49-3.655-1.321-3.071-2.475-2.449-7.673 0.292-10.509 2.745-2.835 6.824-3.856 10.714-4.516 1.131-7.876 22.86-8.697 25.74-0.828 1.227-5.876 8.583-8.926 14.301-7.103s9.685 7.163 11.774 12.791c2.089 5.623 2.672 11.675 3.959 17.534s3.461 11.826 7.939 15.819c4.478 3.989 11.775 5.31 16.493 1.604 0.686 1.959 0.901 4.051 0.627 6.108-0.273 2.056-1.028 4.02-2.202 5.731z" fill="#2F2E41"/>
<path d="m1035.3 376.01-2.92 14.65c-0.22 1.12-0.45 2.26-0.7 3.39-2.45-0.505-4.98-0.364-7.34 0.41 1.87 2.686 3.56 5.503 5.04 8.43-1.84 5.67-4.54 10.91-9.06 14.7-3.02 2.475-6.63 4.131-10.47 4.807-3.85 0.676-7.8 0.35-11.485-0.947l0.13-0.58c-4.86-9.43-2.22-21.32 3.825-30.03 3.08-4.297 6.73-8.155 10.85-11.47 4.08-3.4 8.49-6.45 12.86-9.46 0.98-0.674 2.14-1.042 3.33-1.054s2.36 0.331 3.35 0.986c1 0.655 1.77 1.592 2.23 2.69 0.46 1.099 0.59 2.31 0.36 3.478z" fill="#87E4A3" fill-opacity=".8"/>
<path d="m999.4 456.7c-1.229-8.953-2.493-18.02-1.631-27.069 0.766-8.036 3.216-15.885 8.206-22.321 2.65-3.409 5.88-6.331 9.53-8.633 0.95-0.6 1.83 0.909 0.88 1.507-6.32 3.995-11.21 9.894-13.96 16.847-3.042 7.732-3.53 16.161-3.002 24.374 0.317 4.967 0.992 9.9 1.662 14.83 0.06 0.223 0.02 0.459-0.09 0.658-0.11 0.2-0.3 0.349-0.52 0.416-0.22 0.061-0.46 0.03-0.659-0.084-0.202-0.114-0.349-0.303-0.412-0.526l-4e-3 1e-3z" fill="#3F3D56"/>
<path d="m1069.4 603.77-438.88 0.229c-0.148-1e-3 -0.29-0.094-0.395-0.26-0.104-0.166-0.163-0.391-0.163-0.626 0-0.234 0.059-0.459 0.163-0.625 0.105-0.166 0.247-0.26 0.395-0.26l438.88-0.229c0.15 1e-3 0.29 0.094 0.4 0.26 0.1 0.166 0.16 0.391 0.16 0.626 0 0.234-0.06 0.459-0.16 0.625-0.11 0.166-0.25 0.26-0.4 0.26z" fill="#616161"/>
<path d="m237.6 285.89c-2.291 1.1-4.856-0.554-6.834-2.193l0.707 0.611c-3.496 3.401-5.13 8.295-5.929 13.112-0.799 4.812-0.888 9.733-1.895 14.511-1.007 4.773-3.097 9.569-7 12.492-5.229 3.916-12.441 3.664-18.858 2.464-0.085-0.017-0.165-0.03-0.251-0.048 1.727-4.985 2.429-10.268 2.064-15.531-1.72 5.274-4.648 10.074-8.551 14.017-4.255-1.171-8.408-2.684-12.418-4.525-2.595-1.195-5.389-2.828-6.109-5.593-0.722-2.744 0.954-5.623 3.196-7.356s4.994-2.637 7.548-3.871c2.549-1.229 5.073-2.981 6.093-5.626 2.355-6.084-4.353-13.065-1.739-19.046 1.29-2.941 4.447-4.54 7.415-5.774 4.531-1.877 9.183-3.447 13.926-4.697 4.163-1.098 8.51-1.951 12.751-1.231 4.241 0.719 8.396 3.299 9.922 7.327 2.547 0.86 5.251 1.831 6.886 3.974 1.633 2.139 1.502 5.821-0.924 6.983z" fill="#2F2E41"/>
<path d="m257.99 278.84c-6.554-5.174-11.854-4.291-15.942-1.076-0.687-0.765-3.612 1.339-4.603 1.037l-3.581 6.724c-1.844 3.252-2.6 6.573-2.302 8.441-3.39 9.508 4.65 15.928 14.158 19.319 3.794 1.362 7.933 1.422 11.765 0.17l0.117-1.62 0.72 1.328s8.692 17.897 10.746 18.701c-1.247-3.233-4.534-18.599-5.451-21.802-1.258-4.357-0.399-11.281 0.341-15.526 0.46-2.617 0.485-5.292 0.071-7.917l-0.018-0.115 2.033 4.106 4.563-2.869c-1.744-5.08-1.778-11.156-12.617-8.901z" fill="#2F2E41"/>
<defs>
<linearGradient id="b" x1="868.5" x2="868.5" y1="99" y2="758" gradientUnits="userSpaceOnUse">
<stop stop-color="#C96379" offset="0"/>
<stop stop-color="#DD6C37" offset="1"/>
</linearGradient>
<linearGradient id="a" x1="755" x2="72.5" y1="590" y2="56.5" gradientUnits="userSpaceOnUse">
<stop stop-color="#5A928B" offset="0"/>
<stop stop-color="#4F7A99" offset="1"/>
</linearGradient>
</defs>
</svg>
