<svg xmlns="http://www.w3.org/2000/svg" xmlns:xlink="http://www.w3.org/1999/xlink" width="1209" height="758" fill="none" xmlns:v="https://vecta.io/nano"><style><![CDATA[.B{fill:#ffb6b6}.C{fill:#9e616a}.D{fill:#2f2e41}.E{fill:#e6e6e6}.F{fill:#ff9f40}.G{fill:#3f3d56}.H{fill:#ff6384}]]></style><g fill-rule="evenodd"><path d="M881.757 99.436c90.553 3.956 172.653 43.506 234.263 101.355 59.17 55.545 84.88 128.215 90.73 203.762 6.39 82.427 2.5 168.727-56.85 233.227-65.29 70.954-163.732 116.469-268.143 119.959-108.078 3.612-218.781-30.196-289.573-101.32-67.164-67.479-67.667-162.751-61.966-251.866 5.296-82.776 25.026-166.753 92.495-225.313 67.408-58.506 163.935-83.959 259.044-79.804z" fill="url(#A)"/><path d="M394.857 1.681c116.23 4.547 227.161 34.099 314.151 97.861 92.902 68.095 171.424 156.668 172.968 259.188 1.558 103.455-73.277 195.212-165.064 265.71-88.222 67.76-201.547 106.401-322.055 108.427-123.201 2.071-255.93-19.711-335.452-97.374-75.768-73.996-45.925-179.906-47.644-276.763-1.763-99.33-42.135-210.606 37.674-284.989C131.27-2.529 271.532-3.143 394.857 1.681z" fill="url(#B)"/></g><g class="E"><path d="M167.952 152.634c42.838-.745 85.679-.852 128.526-.321a4297.75 4297.75 0 0 1 128.478 3.524l72.041 3.662c1.928.114 1.921-2.887 0-3a4317.28 4317.28 0 0 0-128.401-5.682l-128.513-1.837-72.131.654c-1.928.033-1.934 3.034 0 3h0z"/><use xlink:href="#C"/><use xlink:href="#C" y="18"/><path d="M465.079 143.603l26.632 2.419c1.922.175 1.91-2.826 0-3l-26.632-2.419c-1.922-.175-1.91 2.826 0 3z"/><use xlink:href="#D"/><use xlink:href="#D" x="21"/><use xlink:href="#D" x="42"/><path d="M524.411 462H156.506c-4.652-.005-9.112-1.855-12.402-5.145s-5.14-7.75-5.145-12.402V116.547c.005-4.652 1.855-9.112 5.145-12.402A17.57 17.57 0 0 1 156.506 99h367.905a17.57 17.57 0 0 1 17.548 17.547v327.906a17.57 17.57 0 0 1-5.146 12.402c-3.289 3.29-7.75 5.14-12.402 5.145h0zM156.506 101c-4.122.005-8.074 1.644-10.989 4.559a15.56 15.56 0 0 0-4.558 10.988v327.906a15.56 15.56 0 0 0 4.559 10.988c2.914 2.915 6.866 4.554 10.988 4.559h367.905c4.122-.005 8.074-1.644 10.989-4.559s4.554-6.866 4.559-10.988V116.547a15.57 15.57 0 0 0-4.559-10.988c-2.915-2.915-6.867-4.554-10.989-4.559H156.506zm-.61 221.106l129.38-.394 128.719-.391 72.61-.221a1.5 1.5 0 0 0 1.028-.457c.27-.28.421-.654.421-1.043s-.151-.763-.421-1.043a1.5 1.5 0 0 0-1.028-.457l-129.379.394-128.719.391-72.611.221a1.5 1.5 0 0 0-1.027.457c-.27.28-.422.654-.422 1.043s.152.763.422 1.043a1.5 1.5 0 0 0 1.027.457h0z"/><path d="M221.166 319.674l.8-47.237c.033-1.931-2.967-1.932-3 0l-.8 47.237c-.033 1.931 2.967 1.931 3 0zm61.835.511l1.95-59.375.557-16.964c.063-1.931-2.937-1.928-3 0l-1.95 59.375-.557 16.964c-.063 1.931 2.937 1.929 3 0zm61.669-104.484l-4.528 104.09c-.108 1.929 2.893 1.923 3 0l4.528-104.09c.108-1.929-2.893-1.923-3 0zm61.371 82.988l-.367 20.213c-.035 1.932 2.965 1.932 3 0 .434-23.873 1.548-23.095 1.67-29.832.036-1.932-2.964-1.932-3 0 0 0-.868-14.254-1.303 9.619zm60.112-53.1l.34 56.708.097 16.238a1.5 1.5 0 0 0 .457 1.028c.28.27.654.421 1.043.421s.763-.151 1.043-.421.443-.639.457-1.028l-.339-56.708-.098-16.238a1.5 1.5 0 0 0-.457-1.028c-.28-.27-.654-.421-1.043-.421a1.5 1.5 0 0 0-1.042.421c-.28.27-.444.639-.458 1.028h0z"/><path d="M156.138 320.418c-2.484-6.824 3.114-13.387 8.866-16.336 6.891-3.533 14.818-4.334 21.782-7.74 10.382-5.078 17.945-14.192 24.673-23.314 6.926-9.39 13.263-19.467 22.064-27.268 4.637-4.202 10.114-7.372 16.068-9.299 7.503-2.341 15.459-2.502 23.211-1.558 16.019 1.949 30.868 8.565 46.324 12.771 14.572 3.964 30.628 6.193 44.931.028 7.267-3.132 13.209-8.385 19.592-12.931 6.177-4.446 13.084-7.778 20.408-9.845 14.358-3.992 30.038-2.926 43.405 3.823a58.24 58.24 0 0 1 27.47 28.993c6.337 15.138 5.512 32.055 3.442 47.989-.535 4.119-1.172 8.224-1.815 12.327-.297 1.889 2.594 2.702 2.892.798 2.578-16.431 5.148-33.382 1.941-49.917-2.773-14.437-10.712-27.369-22.331-36.376a62.04 62.04 0 0 0-40.912-12.911 67.07 67.07 0 0 0-22.474 4.998c-7.419 3.069-13.702 7.617-20.083 12.404-6.562 4.921-13.325 8.991-21.472 10.596-7.901 1.557-16.121.973-23.988-.497-16.232-3.032-31.362-9.985-47.457-13.547-14.912-3.3-31.003-3.63-44.355 4.794-10.272 6.48-17.53 16.54-24.495 26.254-6.905 9.629-13.896 19.925-23.992 26.503-6.159 4.012-13.082 5.493-19.972 7.749-6.907 2.262-13.538 6.079-16.354 13.156-1.214 2.914-1.307 6.175-.262 9.154.655 1.8 3.555 1.023 2.893-.798h0zm64.033-54.513l-.004.002.008-.002h-.004z"/><path d="M225.373 263.145c-.694-1.227-1.8-2.17-3.122-2.659s-2.776-.494-4.102-.014a5.25 5.25 0 0 0-1.776 1.089c-.513.478-.926 1.054-1.213 1.694-.057.136-.091.279-.138.419l-.201.31c-.622 1.239-.792 2.656-.481 4.007a5.95 5.95 0 0 0 2.183 3.394c1.1.843 2.46 1.276 3.845 1.224a5.96 5.96 0 0 0 3.744-1.507c1.087-.983 1.805-2.308 2.034-3.756s-.043-2.93-.773-4.201h0zm-3.758 2.548c.013.076.008.145 0 0h0zm-.382-.868c-.014-.017-.013-.015 0 0h0zm-1.683.677c-.023-.035-.025-.041 0 0h0zm.399.338c.095.032.057.025 0 0h0zm.178.085l.04-.018c-.01.001-.02-.001-.028-.006h.001l.031.004.006-.003-.018-.004c.196-.078.076-.038-.028-.006l-.007-.002c-.064-.033-.134-.055-.205-.066-.007-.004-.015-.006-.02-.01-.058-.041-.348-.268-.079-.03l-.171-.159c-.033-.033-.062-.069-.088-.108l-.103-.183-.005-.034-.012-.055.008-.054c.02-.054.032-.11.038-.167l.011-.015c.043-.06.081-.13.122-.193-.217.33.085-.036.108-.083.007-.014.005-.01.015-.017l.2-.121c.081-.046.402-.137.07-.041l.224-.069c.014-.004.126-.02.186-.03l.11-.003c.025 0 .05.003.075.004-.055.008.19.06.262.072l.03.024c.062.044.137.084.202.126-.291-.187.003.015.059.071l.095.103c.028.033.054.069.077.106l.148.261.014.022c.025.148.064.284.114.416.003.012.005.023.006.034l.011.229-.001.015a1.65 1.65 0 0 0-.747-.186c-.261-.002-.518.059-.751.176h0z"/><path d="M220.18 265.903h0z"/><path d="M220.179 265.903h.001-.001z"/><path d="M220.179 265.905h-.004z"/><path d="M220.177 265.902l.002.001-.002-.001zm63.994-27.997l-.004.002.008-.002h-.004z"/><use xlink:href="#E"/><path d="M284.179 237.905h-.004z"/><path d="M284.177 237.902l.002.001-.002-.001z"/><path d="M284.18 237.903h0z"/><path d="M284.179 237.903h.001-.001zm61.998 13.999l.002.001-.002-.001z"/><path d="M351.373 207.145c-.694-1.227-1.8-2.17-3.122-2.659a5.97 5.97 0 0 0-4.102-.014 5.25 5.25 0 0 0-1.776 1.089c-.513.478-.926 1.054-1.213 1.694-.057.136-.091.279-.138.419l-.201.31c-.622 1.239-.792 2.656-.481 4.007a5.95 5.95 0 0 0 2.183 3.394c1.1.843 2.46 1.276 3.845 1.224a5.96 5.96 0 0 0 3.744-1.507c1.087-.983 1.805-2.308 2.034-3.756a6.42 6.42 0 0 0-.773-4.201h0zm-3.758 2.548c.013.076.008.145 0 0h0zm-.382-.868c-.014-.017-.012-.015 0 0h0zm-1.683.677c-.022-.035-.025-.041 0 0h0zm.399.338c.095.032.057.025 0 0h0zm.178.085l.04-.018c-.01.001-.02-.001-.028-.006h.001l.031.004.006-.003-.018-.004c.196-.078.076-.038-.028-.006l-.007-.002c-.064-.033-.134-.055-.205-.066-.007-.004-.015-.006-.02-.01-.058-.041-.348-.268-.079-.03l-.171-.159c-.033-.033-.062-.069-.089-.108l-.102-.183-.005-.034-.012-.055.008-.054c.02-.054.032-.11.038-.167l.011-.015c.043-.06.081-.13.122-.193-.217.33.085-.036.108-.083.007-.014.005-.01.015-.016l.2-.122c.081-.045.402-.137.069-.041l.225-.069c.014-.004.126-.02.186-.03l.11-.003c.025 0 .05.003.075.004-.055.008.19.06.262.072l.03.024c.062.045.137.084.201.126-.29-.187.004.015.06.071l.095.103c.028.033.054.069.077.106l.148.261.014.022c.025.148.064.284.114.416.003.012.005.023.006.034l.011.229-.001.015a1.65 1.65 0 0 0-.747-.186 1.66 1.66 0 0 0-.751.176h0zm.044 41.98l-.004.002.008-.002h-.004z"/><path d="M346.179 251.903h.001-.001z"/><path d="M346.179 251.905h-.004z"/><path d="M346.18 251.903h0z"/><use xlink:href="#E" x="125" y="49"/><path d="M409.171 220.905l-.004.002.008-.002h-.004z"/><path d="M409.179 220.903h.001-.001z"/><path d="M409.179 220.905h-.004z"/><path d="M409.18 220.903h0z"/><path d="M409.177 220.902l.002.001-.002-.001zm59.002 20.001h.001-.001z"/><path d="M473.373 238.145c-.694-1.227-1.8-2.17-3.122-2.659s-2.776-.494-4.102-.014a5.25 5.25 0 0 0-1.776 1.089c-.513.478-.926 1.054-1.213 1.694-.057.136-.091.279-.138.419l-.201.31c-.622 1.239-.792 2.656-.481 4.007a5.95 5.95 0 0 0 2.183 3.394c1.1.843 2.46 1.276 3.845 1.224a5.96 5.96 0 0 0 3.744-1.507c1.087-.983 1.805-2.308 2.034-3.756s-.043-2.93-.773-4.201h0zm-3.758 2.548c.013.076.008.145 0 0h0zm-.382-.868c-.014-.017-.012-.015 0 0h0zm-1.683.677c-.022-.035-.025-.041 0 0h0zm.399.338c.095.032.057.025 0 0h0zm.178.085l.04-.018c-.01.001-.02-.001-.028-.006h.001l.031.004.006-.003-.018-.004c.196-.078.076-.038-.028-.006l-.007-.002c-.064-.033-.134-.055-.205-.066-.007-.004-.015-.006-.02-.01-.058-.041-.348-.268-.079-.03l-.171-.159c-.033-.033-.062-.069-.089-.108l-.102-.183-.005-.034-.012-.055.008-.054c.02-.054.032-.11.038-.167l.011-.015c.043-.06.081-.13.122-.193-.217.33.085-.036.108-.083.007-.014.005-.01.015-.017l.2-.121c.081-.046.402-.137.069-.041l.225-.069c.014-.004.126-.02.186-.03l.11-.003c.025 0 .05.003.075.004-.055.008.19.06.262.072l.03.024c.062.044.137.084.201.126-.29-.187.004.015.06.071l.095.103c.028.033.054.069.077.106l.148.261.014.022c.025.148.064.284.114.416.003.012.005.023.006.034l.011.229-.001.015a1.65 1.65 0 0 0-.747-.186c-.261-.002-.518.059-.751.176h0z"/><path d="M468.171 240.905l-.004.002.008-.002h-.004z"/><path d="M468.177 240.902l.002.001-.002-.001z"/><path d="M468.18 240.903h0z"/><path d="M468.179 240.905h-.004z"/></g><path d="M452.003 286.733l-46.497 2.585a1.03 1.03 0 0 1-1.076-.913 1.03 1.03 0 0 1 .204-.732c.159-.209.392-.349.651-.391l47.524-7.733-.806 7.184z" class="G"/><path d="M511.094 390.249l17.522-29.478 12.95 6.117-23.026 28.673c.304 1.355.19 2.77-.327 4.059a6.86 6.86 0 0 1-2.571 3.157c-1.156.768-2.519 1.167-3.907 1.144a6.87 6.87 0 0 1-3.868-1.274c-1.13-.807-1.989-1.937-2.463-3.242s-.54-2.724-.19-4.067 1.099-2.55 2.149-3.459a6.86 6.86 0 0 1 3.731-1.63h0z" class="B"/><path d="M518.382 321.774l28.388 14.81c1.774 1.278 3.262 2.913 4.368 4.798s1.808 3.982 2.058 6.154.045 4.373-.603 6.461a15.72 15.72 0 0 1-3.163 5.666l-19.57 22.449-8.525-11.552 6.571-13.74-12.724-3.355 3.2-31.691z" class="C"/><path d="M437.486 287.215l-3.198 34.143-14.322.024 8.516-35.775a6.85 6.85 0 0 1-1.444-3.807c-.085-1.386.253-2.765.969-3.955a6.86 6.86 0 0 1 3.041-2.708c1.264-.574 2.673-.75 4.04-.506a6.85 6.85 0 0 1 3.614 1.874c.988.976 1.656 2.229 1.916 3.593s.099 2.774-.46 4.045-1.491 2.342-2.672 3.072h0z" class="B"/><path d="M465.995 357.037l-32.965-6.046c-13.881-1.669-19.578-10.803-17.073-19.711l8.06-28.671 12.655 6.785-.049 15.23 17.713-2.422 11.659 34.835z" class="C"/><path d="M452.501 592.992h-9.064l-4.312-34.962h13.378l-.002 34.962z" class="B"/><path d="M452.821 602.448l-27.874-.001v-.352a10.85 10.85 0 0 1 10.849-10.849h.001l5.091-3.863 9.5 3.863h2.433v11.202z" class="D"/><path d="M516.636 592.992h9.064l4.312-34.962h-13.378l.002 34.962z" class="B"/><path d="M516.317 602.448l27.873-.001v-.352a10.85 10.85 0 0 0-10.849-10.849h-.001l-5.091-3.863-9.5 3.863h-2.433l.001 11.202z" class="D"/><path d="M438.726 532.338c.134-1.995 1.199-13.028 1.199-13.028l2.549-23.397 4.493-62.022 4.006-16.302 19.825 7.723 16.087-7.712 19.121 6.112 14.889 5.584s.025 2.39.14 5.277c.153 3.78.421 8.413 1.058 9.618 1.065 2.129.797 13.557.797 13.557s1.058 23.251 2.39 25.8 1.6 7.859 1.198 8.923 1.332 28.987 1.332 28.987 4.45 49.413 1.658 56.864-13.341 2.57-13.341 2.57.51-1.988-2.549-2.925-12.378-71.002-12.378-71.002-1.733-14.367-3.327-18.484-3.059-15.685-3.059-15.685-9.841-19.147-9.968-23.404c0 0-1.288-3.984-2.505.401s-4.806 14.889-4.806 14.889l-3.499 12.9-4.117 19.274-2.664 16.227s-3.99 21.537-4.628 22.467 0 20.606 0 20.606-3.084 16.756-7.444 19.682-15.91.046-15.91.046l-.547-43.546z" fill="#36a2eb"/><path d="M453.547 365.132l-2.533 32.818-3.806 3.939c-.343.356-.611.776-.788 1.237a3.67 3.67 0 0 0-.241 1.447c.018.494.136.979.345 1.426a3.67 3.67 0 0 0 .876 1.176h0l-2.097 3.596-.742 11.33c-.212.882-.227 1.799-.043 2.687s.562 1.724 1.106 2.449 1.242 1.321 2.043 1.745 1.687.667 2.593.709l65.632 3.084c.9.042 1.799-.114 2.633-.457a6.14 6.14 0 0 0 2.191-1.53 6.15 6.15 0 0 0 1.338-2.313c.271-.86.35-1.769.231-2.663l-5.581-42.014v-3.141l-2.498-6.067 1.284-20.324 2.987-32.259-17.362-4.485-9.414-6.477-16.355.261-9.924 8.15-13.231 2.072-10.007 1.989-1.275 2.771 2.55-.554 9.24 36.041.848 3.357z" class="C"/><path d="M483.158 306.648a19.27 19.27 0 0 0 19.266-19.266 19.27 19.27 0 0 0-19.266-19.266 19.27 19.27 0 0 0-19.266 19.266 19.27 19.27 0 0 0 19.266 19.266z" class="B"/><path d="M478.513 305.405l13.919-.71c1.784-.091 3.731-.248 5.028-1.476a7.63 7.63 0 0 0 1.578-2.621l3.828-8.982c1.734-4.154 3.438-8.539 2.995-13.019-.104-2.046-.962-3.981-2.409-5.431-.738-.699-1.687-1.134-2.698-1.236a4.6 4.6 0 0 0-2.892.669c-.214-1.416-.748-2.766-1.561-3.946s-1.883-2.16-3.131-2.866a14.49 14.49 0 0 0-8.262-1.752 19.94 19.94 0 0 0-11.356 4.476c-.907.837-1.875 1.604-2.897 2.296a4.55 4.55 0 0 1-1.701.691c-.608.113-1.232.1-1.835-.037-.597-.16-1.116-.53-1.462-1.043a2.56 2.56 0 0 1-.417-1.746c-.98.733-1.652 1.805-1.885 3.006s-.01 2.448.626 3.494a4.55 4.55 0 0 1-2.289.321c-.778-.092-1.519-.384-2.151-.847-.677.336-1.277.81-1.76 1.391a5.43 5.43 0 0 0-1.047 1.984 5.42 5.42 0 0 0-.157 2.237c.105.749.364 1.468.762 2.11a5.44 5.44 0 0 0 3.623 2.478 5.42 5.42 0 0 0 2.243-.055c.735-.174 1.426-.5 2.029-.956.845 1.183.53 2.791.42 4.241s.279 3.251 1.676 3.652c1.89.542 3.42-2.002 5.385-1.975a2.96 2.96 0 0 1 1.362.461c.409.264.746.624.982 1.049.463.854.781 1.78.939 2.739l2.515 11.324" class="D"/><path d="M1021.26 478.637c0-2.984-1-5.405-2.23-5.41H683.68c-1.235.005-2.232 2.426-2.237 5.41v122.809c0 .277-.103.544-.289.749a1.11 1.11 0 0 1-.718.361l-2.7.241c-.022 0-.045.006-.067.006l-1.469.117h-.006l-.747-1.41c-.083-.16-.127-.337-.127-.517V471.618l.089-2.471c.08-1.124.219-2.242.418-3.351.94-5.171 3.067-8.672 5.482-8.683h340.081c.35.003.7.076 1.02.217a3.97 3.97 0 0 1 1.27.885c.49.508.9 1.079 1.24 1.698 1.39 2.762 2.18 5.781 2.34 8.866 0 .034.01.067.01.101a27.64 27.64 0 0 1 .11 2.738l.08 11.928.05 7.113.15 22.32.05 7.926.25 81.375c0 .295-.12.578-.33.787a1.11 1.11 0 0 1-.78.326h-4.48c-.29 0-.58-.118-.79-.326s-.32-.492-.32-.787V478.637z" class="E"/><path d="M930.133 401.3h-36.134a1.93 1.93 0 0 0-1.925 1.93v57.081h39.989V403.23a1.93 1.93 0 0 0-.146-.739c-.097-.234-.24-.447-.419-.626a1.93 1.93 0 0 0-1.365-.565h0zm-17.945 32.433a4.29 4.29 0 0 1-3.011-1.256 4.28 4.28 0 0 1-1.256-3.011v-6.584c0-1.132.449-2.217 1.25-3.017s1.885-1.25 3.017-1.25a4.27 4.27 0 0 1 3.017 1.25c.8.8 1.25 1.885 1.25 3.017v6.584a4.29 4.29 0 0 1-4.267 4.267z" fill="#ccc"/><path d="M891.95 458.485v5.507a1.08 1.08 0 0 0 1.077 1.077h38.084c.285-.001.558-.115.759-.317a1.08 1.08 0 0 0 .317-.76v-5.507H891.95z" class="G"/><path d="M989.968 312.219H835.509c-1.327.002-2.599.53-3.537 1.468a5.01 5.01 0 0 0-1.469 3.538v104.229c.001 1.327.529 2.6 1.468 3.538s2.211 1.467 3.538 1.468h154.459c1.327-.001 2.6-.529 3.538-1.468s1.467-2.211 1.468-3.538V317.225a5.01 5.01 0 0 0-1.469-3.538c-.938-.938-2.21-1.466-3.537-1.468h0z" class="E"/><path d="M988.679 315.834H836.8c-.711.002-1.392.285-1.894.788a2.69 2.69 0 0 0-.784 1.895v101.646c.002.71.284 1.39.786 1.892a2.68 2.68 0 0 0 1.892.785h151.879a2.68 2.68 0 0 0 2.677-2.677V318.517c0-.71-.282-1.392-.784-1.895s-1.183-.786-1.893-.788h0z" fill="#fff"/><path d="M959.095 466.985h-90.36c-.247 0-.491-.055-.714-.161s-.421-.261-.576-.454a1.66 1.66 0 0 1-.325-.656c-.058-.241-.062-.491-.011-.733l1.402-6.659c.08-.373.285-.707.58-.947a1.67 1.67 0 0 1 1.046-.373h87.556a1.67 1.67 0 0 1 1.627 1.32l1.402 6.659c.051.242.047.492-.011.733a1.66 1.66 0 0 1-.325.656c-.156.193-.353.347-.576.454a1.67 1.67 0 0 1-.715.161h0z" fill="#ccc"/><g class="E"><use xlink:href="#F"/><use xlink:href="#F" x="5.566"/><use xlink:href="#F" x="11.132"/><use xlink:href="#F" x="16.698"/><use xlink:href="#F" x="22.264"/><use xlink:href="#F" x="27.83"/><use xlink:href="#F" x="33.396"/><use xlink:href="#F" x="38.962"/><use xlink:href="#F" x="44.528"/><use xlink:href="#F" x="50.094"/><use xlink:href="#F" x="55.66"/><use xlink:href="#G"/><use xlink:href="#G" x="5.566"/><use xlink:href="#G" x="11.132"/><use xlink:href="#G" x="16.698"/><use xlink:href="#G" x="22.264"/><use xlink:href="#F" x="-0.066" y="2.783"/><use xlink:href="#F" x="5.5" y="2.783"/><use xlink:href="#F" x="11.066" y="2.783"/><use xlink:href="#F" x="16.632" y="2.783"/><use xlink:href="#F" x="22.198" y="2.783"/><use xlink:href="#F" x="27.764" y="2.783"/><use xlink:href="#F" x="33.33" y="2.783"/><use xlink:href="#F" x="38.896" y="2.783"/><use xlink:href="#F" x="44.462" y="2.783"/><use xlink:href="#F" x="50.028" y="2.783"/><use xlink:href="#F" x="55.594" y="2.783"/><use xlink:href="#F" x="61.16" y="2.783"/><use xlink:href="#F" x="66.726" y="2.783"/><use xlink:href="#F" x="72.292" y="2.783"/><use xlink:href="#F" x="77.858" y="2.783"/><use xlink:href="#F" x="83.424" y="2.783"/><path d="M919.206 464.324h-21.288c-.27 0-.488.218-.488.488v.693c0 .27.218.488.488.488h21.288a.49.49 0 0 0 .488-.488v-.693a.49.49 0 0 0-.488-.488z"/></g><path d="M981.044 329.839H838.931a.56.56 0 0 1-.391-.17c-.104-.106-.161-.248-.161-.395s.057-.29.161-.396.244-.166.391-.169h142.113c.148.003.288.064.391.169s.162.248.162.396-.058.289-.162.395a.56.56 0 0 1-.391.17h0z" fill="#cacaca"/><g fill="#ccc"><use xlink:href="#H"/><path d="M860.047 325.823c1.829 0 3.312-1.516 3.312-3.386s-1.483-3.386-3.312-3.386-3.312 1.516-3.312 3.386 1.482 3.386 3.312 3.386z"/><use xlink:href="#H" x="22.883"/><use xlink:href="#I"/><use xlink:href="#I" y="2.31"/><use xlink:href="#I" y="4.617"/></g><path d="M921.462 360.629h-17.758c-1.334 0-2.415 1.081-2.415 2.415s1.081 2.415 2.415 2.415h17.758c1.334 0 2.415-1.081 2.415-2.415s-1.081-2.415-2.415-2.415z" class="H"/><g class="E"><use xlink:href="#J"/><use xlink:href="#J" y="9.66"/></g><path d="M658.726 530.447l-8.186-3.916 11.245-34.217 12.082 5.778-15.141 32.355zm54.882-5.517l-1.792 1.107-3.613 2.164-1.828 1.059v.018l-.037.006-.012.006-.926.228-1.328-3.511-.614-1.618-.866-2.291-1.587-4.191-8.358-22.068 12.994-3.205.487 1.99h.006l.241.986 4.539 18.413.926 3.764.031.114.559 2.249.481 1.948.535 2.177.162.655z" class="B"/><g class="D"><path d="M791.124 447.432l-2.513 3.945-4.853 7.18a17.01 17.01 0 0 1-3.199 2.339c-.048.036-.102.06-.15.09a11.73 11.73 0 0 1-2.682 1.076l-1.016.253-3.614.751-6.326.818-.505.042c-8.605.632-16.981-.385-25.724-2.05-4.317-.818-8.725-1.798-13.289-2.814l-4.504-.999-.354-.078-6.621-1.407-8.809-1.683.217 4.287c.18 3.298.865 6.549 2.032 9.639 1.299 3.8 2.327 6.807.156 13.066l-1.046 3.031a10.35 10.35 0 0 1 .544 4.704c-.185 1.589-.735 3.114-1.608 4.454l-.211.319 8.725 22.074.566 1.431h-4.468l-5.496.006h-9.314l-13.44-26.963-.643-1.287v-.066l1.389-51.815a15.21 15.21 0 0 1 .114-1.377 15.74 15.74 0 0 1 1.931-5.906c1.029-1.821 2.411-3.419 4.064-4.701 1.585-1.238 3.399-2.149 5.339-2.68a15.17 15.17 0 0 1 5.96-.41l4.6.595 9.398 1.214 6.621.86.132.018 19.524 2.526 1.401-5.713.259-.096 8.22-3.012 28.43-10.421.072-.024 1.87-.686.222.361.193.325c1.848 3.314 3.353 6.807 4.492 10.427 1.914 5.912 3.49 11.929 4.72 18.021l.144.721.018.067a2.54 2.54 0 0 0 .036.186c.564 3.153.216 6.401-1.004 9.362h0z"/><path d="M792.324 428.337l-.324-1.154c-.955-2.87-2.067-5.684-3.332-8.431-1.419-3.127-3.121-6.476-5.147-10.102l-3.163-5.478-1.762-2.904c-.023-.045-.05-.09-.078-.132l-.174-.289-28.129 3.764-10.475 1.401-.626 5.22-.15 1.293-.421 3.529v.006l-.559 4.654-.048-.006-15.544-2.014-16.019-2.075-8.605-1.112c-1.994-.26-4.02-.12-5.959.41a15.16 15.16 0 0 0-5.339 2.681c-1.653 1.282-3.035 2.88-4.064 4.701s-1.686 3.828-1.931 5.906a15.15 15.15 0 0 0-.108 1.281l-8.118 19.236c-4.858 11.504-7.951 23.675-9.176 36.102l-5.953 19.032.848.078 12.615 1.172 3.331.313 7.336-10.709a56.7 56.7 0 0 0 2.37-3.765c1.217-2.101 2.3-4.278 3.241-6.518l15.868-37.762 3.644.601c5.562.902 10.902 1.638 16.019 2.207 16.638 1.858 31.046 2.003 43.871.427 3.602-.439 7.084-1.016 10.445-1.732 1.233-.258 2.45-.537 3.65-.835l.836-.205a15.35 15.35 0 0 0 6.645-3.647 15.34 15.34 0 0 0 4.088-6.383 15.65 15.65 0 0 0 .397-8.761h0zm-130.983 96.522l-8.857-4.245-1.389-.668-2.219 5.448-15.49 3.41c-.766.168-1.458.576-1.975 1.165s-.832 1.329-.9 2.11a3.67 3.67 0 0 0 .527 2.232c.409.669 1.021 1.19 1.747 1.486l15.135 6.175 4.804-4.323-1.178 5.803 5.7 2.327 6.248-19.886-2.153-1.034zm54.433-8.39l.566 1.431h-.566v-1.431zm-3.085 1.737l-9.28 3.215-1.457.503 2.257 5.433-8.608 13.321c-.426.658-.631 1.435-.584 2.218a3.68 3.68 0 0 0 .846 2.132 3.67 3.67 0 0 0 1.944 1.216c.762.188 1.563.127 2.287-.174l15.1-6.261.372-6.452 3.245 4.952 5.688-2.357-9.552-18.526-2.258.78z"/></g><path d="M656.36 319.249a6.59 6.59 0 0 0 1.824 2.198c.761.591 1.643 1.008 2.583 1.221a6.59 6.59 0 0 0 5.45-1.184l19.516 12.955.037-12.173-18.538-10.436c-1.066-1.223-2.544-2.013-4.153-2.219a6.63 6.63 0 0 0-4.578 1.099c-1.34.915-2.299 2.289-2.693 3.863s-.198 3.237.552 4.676h0z" class="B"/><g class="H"><path d="M670.94 324.875l9.105-10.358 37.074 22.009 49.146-4.501a16.63 16.63 0 0 1 7.171.923c2.294.831 4.377 2.156 6.101 3.881a16.62 16.62 0 0 1 3.875 6.105c.828 2.295 1.141 4.743.916 7.172h0c-.411 4.387-2.545 8.432-5.935 11.247s-7.757 4.171-12.145 3.769l-55.35-5.123-39.958-35.124z"/><path d="M785.006 325.035l-.085-.107c-6.914-.682-13.877.656-20.046 3.852a35.9 35.9 0 0 0-14.706 14.154l-4.171 7.347c-13.491 16.494-3.688 27.868-3.101 29.559l-4.683 21.592 1.05 7.226.524 2.146 53.454 27.931c3.043-14.622.101-27.083-10.987-36.601l10.728-33.378c2.378-7.381 2.895-15.234 1.503-22.863a47.03 47.03 0 0 0-9.48-20.858h0zm-42.503 162.157h-17.146a3.92 3.92 0 0 1-2.566-.96c-.712-.619-1.177-1.473-1.309-2.407-1.059-7.791-1.059-15.689 0-23.48.131-.922.586-1.768 1.285-2.385s1.593-.965 2.525-.981c5.394-2.418 11.204-2.418 17.27-.001a3.89 3.89 0 0 1 2.947 1.421c.372.455.639.988.781 1.559a3.96 3.96 0 0 1 .036 1.743 52.72 52.72 0 0 0 0 20.768c.117.577.105 1.172-.036 1.743a3.97 3.97 0 0 1-.781 1.559c-.364.445-.823.804-1.343 1.049a3.87 3.87 0 0 1-1.663.372h0z"/></g><g fill="#fff"><path d="M740.708 465.93h-14.432c-.119.001-.237-.021-.347-.066a.9.9 0 0 1-.296-.195c-.084-.084-.151-.184-.197-.294a.9.9 0 0 1 0-.694.91.91 0 0 1 .197-.293.9.9 0 0 1 .296-.195c.11-.045.228-.068.347-.067h14.432c.119-.001.237.022.347.067a.9.9 0 0 1 .296.195c.084.084.152.183.197.293a.9.9 0 0 1-.493 1.183c-.11.045-.228.067-.347.066zm0 7.216h-14.432c-.119.001-.237-.022-.347-.066a.92.92 0 0 1-.296-.195c-.084-.084-.151-.184-.197-.294a.9.9 0 0 1 0-.694c.046-.11.113-.21.197-.294a.92.92 0 0 1 .296-.195c.11-.044.228-.067.347-.066h14.432c.119-.001.237.022.347.066a.92.92 0 0 1 .296.195.9.9 0 0 1 0 1.282.92.92 0 0 1-.296.195c-.11.044-.228.067-.347.066z"/><use xlink:href="#K"/></g><path d="M659.503 325.192h-17.146a3.92 3.92 0 0 1-2.566-.96c-.712-.619-1.177-1.473-1.309-2.407-1.059-7.791-1.059-15.689 0-23.48.131-.922.586-1.768 1.285-2.385s1.593-.965 2.525-.981c5.394-2.418 11.204-2.418 17.27-.001a3.89 3.89 0 0 1 2.947 1.421c.372.455.639.988.781 1.559s.153 1.166.036 1.743a52.72 52.72 0 0 0 0 20.768c.117.577.105 1.172-.036 1.743s-.409 1.104-.781 1.559c-.364.445-.823.803-1.343 1.049a3.87 3.87 0 0 1-1.663.372z" class="F"/><g fill="#fff"><path d="M657.708 303.93h-14.432c-.119.001-.237-.021-.347-.066a.9.9 0 0 1-.296-.195c-.084-.084-.151-.184-.197-.294a.9.9 0 0 1 0-.694.91.91 0 0 1 .197-.293.9.9 0 0 1 .296-.195c.11-.045.228-.068.347-.067h14.432c.119-.001.237.022.347.067a.9.9 0 0 1 .296.195c.084.084.152.183.197.293a.9.9 0 0 1-.493 1.183c-.11.045-.228.067-.347.066h0zm0 7.216h-14.432c-.119.001-.237-.022-.347-.066a.92.92 0 0 1-.296-.195c-.084-.084-.151-.184-.197-.294a.9.9 0 0 1 0-.694c.046-.11.113-.21.197-.294a.9.9 0 0 1 .296-.195c.11-.044.228-.067.347-.066h14.432c.119-.001.237.022.347.066a.9.9 0 0 1 .493 1.183.9.9 0 0 1-.197.294.92.92 0 0 1-.296.195c-.11.044-.228.067-.347.066h0z"/><use xlink:href="#K" x="-83" y="-162"/></g><path d="M358.504 369.192h-17.147a3.92 3.92 0 0 1-2.566-.96c-.712-.619-1.177-1.473-1.309-2.407-1.059-7.791-1.059-15.689 0-23.48.131-.922.586-1.768 1.285-2.385s1.593-.965 2.525-.981c5.394-2.418 11.204-2.418 17.27-.001a3.89 3.89 0 0 1 2.947 1.421c.372.455.639.988.781 1.559s.153 1.166.036 1.743a52.72 52.72 0 0 0 0 20.768c.117.577.105 1.172-.036 1.743s-.409 1.104-.781 1.559c-.364.445-.823.803-1.343 1.049a3.87 3.87 0 0 1-1.662.372h0z" fill="#87e4a3" fill-opacity=".83"/><g fill="#fff"><path d="M356.708 347.93h-14.432c-.119.001-.237-.021-.347-.066a.9.9 0 0 1-.296-.195c-.084-.084-.151-.184-.197-.294a.9.9 0 0 1 0-.694.91.91 0 0 1 .197-.293.9.9 0 0 1 .296-.195c.11-.045.228-.068.347-.067h14.432c.119-.001.237.022.347.067a.9.9 0 0 1 .296.195.91.91 0 0 1 .197.293.9.9 0 0 1 0 .694c-.046.11-.113.21-.197.294a.9.9 0 0 1-.296.195c-.11.045-.228.067-.347.066h0zm0 7.216h-14.432c-.119.001-.237-.022-.347-.066a.92.92 0 0 1-.296-.195c-.084-.084-.151-.184-.197-.294a.9.9 0 0 1 0-.694c.046-.11.113-.21.197-.294a.9.9 0 0 1 .296-.195c.11-.044.228-.067.347-.066h14.432c.119-.001.237.022.347.066a.9.9 0 0 1 .296.195c.084.084.151.184.197.294a.9.9 0 0 1 0 .694c-.046.11-.113.21-.197.294a.92.92 0 0 1-.296.195c-.11.044-.228.067-.347.066z"/><use xlink:href="#K" x="-384" y="-118"/></g><path d="M747.527 465.274c.83-.49 1.542-1.156 2.087-1.951s.907-1.7 1.064-2.651a6.59 6.59 0 0 0-.156-2.852 6.6 6.6 0 0 0-1.349-2.519l11.775-20.249-12.153.685-9.319 19.124a6.63 6.63 0 0 0-1.968 4.277 6.62 6.62 0 0 0 5.384 6.964c1.595.301 3.244.006 4.635-.828h0z" class="B"/><path d="M752.279 450.386l-10.881-8.475 19.771-38.314-7.408-48.792a16.62 16.62 0 0 1 .496-7.214c.693-2.339 1.892-4.497 3.512-6.32s3.623-3.268 5.864-4.231a16.63 16.63 0 0 1 7.105-1.34h0a16.64 16.64 0 0 1 16.063 17.157l-1.831 55.557-32.691 41.972z" class="H"/><path d="M226.385 439.918c.686-.689 1.212-1.52 1.541-2.434a6.64 6.64 0 0 0 .367-2.856c-.088-.968-.388-1.905-.877-2.744s-1.156-1.562-1.955-2.115l10.582-52.561-11.686 3.752-8.47 50.839c-.841 1.403-1.139 3.066-.836 4.674s1.185 3.048 2.479 4.049a6.68 6.68 0 0 0 8.855-.604h0z" class="C"/><path d="M242.01 328.714l-7.25-5.473s-6.396-.453-7.529 11.082l-3.459 34.013-11.095 51.387 15.358 3.371 11.884-55.455 7.128-16.468-5.037-22.457z" class="F"/><path d="M230.057 412.623l40.857-.681 3.405-27.919h-44.262v28.6zm36.771 171.804h9.432l4.487-36.381-13.921.001.002 36.38zm-59.09.874l9.432-.067 4.232-36.411-12.267 2.814-1.397 33.664z" class="C"/><path d="M237.238 359.98l-2.137 5.556.427 5.557 41.827 14.487-2.075-24.318-4.702-5.557-33.34 4.275z" class="B"/><path d="M255.182 309.975a14.94 14.94 0 0 0 14.939-14.939 14.94 14.94 0 0 0-14.939-14.938c-8.25 0-14.939 6.688-14.939 14.938s6.689 14.939 14.939 14.939z" class="C"/><path d="M264.489 579.774l14.91-.89v6.389l14.175 9.79c.7.483 1.228 1.178 1.505 1.982a3.99 3.99 0 0 1 .038 2.489c-.254.812-.76 1.522-1.445 2.026a3.99 3.99 0 0 1-2.365.777h-17.751l-3.06-6.319-1.195 6.319h-6.692l1.88-22.563zm-59.978.896l14.904-.994.045 6.388 14.243 9.69a3.99 3.99 0 0 1-2.216 7.29l-17.751.124-3.104-6.297-1.15 6.327-6.693.047 1.722-22.575zm.292-23.263l6.868-54.898 8.172-57.881c-5.985-11.113 7.49-45.624 7.49-45.624l1.902.092 43.05 8.121-.009-.041c8.805 24.016 11.722 35.88 11.24 61.454l-1.735 91.935h.544c.903 0 1.769.359 2.408.998a3.4 3.4 0 0 1 .997 2.407 3.41 3.41 0 0 1-3.405 3.405h-17.024a3.39 3.39 0 0 1-1.304-.258c-.414-.17-.79-.421-1.107-.737a3.41 3.41 0 0 1-.74-1.105c-.171-.414-.259-.857-.259-1.305a3.41 3.41 0 0 1 .259-1.304 3.4 3.4 0 0 1 1.847-1.843 3.41 3.41 0 0 1 1.304-.258h.439l-15.625-109.467-13.249 45.963-14.981 59.924c5.448-1.362 4.602 1.793 4.602 3.58 0 .903-.359 1.77-.997 2.408s-1.505.997-2.408.997h-17.023a3.4 3.4 0 0 1-2.17-.779c-.61-.504-1.026-1.205-1.174-1.983a3.4 3.4 0 0 1 2.088-3.801h0z" class="D"/><path d="M223.981 400.792l1.362-13.619c.141-.556.455-1.052.896-1.419s.987-.583 1.559-.62l3.097-35.697.006-.051 1.086-23.192c.039-.842.387-1.64.978-2.242a3.43 3.43 0 0 1 2.224-1.02l5.734-.375c.079-.002.153-.036.208-.092s.085-.132.085-.211c0-.633.125-1.26.367-1.845s.598-1.117 1.045-1.565.98-.803 1.565-1.045 1.212-.367 1.845-.367h16.977a4.51 4.51 0 0 1 2.986 1.13c.824.727 1.355 1.731 1.492 2.822a.3.3 0 0 0 .305.27h.002a8.06 8.06 0 0 1 8.114 6.69c2.321 13.504 6.972 44.152 4.672 61.191-.8 5.932.925 1.234 1.228 6.197a3.66 3.66 0 0 1-.191 1.415c-.156.454-.4.874-.718 1.234a2.63 2.63 0 0 1 1.585 3.347l.298-.074a2.72 2.72 0 0 1-.455.96 2.74 2.74 0 0 1-.789.713 2.73 2.73 0 0 1-1.001.356c-.354.052-.715.034-1.062-.053l-44.415 6.018c-1.459-.368-11.453-7.397-11.085-8.856z" class="F"/><path d="M342.666 345.42a6.65 6.65 0 0 1-1.404 2.515c-.646.726-1.443 1.301-2.335 1.686a6.66 6.66 0 0 1-2.83.539 6.63 6.63 0 0 1-2.791-.709l-17.171 15.671-2.28-12.06 16.666-12.993a6.68 6.68 0 0 1 3.708-2.965c1.557-.501 3.244-.413 4.741.246s2.7 1.846 3.381 3.333.793 3.173.315 4.737h0z" class="C"/><path d="M282.901 333.442s-5.987-13.531-13.549-10.841-3.658 15.818-3.658 15.818l28.411 42.811s40.979-26.287 35.996-26.473-6.473-9.249-6.473-9.249l-21.659 10.822-.732-3.853-1.175 1.175-3.031-2.386-14.13-17.824z" class="F"/><path d="M772.683 318.578a20.86 20.86 0 0 0 20.857-20.857 20.86 20.86 0 0 0-20.857-20.857 20.86 20.86 0 0 0-20.857 20.857 20.86 20.86 0 0 0 20.857 20.857z" class="B"/><path d="M839.619 328.412c-2.407 3.411-5.919 5.884-9.942 7-1.61.479-3.272.761-4.95.841a18.7 18.7 0 0 0-1.471-5.499 15.45 15.45 0 0 1-.764 5.486c-2.519-.143-4.982-.803-7.236-1.939-2.213-1.114-4.136-2.728-5.617-4.714a15.94 15.94 0 0 1-2.914-6.73c-.884-5.705 1.703-11.306 2.638-17.003s-.824-12.91-6.4-14.407c-4.246-1.141-3.77-.648-7.3 1.973 3.672 5.429-9.891 25.326-15.441 23.591-3.139-.981-5.148-3.861-5.795-3.861-4.362 7.515 3.852 20.177-4.427 22.807l.682-.682c4.997-6.147-5.447-19.156-.45-25.303 1.394-1.72 2.878-3.757 2.466-5.932-.39-2.067-3.671-3.161-4.632-1.463 1.728-3.959-.824-9.243-5.049-10.26-3.753-.905-3.684.211-7.45.695a18.69 18.69 0 0 0-1.368-4.722 15.33 15.33 0 0 1-.562 4.812 6.04 6.04 0 0 1-3.655-1.321c-3.071-2.475-2.449-7.673.292-10.509s6.824-3.856 10.714-4.516c1.131-7.876 22.86-8.697 25.74-.828 1.227-5.876 8.583-8.926 14.301-7.103s9.685 7.163 11.774 12.791 2.672 11.675 3.959 17.534 3.461 11.826 7.939 15.819 11.775 5.31 16.493 1.604c.686 1.959.901 4.051.627 6.108s-1.028 4.02-2.202 5.731z" class="D"/><path d="M1035.3 376.007l-2.92 14.65-.7 3.39c-2.45-.505-4.98-.364-7.34.41 1.87 2.686 3.56 5.503 5.04 8.43-1.84 5.67-4.54 10.91-9.06 14.7a22.75 22.75 0 0 1-10.47 4.807 22.73 22.73 0 0 1-11.485-.947l.13-.58c-4.86-9.43-2.22-21.32 3.825-30.03a58.36 58.36 0 0 1 10.85-11.47c4.08-3.4 8.49-6.45 12.86-9.46.98-.674 2.14-1.042 3.33-1.054a5.97 5.97 0 0 1 3.35.986c1 .655 1.77 1.592 2.23 2.69s.59 2.31.36 3.478h0z" fill="#87e4a3" fill-opacity=".83"/><path d="M999.405 456.697c-1.229-8.953-2.493-18.02-1.631-27.069.766-8.036 3.216-15.885 8.206-22.321 2.65-3.409 5.88-6.331 9.53-8.633.95-.6 1.83.909.88 1.507-6.32 3.995-11.21 9.894-13.96 16.847-3.042 7.732-3.53 16.161-3.002 24.374.317 4.967.992 9.9 1.662 14.83a.89.89 0 0 1-.61 1.074.87.87 0 0 1-.659-.084c-.202-.114-.349-.303-.412-.526l-.004.001z" class="G"/><path d="M1069.44 603.771L630.558 604c-.148-.001-.29-.094-.395-.26s-.163-.391-.163-.626a1.2 1.2 0 0 1 .163-.625c.105-.166.247-.26.395-.26L1069.44 602c.15.001.29.094.4.26a1.24 1.24 0 0 1 .16.626c0 .234-.06.459-.16.625-.11.166-.25.26-.4.26h0z" fill="#616161"/><g class="D"><path d="M237.6 285.889c-2.291 1.1-4.856-.554-6.834-2.193l.707.611c-3.496 3.401-5.13 8.295-5.929 13.112s-.888 9.733-1.895 14.511c-1.007 4.773-3.097 9.569-7 12.492-5.229 3.916-12.441 3.664-18.858 2.464l-.251-.048a39.17 39.17 0 0 0 2.064-15.531c-1.72 5.274-4.648 10.074-8.551 14.017-4.255-1.171-8.408-2.684-12.418-4.525-2.595-1.195-5.389-2.828-6.109-5.593-.722-2.744.954-5.623 3.196-7.356s4.994-2.637 7.548-3.871c2.549-1.229 5.073-2.981 6.093-5.626 2.355-6.084-4.353-13.065-1.739-19.046 1.29-2.941 4.447-4.54 7.415-5.774 4.531-1.877 9.183-3.447 13.926-4.697 4.163-1.098 8.51-1.951 12.751-1.231s8.396 3.299 9.922 7.327c2.547.86 5.251 1.831 6.886 3.974s1.502 5.821-.924 6.983z"/><path d="M257.986 278.839c-6.554-5.174-11.854-4.291-15.942-1.076-.687-.765-3.612 1.339-4.603 1.037l-3.581 6.724c-1.844 3.252-2.6 6.573-2.302 8.441-3.39 9.508 4.65 15.928 14.158 19.319 3.794 1.362 7.933 1.422 11.765.17l.117-1.62.72 1.328s8.692 17.897 10.746 18.701c-1.247-3.233-4.534-18.599-5.451-21.802-1.258-4.357-.399-11.281.341-15.526a24.07 24.07 0 0 0 .071-7.917l-.018-.115 2.033 4.106 4.563-2.869c-1.744-5.08-1.778-11.156-12.617-8.901z"/></g><defs><linearGradient id="A" x1="868.5" y1="99" x2="868.5" y2="758" gradientUnits="userSpaceOnUse"><stop stop-color="#ff6384"/><stop offset="1" stop-color="#ff9f40"/></linearGradient><linearGradient id="B" x1="767.5" y1="895" x2="154.5" y2="41" gradientUnits="userSpaceOnUse"><stop stop-color="#87e4a3"/><stop offset="1" stop-color="#36a2eb"/></linearGradient><path id="C" d="M466.488 133.823l18.731-1.394c1.914-.142 1.929-3.144 0-3l-18.731 1.394c-1.914.143-1.929 3.144 0 3z"/><path id="D" d="M179.038 129.789a6.64 6.64 0 0 0-6.133 4.005c-.578 1.171-.756 2.498-.508 3.78a5.97 5.97 0 0 0 1.882 3.316c.915.778 2.012 1.312 3.189 1.551a7.11 7.11 0 0 0 3.54-.184 6 6 0 0 0 4.023-5.643 6.7 6.7 0 0 0-1.068-3.894c-.747-1.157-1.833-2.056-3.11-2.575-.384-.104-.793-.052-1.138.144s-.6.521-.707.904a1.54 1.54 0 0 0 1.047 1.845c.262.101-.238-.128.006.005l.301.162.245.157c.28.183-.136-.134.043.03l.45.439c.053.059.262.225.1.109-.125-.088-.048-.067 0 .004l.11.16c.117.177.223.361.319.55l.064.133c.042.082.103.103.004.001s-.034-.092 0 .003l.068.185c.07.202.129.408.177.617l.058.291c.067.344-.009-.214.007.042l.025.639-.013.294-.012.147c-.015.235-.016-.086.017-.108a2.75 2.75 0 0 0-.135.617l-.089.276c-.104.322.098-.175-.013.045-.092.189-.194.372-.307.55-.049.074-.233.241-.082.125.163-.127-.086.091-.139.147l-.213.209a1.66 1.66 0 0 1-.149.129c-.009-.005.251-.173.111-.084l-.535.334-.261.127c-.01-.041.309-.112.09-.042l-.137.049c-.2.067-.403.121-.61.162l-.143.026c-.155.04.148-.023.157-.018a1.3 1.3 0 0 0-.341.03c-.213.012-.427.012-.639 0l-.148-.011c-.114-.006-.198-.089-.046.001.117.069.107.018.003-.001l-.146-.025c-.21-.04-.419-.091-.624-.153l-.327-.111c-.047-.014-.093-.032-.138-.053-.001-.012.281.134.132.054l-.564-.296-.286-.186a.83.83 0 0 1-.119-.085c.003-.012.233.2.112.085l-.459-.429-.097-.108-.032-.036c-.081-.1-.083-.099-.005.001.08.023.076.111.001-.003l-.083-.12c-.121-.173-.225-.359-.31-.553.008-.006.13.361.037.084l-.055-.156-.091-.315-.066-.319c-.044-.177.026.139.018.132-.025-.025-.014-.178-.016-.215-.012-.235.015-.464.019-.698.003-.181-.015.141-.019.132.001-.054.01-.108.028-.159l.086-.369.132-.414.058-.153c.063-.188-.125.228-.021.058l.4-.717.138-.206c-.115.153.119-.137.163-.187.184-.204.401-.373.591-.569.113-.116-.078.057-.09.065l.177-.127.32-.203.381-.202c.141-.091-.107.039-.112.042a1.11 1.11 0 0 1 .201-.077c.116-.041.621-.259.727-.191-.005-.003-.383.031-.077.011l.217-.015c.146-.006.292-.002.439.006a1.51 1.51 0 0 0 1.5-1.5c-.009-.396-.169-.772-.449-1.052a1.53 1.53 0 0 0-1.051-.448h0z"/><path id="E" d="M289.373 235.145c-.694-1.227-1.8-2.17-3.122-2.659s-2.776-.494-4.102-.014a5.25 5.25 0 0 0-1.776 1.089c-.513.478-.926 1.054-1.213 1.694-.057.136-.091.279-.138.419l-.201.31c-.622 1.239-.792 2.656-.481 4.007a5.95 5.95 0 0 0 2.183 3.394c1.1.843 2.46 1.276 3.845 1.224a5.96 5.96 0 0 0 3.744-1.507c1.087-.983 1.805-2.308 2.034-3.756s-.043-2.93-.773-4.201zm-3.758 2.548c.013.076.008.145 0 0h0zm-.382-.868c-.014-.017-.012-.015 0 0h0zm-1.683.677c-.022-.035-.025-.041 0 0h0zm.399.338c.095.032.057.025 0 0h0zm.178.085l.04-.018c-.01.001-.02-.001-.028-.006h.001l.031.004.006-.003-.018-.004c.196-.078.076-.038-.028-.006l-.007-.002c-.064-.033-.134-.055-.205-.066-.007-.004-.015-.006-.02-.01-.058-.041-.348-.268-.079-.03l-.171-.159c-.033-.033-.062-.069-.089-.108l-.102-.183-.005-.034-.012-.055.008-.054c.02-.054.032-.11.038-.167l.011-.015c.043-.06.081-.13.122-.193-.217.33.085-.036.108-.083.007-.014.005-.01.015-.017l.2-.121c.081-.046.402-.137.069-.041l.225-.069c.014-.004.126-.02.186-.03l.11-.003c.025 0 .05.003.075.004-.055.008.19.06.262.072l.03.024c.062.044.137.084.201.126-.29-.187.004.015.06.071l.095.103c.028.033.054.069.077.106l.148.261.014.022c.025.148.064.284.114.416.003.012.005.023.006.034l.011.229-.001.015a1.65 1.65 0 0 0-.747-.186c-.261-.002-.518.059-.751.176h0z"/><path id="F" d="M873.074 458.201h-1.807a.49.49 0 0 0-.488.488v.694a.49.49 0 0 0 .488.488h1.807a.49.49 0 0 0 .488-.488v-.694a.49.49 0 0 0-.488-.488z"/><path id="G" d="M934.299 458.201h-1.806a.49.49 0 0 0-.488.488v.694a.49.49 0 0 0 .488.488h1.806a.49.49 0 0 0 .489-.488v-.694a.49.49 0 0 0-.489-.488z"/><path id="H" d="M848.605 325.823c1.829 0 3.312-1.516 3.312-3.386s-1.483-3.386-3.312-3.386-3.312 1.516-3.312 3.386 1.483 3.386 3.312 3.386z"/><path id="I" d="M974.155 319.891h-8.127c-.161.003-.315.069-.428.184a.62.62 0 0 0 0 .862c.113.115.267.181.428.184h8.127a.61.61 0 0 0 .427-.184c.113-.115.176-.27.176-.431s-.063-.316-.176-.431a.61.61 0 0 0-.427-.184h0z"/><path id="J" d="M932.933 370.289h-40.701c-1.333 0-2.415 1.081-2.415 2.415s1.082 2.415 2.415 2.415h40.701c1.334 0 2.415-1.081 2.415-2.415s-1.081-2.415-2.415-2.415z"/><path id="K" d="M740.708 480.362h-14.432c-.119.001-.237-.022-.347-.067a.9.9 0 0 1-.494-.488.92.92 0 0 1-.069-.347.92.92 0 0 1 .069-.347.9.9 0 0 1 .494-.489c.11-.045.228-.067.347-.066h14.432c.119-.001.237.021.348.066a.91.91 0 0 1 .295.195.9.9 0 0 1 .267.641.9.9 0 0 1-.267.641c-.085.083-.185.15-.295.194s-.229.068-.348.067h0z"/></defs></svg>