<svg xmlns="http://www.w3.org/2000/svg" xmlns:xlink="http://www.w3.org/1999/xlink" fill="none" viewBox="0 74.86 682.71 526.14" xmlns:v="https://vecta.io/nano"><g fill-rule="evenodd"><path d="M44.003 121.331c.246-17.786 16.752-29.479 33.724-34.165 14.394-3.974 28.648 2.557 37.905 14.388 10.872 13.896 20.058 32.394 10.109 46.98-10.461 15.335-31.501 15.862-49.002 10.038-17.25-5.741-32.99-18.882-32.736-37.241z" fill="url(#B)"/><path d="M378.891 556.86c-6.824-12.206-.183-26.656 9.531-36.518 8.237-8.364 20.51-9.521 31.463-5.104 12.865 5.188 26.391 14.171 25.351 28.013-1.094 14.553-15.212 23.183-29.418 26.097-14.002 2.872-29.884.112-36.927-12.488z" fill="url(#C)"/><path d="M.221 359.499c2.774-64.105 36.01-124.089 90.31-160.433 50.108-33.54 112.637-25.139 172.642-15.57 67.561 10.774 151.363 11.686 180.702 71.919 29.276 60.101-27.75 121.324-57.375 181.263-29.64 59.968-44.914 135.723-109.731 156.83-69.47 22.623-145.603-8.889-200.896-55.677C23.42 493.447-2.704 427.106.221 359.499z" fill="url(#D)"/></g><path d="M638.203 162.276C577.888 82.32 456.72 52.858 340.614 92.166c-61.383 20.782-119.688 60.433-146.143 134.555-47.292 132.5 66.18 170.867 139.751 181.946 35.555 5.385 69.322 15.13 100.323 28.954 55.824 24.824 153.587 45.337 221.57-67.301 49.274-81.639 22.264-154.785-17.912-208.044z" fill="url(#E)"/><path fill-rule="evenodd" d="M430.864 451.406c-5.381 33.956 30.115 63.162 69.078 79.228 33.042 13.626 69.278 7.198 95.356-11.422 30.63-21.87 58.778-53.208 39.911-85.159-19.837-33.593-69.91-43.456-113.664-39.741-43.125 3.663-85.126 22.045-90.681 57.094z" fill="url(#F)"/><path d="M38.735 506.657h336.824a12.75 12.75 0 0 0 9.001-3.734c2.388-2.388 3.731-5.625 3.734-9.001V331.525c-.002-2.525-1.007-4.946-2.792-6.732s-4.207-2.79-6.732-2.793H35.677c-2.566.003-5.025 1.023-6.839 2.838s-2.834 4.273-2.837 6.839v162.245a12.75 12.75 0 0 0 12.735 12.735h0zM378.77 323.455a8.08 8.08 0 0 1 5.703 2.367c1.513 1.512 2.364 3.564 2.366 5.703v162.397a11.29 11.29 0 0 1-11.28 11.28H38.735c-2.99-.004-5.858-1.193-7.972-3.308s-3.304-4.982-3.307-7.972V331.677a8.23 8.23 0 0 1 2.411-5.811c1.541-1.541 3.631-2.408 5.811-2.411H378.77z" fill="#ccc"/><path d="M363.915 493.922H50.379c-3.088 0-6.05-1.227-8.233-3.411a11.64 11.64 0 0 1-3.41-8.233V346.52c0-3.088 1.227-6.049 3.41-8.233a11.64 11.64 0 0 1 8.233-3.41h313.536c3.088 0 6.05 1.226 8.234 3.41s3.41 5.145 3.41 8.233v135.758c0 3.088-1.227 6.05-3.41 8.233s-5.146 3.411-8.234 3.411z" fill="#f2f2f2"/><g fill="#ccc"><use xlink:href="#G"/><use xlink:href="#G" y="24.743"/><use xlink:href="#G" y="49.486"/><use xlink:href="#G" y="74.229"/><use xlink:href="#H"/><use xlink:href="#H" y="24.743"/><path d="M80.157 418.038h215.41a.73.73 0 0 0 .728-.728c0-.193-.077-.378-.213-.514s-.322-.213-.515-.213H80.157c-.193 0-.378.076-.515.213s-.213.321-.213.514a.73.73 0 0 0 .728.728z"/><use xlink:href="#H" y="74.229"/></g><path d="M254.814 467.524h21.104c.965-.001 1.89-.385 2.572-1.067s1.066-1.607 1.067-2.572v-19.648c-.001-.965-.385-1.89-1.067-2.572s-1.607-1.066-2.572-1.067h-21.104c-.965.001-1.889.385-2.572 1.067s-1.065 1.607-1.067 2.572v19.648c.002.965.385 1.89 1.067 2.572s1.607 1.066 2.572 1.067h0zm-47.303 0h21.104c.965-.001 1.89-.385 2.572-1.067s1.066-1.607 1.067-2.572v-44.392a3.64 3.64 0 0 0-1.067-2.571c-.682-.682-1.607-1.066-2.572-1.067h-21.104c-.965.001-1.889.385-2.572 1.067s-1.065 1.607-1.067 2.571v44.392c.002.965.385 1.89 1.067 2.572s1.607 1.066 2.572 1.067zm-48.03 0h21.104c.965-.001 1.89-.385 2.572-1.067s1.066-1.607 1.067-2.572V394.75a3.64 3.64 0 0 0-1.067-2.571c-.682-.682-1.607-1.066-2.572-1.067h-21.104c-.965.001-1.89.385-2.572 1.067a3.64 3.64 0 0 0-1.067 2.571v69.135c.001.965.385 1.89 1.067 2.572s1.607 1.066 2.572 1.067h0zm-49.486 0h21.104c.965-.001 1.89-.385 2.572-1.067s1.066-1.607 1.067-2.572v-93.15c-.001-.965-.385-1.889-1.067-2.572s-1.607-1.065-2.572-1.067h-21.104c-.965.002-1.89.385-2.572 1.067s-1.066 1.607-1.067 2.572v93.15c.001.965.385 1.89 1.067 2.572s1.607 1.066 2.572 1.067h0z" fill="#36a2eb"/><use xlink:href="#H" y="98.972" fill="#3f3d56"/><path d="M589.481 95.329H171c-11.046 0-20 8.955-20 20v236.437c0 11.046 8.954 20 20 20h418.481c11.046 0 20-8.954 20-20V115.329c0-11.045-8.954-20-20-20z" fill="#fff"/><path d="M171 95.829h418.481c10.77 0 19.5 8.731 19.5 19.5v236.437c0 10.77-8.73 19.5-19.5 19.5H171c-10.77 0-19.5-8.73-19.5-19.5V115.329c0-10.769 8.73-19.5 19.5-19.5z" stroke="#fff" stroke-opacity=".5"/><use xlink:href="#I" fill="#ff6384"/><path d="M173.127 110.281c1.798 0 3.255-1.472 3.255-3.287s-1.457-3.287-3.255-3.287-3.255 1.471-3.255 3.287 1.457 3.287 3.255 3.287z" fill="#ff9f40"/><use xlink:href="#I" x="16.636" fill="#4bc0c0"/><path d="M322.065 219.296H161.554v5.59h160.511v-5.59z" fill="#ff6384"/><g opacity=".3" fill="#979797"><use xlink:href="#J"/><path d="M598.431 136.97H342.317v1.017h256.114v-1.017z"/><use xlink:href="#J" y="20.327"/><use xlink:href="#J" y="30.49"/><path d="M598.431 167.459H342.317v1.017h256.114v-1.017z"/><use xlink:href="#J" y="50.816"/><use xlink:href="#J" y="60.979"/><use xlink:href="#J" y="71.142"/><use xlink:href="#J" y="81.306"/><path d="M598.431 218.275H342.317v1.017h256.114v-1.017z"/><use xlink:href="#J" y="101.632"/></g><path d="M369.363 212.69h-17.108v4.066h17.108v-4.066zm27.674-9.655h-17.108v4.066h17.108v-4.066zm27.675-20.326h-17.108v4.065h17.108v-4.065zm27.674 9.655h-17.108v4.066h17.108v-4.066zm27.674-19.818h-17.108v4.065h17.108v-4.065zm27.675 19.818h-17.108v4.066h17.108v-4.066zm27.674-29.981h-17.108v4.065h17.108v-4.065zm27.674-19.818h-17.108v4.065h17.108v-4.065zm27.675 10.163H573.65v4.065h17.108v-4.065z" fill="#ff6384"/><g opacity=".3" filter="url(#A)"><use xlink:href="#K" fill="#ff6384"/><use xlink:href="#K" stroke="#ccc"/></g><g fill="#ccc"><path d="M222.154 257.035a7.1 7.1 0 0 0-.456-1.764c-.029-.107-.08-.207-.149-.293a.79.79 0 0 0-.253-.207c-.131-.034-.267-.036-.399-.004l-2.047.316a.78.78 0 0 0-.467.183c-.267.283-.004.739-.012 1.13a1.06 1.06 0 0 1-.263.588 1.05 1.05 0 0 1-.552.326c-.428.087-.869.082-1.295-.016l-2.863-.449c.844-.272 1.594-.778 2.166-1.46.377-.451.577-1.292.033-1.505-.162-.045-.331-.059-.497-.041-1.297.01-2.318-1.083-3.532-1.544-.777-.276-1.621-.296-2.41-.058a3.9 3.9 0 0 0-1.985 1.381l1.525.075a.67.67 0 0 1 .406.109c.334.277-.081.81-.034 1.244.061.564.803.685 1.362.742s1.268.516.999 1.014c-2.81.978-5.67-1.911-8.621-1.555-.738.143-1.467.334-2.181.572-4.455 1.139-9.061-1.899-13.612-1.255a17.15 17.15 0 0 0-2.971.791 3.99 3.99 0 0 0-1.716.904c-.237.226-.387.53-.423.858a1.4 1.4 0 0 0 .228.931 9.86 9.86 0 0 1-3.494-.336c.307.173.563.426.74.732a2 2 0 0 1 .267 1.011c-1.835.302-3.621.852-5.311 1.635.315.53.684 1.025 1.099 1.479l-2.323 1.507c.19.062.363.165.507.304a1.35 1.35 0 0 1 .326.495c.07.188.098.39.081.59s-.078.393-.18.566c.814-.365 1.318-1.311 2.189-1.503a2.92 2.92 0 0 1 1.69.331 2.62 2.62 0 0 0 1.695.27c.56-.166.973-.899.617-1.366 2.393-.705 4.866-1.095 7.358-1.161.192-.024.387.013.557.107.325.227.239.718.222 1.116s.29.922.642.742c-.414.364-.06 1.047.338 1.429s.877.909.634 1.406c-.064.13-.172.233-.233.364-.18.386.106.837.444 1.093.371.206.705.473.988.791.235.355.128.977-.292 1.026l-1.194-1.531a3.14 3.14 0 0 0-.806 1.544 3.25 3.25 0 0 1 1.07 2.135 3.26 3.26 0 0 1-.674 2.295c-.601.586-1.267 1.101-1.984 1.534-.357.22-.66.52-.884.877s-.364.762-.409 1.182c.003 1.458-.115 2.812.426 4.164.998 2.492 2.15 4.919 3.449 7.265.341.617.782 1.292 1.473 1.398a86.08 86.08 0 0 1-2.359-6.542 1.46 1.46 0 0 1 .672.059c.216.071.413.191.576.352.16.345.242.721.243 1.102.087.363.233.709.431 1.024l4.17 7.503c.277.662.773 1.207 1.403 1.541a7.85 7.85 0 0 1 1.301.363c.304.181.51.504.82.675.879.484 2.101-.444 2.922.134a8.32 8.32 0 0 1 .6.617c.758.663 2.002.219 2.878.714.523.389.924.922 1.157 1.534.754 1.448 1.973 2.866 3.589 2.981.508-.021 1.016-.004 1.521.053.496.114.985.551.905 1.059-.136.869.289 1.822.175 2.695-.208 1.59-2.442 2.289-2.634 3.882a9.21 9.21 0 0 1-.058 1.05c-.101.418-.412.759-.523 1.174-.209.788.35 1.572.964 2.103s1.346.987 1.682 1.729c.355.784.181 1.699.296 2.553.252 1.865 1.847 3.248 3.489 4.14a3.65 3.65 0 0 1 1.361 1.005c.423.616.38 1.426.522 2.161.345 1.8 1.845 3.283 1.888 5.116.03 1.303-.687 2.485-1.115 3.714-.402 1.178-.547 2.429-.426 3.669a8.73 8.73 0 0 0 1.126 3.514 11.63 11.63 0 0 1 .931 1.654c.404 1.057.273 2.259.646 3.328.493 1.413 1.848 2.58 1.718 4.073.615 1.29 1.974 1.924 3.339 2.308l2.448.688a3.12 3.12 0 0 0 1.436.169c.241-.035.464-.152.631-.331a1.1 1.1 0 0 0 .29-.656c-1.22-.191-2.388-.634-3.429-1.303-.99-.738-1.668-2.054-1.292-3.238.174-.548.544-1.182.192-1.635-.202-.26-.57-.328-.798-.565a1.24 1.24 0 0 1-.217-.721c.004-.258.088-.508.239-.715a4.85 4.85 0 0 0 .727-1.347c.052-.282.017-.574-.1-.835a1.39 1.39 0 0 0-.553-.628c.454-.173.867-.441 1.212-.785a1.2 1.2 0 0 0 .319-.642c.038-.242.002-.49-.104-.71.744.095 1.623.142 2.112-.433a1.92 1.92 0 0 0 .311-.84c.037-.301.002-.606-.102-.891a7.42 7.42 0 0 1-.423-1.757c1.717.082 3.438.023 5.146-.176-.247-.84-.809-1.55-1.565-1.979.773-.132 1.478-1.067 1.722-1.82.208-.768.219-1.577.031-2.35a1.27 1.27 0 0 1-.023-.616c.124-.268.342-.481.612-.597l3.839-2.227c.229-.116.437-.27.614-.457.172-.262.274-.564.298-.877s-.032-.627-.162-.912a9.12 9.12 0 0 1-.615-1.768c-.237-1.858 1.733-3.192 2.398-4.941a7.49 7.49 0 0 0 .364-2.167c.055-.788.059-1.703-.54-2.211-.575-.487-1.472-.378-2.073-.831-.551-.415-.741-1.221-1.343-1.556-.546-.305-1.231-.111-1.839-.254-1.071-.252-1.744-1.498-2.837-1.614-.617-.065-1.315.24-1.82-.123-.446-.319-.464-.962-.548-1.507a4.22 4.22 0 0 0-1.153-2.237 4.15 4.15 0 0 0-2.211-1.171c-.636-.103-1.328-.064-1.869-.417-.548-.357-.799-1.026-1.229-1.521-.694-.798-1.786-1.081-2.809-1.324l-4.162-.988c-.739-.176-1.691-.269-2.087.385-.118.249-.201.513-.247.784-.149.492-.448.923-.854 1.232a2.4 2.4 0 0 1-1.408.488 2.68 2.68 0 0 0-1.577-1.233c-.432-.073-.858-.176-1.276-.307-.22-.108-.415-.26-.574-.447a1.81 1.81 0 0 1-.351-.639 1.83 1.83 0 0 1-.072-.728 1.82 1.82 0 0 1 .219-.697 2.27 2.27 0 0 0 .263-1.421 2.26 2.26 0 0 0-.645-1.29c-.377-.294-.808-.51-1.268-.636a3.6 3.6 0 0 0-1.412-.096c-.249-.548.167-1.166.615-1.564s.991-.789 1.089-1.383c.153-.935-1.028-1.646-1.925-1.367s-1.469 1.159-1.847 2.026c-.182.512-.433.997-.745 1.441a1.47 1.47 0 0 1-.626.495 1.45 1.45 0 0 1-.789.09c-.739-.19-1.024-1.076-1.187-1.828-.263-1-.395-2.029-.394-3.063.006-1.045.416-2.046 1.143-2.79 1.228-1.138 3.111-1.027 4.768-.845a1.23 1.23 0 0 1 .124-1.615c.221-.199.487-.34.774-.411s.587-.071.874.002c.5.105.949.376 1.277.771.471.579.605 1.362.961 2.02s1.156 1.219 1.811.866c.565-.305.655-1.097.514-1.729a6.54 6.54 0 0 1-.388-1.891c.097-1.232 1.361-1.973 2.477-2.481s2.393-1.189 2.57-2.412c.006-.239.051-.476.132-.701a1.36 1.36 0 0 1 .5-.474c3.256-2.174 6.566-4.373 10.288-5.561.193-.062.216.007.413-.041.277-.162.094-.607-.171-.787s-.619-.318-.686-.632c-.049-.232.086-.459.121-.693a.87.87 0 0 0-.075-.412.86.86 0 0 0-.636-.497c-.139-.023-.281-.012-.414.032-.299-.4.293-.864.771-.997a20.69 20.69 0 0 1 4.398-.726c.172-.028.348.003.501.086.109.107.174.251.181.404a.6.6 0 0 1-.141.421c-.204.227-.429.433-.673.617a1.86 1.86 0 0 0-.497.866c-.084.329-.077.675.021 1 .776.399 1.62.81 2.48.669s1.624-1.116 1.22-1.895c-.377-.726-1.508-.89-1.702-1.685-.228-.932 1.078-1.76.784-2.672-.129-.4-.523-.635-.826-.923-.357-.354-.6-.808-.697-1.304a2.53 2.53 0 0 1 .154-1.474c-.493.088-.999.055-1.477-.096a3.12 3.12 0 0 1-1.267-.771c-.657-.669-1.18-1.725-2.113-1.695-.855.028-1.592 1.036-2.392.728-.196-.075-.404-.229-.595-.139a.51.51 0 0 0-.153.16c-.038.064-.062.137-.068.212-.204.981.146 2.1-.384 2.948-.576.923-1.909 1.05-2.608 1.883-.379.451-.526 1.06-.875 1.536s-1.088.78-1.507.364a2.11 2.11 0 0 0 .159-1.375c-.102-.463-.357-.877-.723-1.175-.389-.256-.807-.462-1.247-.613a7.36 7.36 0 0 1-1.392-.783c-.218-.133-.395-.324-.511-.553-.092-.286-.08-.596.035-.873a3.57 3.57 0 0 1 1.082-1.574c.496-.415 1.095-.685 1.732-.782.557-.076 1.206-.049 1.574-.478.195-.227.298-.57.581-.662.181-.037.369-.013.536.067l2.079.739c.232.106.488.148.741.124.126-.018.24-.082.321-.181a.51.51 0 0 0 .113-.352c-.066-.349-.598-.517-.549-.868.027-.114.088-.217.174-.296a7.44 7.44 0 0 1 2.687-1.842 7.38 7.38 0 0 1 3.209-.509c.262.435-.153.951-.498 1.322s-.623 1.036-.205 1.322c.171.088.361.131.553.126a4.8 4.8 0 0 1 1.474.451c.718.316 1.423.661 2.114 1.037a2.74 2.74 0 0 1 .053-1.375.93.93 0 0 1 .431-.514.91.91 0 0 1 .661-.086c.414.161.625.713 1.066.764.587.068.818-.808.573-1.351s-.731-.998-.771-1.593c-.027-.402.124-.9-.194-1.143-.113-.073-.241-.119-.375-.133l-7.932-1.474c-.471-.087-1.151-.02-1.172.463-.012.27.227.536.121.784-.113.265-.483.241-.753.335-.202.093-.368.25-.474.447s-.146.423-.115.645c.074.443.244.863.497 1.231-.516-.217-1.297-.257-1.813-.475zm-6.329-6.8c-.5-.168-1.039-.175-1.544-.023s-.951.459-1.278.876c-.076.077-.129.175-.152.281a.58.58 0 0 0 .021.32c.157.27.557.163.851.067.433-.156.904-.168 1.344-.033.276.096.524.266.802.358.135.057.283.076.428.055a.82.82 0 0 0 .395-.176c.163-.223.236-.501.203-.777a.64.64 0 0 0-.022-.275.63.63 0 0 0-.136-.238c-.111-.065-.236-.103-.364-.109a1.25 1.25 0 0 1-.735-.434m3.047-.697a.65.65 0 0 0-.324.067c-.101.05-.187.125-.25.219a.67.67 0 0 0-.112.314.68.68 0 0 0 .054.33 2.63 2.63 0 0 0 1.056.069c.177-.028.341-.107.472-.229a.92.92 0 0 0 .267-.454c-.416.076-.845-.007-1.204-.232m9.637-1.427a12.11 12.11 0 0 0-2.708.929 2.04 2.04 0 0 1 .987.815c.234.372.344.81.313 1.249-.037.168-.032.343.012.51.1.243.388.335.641.397a4.21 4.21 0 0 0 1.406.182 1.42 1.42 0 0 0 .672-.211c.203-.125.372-.3.492-.508.069-.197.149-.39.242-.577.607-.934 2.411.195 3.063-.708.23-.318.209-.796.508-1.048a1.14 1.14 0 0 1 .522-.202 36.38 36.38 0 0 1 3.968-.57c.631-.056 1.453-.285 1.459-.924a10.89 10.89 0 0 0-7.011.952c-.781.395-1.815 1.227-2.567.703-.282-.196-.268-.725-.656-.945-.429-.173-.904-.188-1.343-.044zm7.773 1.468l1.116.217a1.44 1.44 0 0 0-.601.103c-.191.077-.363.194-.506.344a1.48 1.48 0 0 0-.32.524c-.068.196-.095.404-.077.611 1.044.353 2.184.01 3.284.056s2.381.841 2.193 1.937c-.056.332-.246.663-.147.984a3.62 3.62 0 0 0 .376.593c.089.229.114.479.07.721a1.34 1.34 0 0 1-.315.651c-.292.392-.685.706-.941 1.123-.638 1.039-.276 2.381.104 3.542a3.13 3.13 0 0 0 .595 1.198c.562.605 1.479.657 2.301.669.597.009 1.282-.021 1.66-.488.494-.611.149-1.564.474-2.281.295-.651 1.047-.93 1.728-1.128a25.62 25.62 0 0 0 3.699-1.219c1.466-.681 2.835-1.741 4.445-1.829a5.99 5.99 0 0 0 1.35-.096 1.02 1.02 0 0 0 .57-.34c.147-.173.234-.392.245-.62-.028-.39-.354-.675-.609-.969s-.455-.745-.221-1.055l4.221-.797c-.299-.823-.532-1.907.155-2.443.248-.194.581-.271.792-.505a1.04 1.04 0 0 0 .168-.76c-.044-.266-.189-.504-.405-.664a2.7 2.7 0 0 0-1.509-.462c-1.855-.112-3.715-.095-5.567.05l-10.874.602a7.87 7.87 0 0 0-2.241.23 10.23 10.23 0 0 1-1.618.741c-1.196.253-2.512.082-3.595.76zm19.988 8.906c-.114-.018-.23.009-.325.075-.063.07-.1.159-.106.253a1.68 1.68 0 0 0 .241 1.195 1.15 1.15 0 0 0 1.061.514c.502-.065.872-.498 1.334-.709.712-.325 3.735-.832 1.644-1.973-.721-.393-1.187-.046-1.755.213-.646.334-1.37.483-2.094.432zm18.317-9.55a1.19 1.19 0 0 0-.581.511c-.061.117-.076.253-.04.38s.118.236.231.303a.75.75 0 0 0 .285.046l.993.03c.421.013.948.103 1.062.514.084.305-.105.696.123.914.097.076.215.123.337.133.328.085.669.096 1.001.033.722-.196.343-.641.57-1.038.348-.606.288-.239.902-.587.453-.257 1.038-.722.66-1.377-.658-1.138-4.573-.351-5.543.138zm19.596-.572l-.576.078c-1.305.138-2.597.388-3.86.746a6.41 6.41 0 0 0 1.69.419c.319.016.636.061.947.136.553.166 1.111.595 1.645.376.331-.137.439-.485.714-.67.189-.127.908-.334.988-.462.65-1.041-1.048-.69-1.548-.623zm2.532 2.646a10.84 10.84 0 0 0-2.128 1.574 1.31 1.31 0 0 0-.523.952c.033.497.558.786 1.013.981l1.843.788c.224-.318.019-.758-.212-1.07s-.506-.675-.404-1.051c.117-.43.635-.576 1.07-.65.709-.121 2.62-.111 2.39-1.264-.27-1.359-2.338-.661-3.049-.26zm-.371 76.887a1.79 1.79 0 0 0-.124.796c.019.272.1.535.236.77.186.24.438.421.723.521s.595.114.889.041c.587-.158 1.11-.497 1.496-.972.353-.397.643-.846.861-1.333a10.5 10.5 0 0 0 .638-2.357l.572-3.034c.128-.679.123-2.758-1.111-2.08-.337.185-1.118 1.646-1.471 2.06-.637.747-.721 1.471-1.057 2.376-.42 1.133-1.263 2.078-1.652 3.212zm65.185 15.528c-.404-.159-.796-.348-1.173-.564a10.06 10.06 0 0 0-.594 3.272l2.763-1.579c.416-.237.887-.567.878-1.05a.33.33 0 0 0-.035-.172c-.027-.053-.068-.098-.118-.13-.061-.025-.128-.033-.194-.023-.404.074-.798.202-1.169.38-.187.088-.39.134-.596.135a1.42 1.42 0 0 1-.598-.129m15.413.797c-.303.084-.599.191-.886.322-.634.326-1.066.944-1.636 1.374-.568.381-1.192.67-1.849.855a.46.46 0 0 0-.085.166.47.47 0 0 0-.01.187c.01.063.033.122.067.175s.079.098.131.132a1.27 1.27 0 0 0 .73.165c.67.074 1.347-.032 1.964-.305a6.22 6.22 0 0 0 .925-.741 9.77 9.77 0 0 1 2.327-1.33c.297-.113.572-.279.811-.489.513-.511.549-1.298-.19-1.472-.598-.14-1.73.776-2.299.961z"/><path d="M382.319 340.089c.033-.351-.013-.706-.135-1.036a2.32 2.32 0 0 0-.57-.872c.059.704-.087 1.411-.42 2.032-.279.414-.716.694-1.021 1.088a1.06 1.06 0 0 0-.289.667 1.07 1.07 0 0 0 .206.698c.229.176.508.273.795.277.714.085 1.539.132 2.039-.388.273-.284.406-.705.739-.914.124-.052.235-.132.324-.234.137-.221-.081-.512-.327-.591s-.517-.042-.764-.118-.474-.356-.347-.583m-11.677-25.784c-.374.091-.762.115-1.144.068a4.14 4.14 0 0 1-1.642-.998 7.19 7.19 0 0 0-4.23-1.492c-1.393-.027-2.799.354-4.167.088a1.67 1.67 0 0 0 .357.666c.168.191.377.341.612.437.454.223.955.336 1.411.555a3.39 3.39 0 0 1 1.631 1.714 4.88 4.88 0 0 0 .462 1.026c.263.279.59.489.952.612a2.31 2.31 0 0 0 1.125.091c.992-.066 2.028-.354 2.951.019.666.371 1.273.841 1.8 1.395.589.485 1.419.845 2.096.495-.703-.23-1.315-.681-1.746-1.287s-.66-1.335-.652-2.081c.664.062 2.576.038 2.473-1.101-.087-.965-1.719-.312-2.289-.207zm-8.683 7.853c.117-.652.762-1.229.561-1.861a1.15 1.15 0 0 0-.446-.502 1.13 1.13 0 0 0-.649-.161c-.454-.011-.9.126-1.354.139-.296-.016-.592-.012-.887.012-.902.15-1.458 1.104-2.307 1.444a13.77 13.77 0 0 1-1.635.309c-1.219.324-1.991 1.488-2.844 2.427a10.13 10.13 0 0 1-5.152 3.034c-.709.084-1.389.331-1.99.721-.73.602-.909 1.635-1.072 2.572-.449 2.59-1.134 5.133-2.048 7.594l2.896.374a3.9 3.9 0 0 0 1.652-.024c.385-.147.75-.344 1.086-.585 1.29-.809 2.734-1.335 4.238-1.545a4.46 4.46 0 0 1 2.265.161c.362.129.682.356.926.656s.401.661.456 1.045a1.76 1.76 0 0 1 .949-.03 1.77 1.77 0 0 1 .829.467c.454.466.751 1.065.849 1.711.077.4.153.88.521 1.048.3.137.644-.011.972-.037 1.113-.09 2.037 1.221 3.132.995 1.174-.242 1.462-2.017 2.607-2.373.658-.204 1.58.044 1.895-.574.278-.544-.276-1.173-.219-1.782.07-.751.947-1.07 1.623-1.39 1.146-.598 2.023-1.615 2.451-2.843a5.16 5.16 0 0 0-.144-3.766c-.669-1.385-1.985-2.474-2.229-3.995-.187-1.17.27-2.535-.469-3.456-.375-.468-1.012-.727-1.235-1.286-.087-.369-.14-.744-.16-1.123-.076-.372-.397-.76-.761-.664-1.055.28-1.391 3.571-1.956 4.371a1.31 1.31 0 0 1-.731.533c-.298.085-.616.06-.898-.07s-.51-.356-.642-.639a1.33 1.33 0 0 1-.08-.907zm-19.503-6.609a1.68 1.68 0 0 0-1.099-.057c-.346.146-.548.658-.27.912 2.167-.149 4.342-.106 6.502.128 2.478.342 4.931 1.191 7.42.942-1.422-.424-2.867-.763-4.328-1.015l-2.437-.47c-.654-.138-1.314-.241-1.979-.309-1.39-.115-2.442.256-3.809-.131zm2.172-7.631c-.18-.015-.403-.028-.497.128-.089.15.013.347-.035.515-.065.229-.362.287-.596.256-.226-.07-.469-.067-.694.008-.105.073-.184.177-.225.299s-.041.254-.002.376c.085.242.222.463.401.645.307.39.656.744 1.041 1.055.745.555 1.755.823 2.225 1.63a1.08 1.08 0 0 0 .297.404.83.83 0 0 0 .391.056c.132-.014.26-.059.371-.133l.851-.393c.153-.056.29-.15.398-.273a.89.89 0 0 0 .088-.479c-.015-.165-.077-.322-.176-.453-.204-.262-.322-.581-.337-.913.062-.587.809-.811 1.116-1.313s.108-1.157.144-1.751c.041-.694.473-1.597-.222-2.116-.59-.441-1.155-.033-1.579.453-.894 1.027-1.317 2.138-2.96 1.999zm5.164-10.371c.29.561.896.897 1.213 1.444.343.592.304 1.358.676 1.933.383.59 1.151.903 1.366 1.573.234.732-.297 1.622.126 2.262a.95.95 0 0 0 .292.255.93.93 0 0 0 .37.115c.129.012.26-.003.383-.045a.94.94 0 0 0 .334-.197 1.03 1.03 0 0 0 .266-.721c-.008-.266-.118-.519-.308-.704-.25-.231-.61-.331-.819-.6-.109-.156-.182-.334-.212-.522a3.45 3.45 0 0 1 .053-1.638c.056-.135.07-.284.041-.428-.095-.276-.465-.296-.725-.424-.591-.291-.577-1.133-.474-1.789-.068.436-1.608-.306-1.769-.553-.321-.492-.146-1.439-.21-1.982-.336.196-.585.514-.697.89s-.079.78.094 1.131zm-15.513 8.641c-.284-.321-.712-.657-1.093-.463-.137.09-.237.226-.284.383s-.038.327.027.479a1.89 1.89 0 0 0 .62.746c.827.619 1.61 1.296 2.342 2.027 1.239 1.376 1.896 3.233 3.244 4.5a1.81 1.81 0 0 0 1.022.558c.196.027.394-.021.557-.134a.81.81 0 0 0 .322-.478 1.18 1.18 0 0 0-.113-.474c-.07-.148-.171-.279-.295-.386l-1.591-1.706c-.229-.231-.372-.533-.407-.858-.003-.324.29-.662.6-.582-.377-.098-.657-.733-1.212-.852-.463-.1-.575.189-1.126-.049-1.052-.456-1.877-1.878-2.613-2.711zm24.706-31.286c-.302-.091-.598-.198-.888-.321-.781-.237-1.814.343-1.71 1.159.069.543.569.909.845 1.379.169.369.263.768.278 1.174s-.051.81-.193 1.19c-.053.242-.153.471-.295.673a2.25 2.25 0 0 1-.7.508 9.39 9.39 0 0 0-2.738 2.349c-.081.088-.139.197-.165.315-.037.276.237.476.392.706.345.511.096 1.198.13 1.815a.52.52 0 0 0 .214.451c.208.106.454-.075.566-.281.374-.683.093-1.78.793-2.11.133-.062.294-.089.382-.206.14-.187.005-.463.076-.686.107-.335.56-.35.908-.335a5.11 5.11 0 0 0 1.771-.238c.224-.054.428-.173.586-.343a1.31 1.31 0 0 0 .149-.975c-.21-1.674-.735-3.291-1.546-4.765.608.147 1.247.085 1.816-.176.298-.182.654-.724.507-1.093-.234-.584-.655-.093-1.178-.19zm-78.918 9.204c.107.393.113.807.017 1.203a.82.82 0 0 1-.35.472c-.17.109-.374.15-.572.116-.298-.092-.471-.395-.683-.626-1.179-1.285-3.838-.541-4.566-2.131-.297-.649-.096-1.426-.298-2.111a1.88 1.88 0 0 0-.724-.972c-.341-.234-.749-.347-1.161-.321-.375.054-.74.165-1.084.327a27.13 27.13 0 0 1-7.185 1.814 5.84 5.84 0 0 0-1.38.254 4.39 4.39 0 0 0-2.197 2.286c-.416 1.002-.923 1.964-1.515 2.873a12.7 12.7 0 0 1-2.572 2.22c-.349.227-.64.535-.849.898-.163.424-.221.882-.17 1.334l.185 5.502c-.025.71.1 1.417.368 2.074.392.791 1.165 1.309 1.702 2.007a3.96 3.96 0 0 1 .808 2.511c-.012.365-.048.795.233 1.024a1.02 1.02 0 0 0 .575.167l7.369.609c1.297.107 2.733.283 3.58 1.281.399.471.72 1.148 1.332 1.198.262-.015.523-.051.78-.108a1.9 1.9 0 0 1 .939.291 1.93 1.93 0 0 1 .672.723c.556.852.808 1.87.715 2.886-.06.638-.256 1.258-.298 1.897-.16 2.432 1.881 4.546 1.921 6.983.023 1.434-.651 2.774-1.308 4.045 1.061 1.622.192 3.783.615 5.68.4 1.799 1.886 3.208 2.256 5.014.169.827.179 1.844.901 2.27.317.156.668.227 1.02.206 2.122.026 4.22-.457 6.122-1.407.893-.448 1.818-1.115 1.974-2.11.126-.801-.277-1.698.133-2.396.483-.823 1.719-.758 2.43-1.391 1.152-1.026.254-2.984.721-4.462.419-1.329 1.864-2.035 2.58-3.228a5.78 5.78 0 0 0 .6-1.642 23.65 23.65 0 0 0 .61-4.186 25.28 25.28 0 0 1 .188-2.565c.772-4.845 5.515-8.089 7.055-12.743.147-.445.216-1.037-.176-1.288a1.11 1.11 0 0 0-.746-.079l-3.397.432a2.31 2.31 0 0 1-1.257-.073.81.81 0 0 1-.443-.428.82.82 0 0 1-.016-.62c.577-1.055-.61-2.389-1.137-3.471a51.33 51.33 0 0 0-5.051-8.271c-.124-.134-.202-.304-.221-.486l.964.033c-.325-1.18-.863-2.471-1.997-2.902-.661-.181-1.352-.223-2.03-.121-2.005.04-4.01-.124-5.982-.492zm5.984-26.579c.452.606 1.095 1.039 1.824 1.225 1.306.169 2.246-1.196 2.844-2.381.022.302.16.584.385.785a1.14 1.14 0 0 0 .817.291c.323-.055.63-.176.904-.357 2.589-1.428 5.489-2.185 8.439-2.203a.93.93 0 0 1 .155-.641c.129-.186.321-.319.541-.371.6-.12 1.14.404 1.429.948.215.579.53 1.114.93 1.582.459.407 1.349.389 1.531-.2.174-.566-.41-1.049-.895-1.383s-.996-.952-.67-1.444a43.29 43.29 0 0 1 7.509-1.221c.432.016.863-.059 1.264-.219.199-.085.365-.234.472-.424a1.01 1.01 0 0 0 .119-.626 2.83 2.83 0 0 1-1.666-.109c-.532-.203-.992-.561-1.321-1.028 3.519-.294 7.262-.544 10.381 1.129.375.811-1.533 1.486-1.023 2.218a.93.93 0 0 0 .355.224c.134.046.277.06.417.042a37.84 37.84 0 0 0 6.49-.25c.775-.173 1.569-.238 2.361-.193 1.309.163 2.429 1.046 3.718 1.333.258.077.529.1.796.068a1.97 1.97 0 0 0 .758-.255c.112-.073.207-.167.282-.279a1 1 0 0 0 .15-.368.99.99 0 0 0-.004-.398c-.028-.131-.082-.255-.158-.364 1.213-1.201 3.226-.904 4.827-.329s3.116 1.502 4.81 1.63c1.214.092 2.446-.238 3.646-.028a22.41 22.41 0 0 1 2.193.679c1.395.393 2.869.31 4.317.329 3.693.051 7.346.784 10.778 2.163.446.147.855.391 1.198.715.168.165.284.378.331.61s.026.473-.063.692l-3.547-.523c.335.664 1.199.777 1.901 1.006s1.43 1.012 1.008 1.623c-.761-.244-1.45.524-1.834 1.23s-.853 1.553-1.65 1.596c-.713.039-1.577-.575-2.042-.027.643.819 1.193 1.708 1.641 2.649.46.968.787 2.186.166 3.056-.098.155-.246.272-.419.328-.508.13-.837-.497-1.201-.877a4.35 4.35 0 0 0-1.773-.838c-.621-.225-1.275-.667-1.324-1.331a2.68 2.68 0 0 1 .345-1.179c.268-.644.385-1.342.342-2.038-.003-.568-.213-1.114-.589-1.536a1.17 1.17 0 0 0-1.515-.157c-.2.167-.36.435-.619.445-.458.018-.81-.789-1.179-.514a1.27 1.27 0 0 1-.17.846c-1.1.967-2.79.558-4.208.899a7.84 7.84 0 0 0-1.92.847c-.225.097-.416.259-.549.465-.069.183-.074.385-.014.571a.86.86 0 0 0 .344.453c.331.205.703.333 1.089.375 1.729.331 3.483.843 4.848 1.964s2.26 2.976 1.828 4.699l-3.409-3.291c.129 1.382.203 2.767.22 4.157a1.89 1.89 0 0 1-.108.799c-.243.542-.902.725-1.479.844a1.16 1.16 0 0 0-.447.19 1.17 1.17 0 0 0-.331.359c-.084.141-.137.299-.157.463a1.17 1.17 0 0 0 .045.488 4.9 4.9 0 0 0 1.185 1.726 3.32 3.32 0 0 1 .991 1.824c.061.704-.465 1.497-1.162 1.448a1.53 1.53 0 0 1-.705-.347c-.201-.175-.353-.4-.442-.653-.172-.507-.407-.989-.699-1.436-1.026-1.246-3.33-.712-4.249-2.041a2.11 2.11 0 0 0-.472.943 2.12 2.12 0 0 0 .042 1.055c.231-.104.49-.123.733-.055a1.09 1.09 0 0 1 .601.429 9.13 9.13 0 0 1 .725 1.337c.341.595.882 1.123.93 1.809-.013.259-.008.519.013.778a3.14 3.14 0 0 0 .673 1.061c.255.423.403.902.433 1.396a3.08 3.08 0 0 1-.261 1.439 8.74 8.74 0 0 1-1.655 2.426 29.15 29.15 0 0 1-3.603 3.665c-.404.276-.751.629-1.023 1.039-.131.208-.19.454-.169.7a1.13 1.13 0 0 0 .284.66c-.26.013-.727.143-.988.156-.091-1.055-.111-2.115-.059-3.172-1.028-.499-2.134.836-2.001 1.979s.951 2.061 1.534 3.05a3.63 3.63 0 0 1 .601 2.396c-.057.418-.261.801-.574 1.08a1.73 1.73 0 0 1-1.132.441c-1.321-.116-1.873-2.031-3.181-2.25-.115-.027-.236-.015-.344.034-.194.108-.228.37-.239.594a7.43 7.43 0 0 0 .324 3.247c.62 1.479 2.222 2.721 1.886 4.29-1.81-.849-2.751-2.899-3.179-4.868s-.498-4.036-1.264-5.897c-.581.752-1.804.13-2.335-.66-.504-.748-.814-1.614-1.303-2.373a2.91 2.91 0 0 0-.893-.995 2.87 2.87 0 0 0-1.24-.485c-.938-.044-1.753.607-2.468 1.222a5.79 5.79 0 0 0-1.538 1.729c-.501 1.017-.37 2.216-.394 3.351a5.15 5.15 0 0 1-1.112 3.421c-.828.899-2.357 1.212-3.271.402a3.74 3.74 0 0 1-.914-1.661c-.991-2.923-1.817-5.9-2.473-8.918-.154.689-.753 1.576-1.325 1.171a1.21 1.21 0 0 1-.305-.397c-1.067-1.827-3.043-2.923-5.04-3.58s-4.098-.963-6.073-1.685a15.37 15.37 0 0 1-3.15-1.585c-.251.373-.398.808-.425 1.259a2.53 2.53 0 0 0 .274 1.301c.221.392.564.699.976.874a2 2 0 0 0 1.302.088c.438-.141.808-.449 1.243-.6.21-.097.447-.115.668-.052a.97.97 0 0 1 .542.398c.182.405-.093.895.043 1.318.208.644 1.17.694 1.507 1.28a1.19 1.19 0 0 1-.313 1.368c-.388.319-.815.584-1.271.79-1.416.795-2.423 2.152-3.66 3.208s-2.983 1.828-4.458 1.15c.352-1.797-1.769-3.117-2.159-4.907-.128-.589-.061-1.214-.245-1.788-.265-.831-.995-1.403-1.594-2.032-.726-.772-1.292-1.684-1.664-2.68a8.05 8.05 0 0 1-.502-3.123 8.19 8.19 0 0 0 0-2.212c-.059-.366-.238-.701-.508-.953a1.64 1.64 0 0 0-.982-.433c-1.673.075-3.78.201-4.657-1.239-.313-.514-.45-1.267.003-1.661a1.59 1.59 0 0 1 .584-.227c.208-.036.421-.03.627.017l3.768.375c.881.087 1.834.16 2.591-.306s1.084-1.7.383-2.248c-.511-.4-1.428-.378-1.577-1.014-.124-.53.457-1.131.143-1.574-.225-.317-.73-.229-1.036.009a6.68 6.68 0 0 1-.872.766c-.601.316-1.32.015-1.967-.189s-1.514-.222-1.828.385c-.351.679.312 1.568-.037 2.248-.46.899-2.02.387-2.666 1.161-.742.887.505 2.21.254 3.344a2.04 2.04 0 0 1-1.03.213c-.356-.02-.701-.133-1.001-.328-.294-.203-.529-.482-.679-.809a2 2 0 0 1-.173-1.046c.062-.51.325-1.031.149-1.513a1.77 1.77 0 0 0-.89-.822l-3.662-2.044c-.34.637.089 1.427.627 1.905s1.211.839 1.564 1.469a1.95 1.95 0 0 1 .14 1.414c-.133.472-.44.875-.858 1.127-.052.036-.112.061-.175.072a.44.44 0 0 1-.188-.008.5.5 0 0 1-.15-.136c-.04-.055-.07-.118-.086-.184-.646-1.67-1.616-3.317-3.167-4.189s-3.779-.693-4.796.777c-.242.349-.404.747-.615 1.116-1.118 1.96-3.515 2.888-5.754 2.828a1.14 1.14 0 0 1-.628-.149c-.362-.253-.345-.788-.29-1.229l.235-1.87c.001-.382.148-.749.41-1.025.415-.331 1.013-.122 1.542-.13.4-.019.785-.161 1.102-.409a1.98 1.98 0 0 0 .671-.973c.107-.39.106-.802-.002-1.192a2.22 2.22 0 0 0-.611-1.019c-.242-.23-.567-.519-.439-.828a.68.68 0 0 1 .202-.215.66.66 0 0 1 .273-.108c.949-.279 1.952-.352 2.885-.68.478-.131.916-.38 1.276-.725a3.03 3.03 0 0 0 .783-1.248c.068-.298.099-.659.364-.807.133-.057.276-.086.42-.087a2.04 2.04 0 0 0 1.291-.732 2.08 2.08 0 0 0 .463-1.421c.247-.119.524-.158.793-.113s.519.172.714.365c.384.392.839.706 1.341.924.981.27 1.929-.608 2.946-.612.421.074.851.076 1.273.005.407-.149.651-.559.964-.861s.862-.488 1.151-.162l-.246-1.841c.496.127 1.012.145 1.515.053s.981-.292 1.402-.585l-3.181-1.086a.7.7 0 0 1-.298-.16c-.231-.252-.001-.644.187-.929.45-.684.525-1.811-.215-2.151-.504-.233-1.084.046-1.569.319l-2.321 1.308c-.074.445.466.698.8.998a1.36 1.36 0 0 1 .411.686c.065.265.049.544-.045.8a1.35 1.35 0 0 1-.485.635 1.34 1.34 0 0 1-.756.247 1.69 1.69 0 0 1 .311.681 1.71 1.71 0 0 1-.012.75l-1.562.114c-.176.035-.358-.001-.507-.1-.167-.15-.144-.413-.183-.635-.07-.264-.216-.5-.42-.68a1.36 1.36 0 0 0-.724-.329c-.538-.059-1.082-.008-1.599.15a.95.95 0 0 1-.688-.016c-.126-.083-.221-.205-.272-.347-.091-.292-.106-.603-.044-.902a1.78 1.78 0 0 1 .399-.808c.404-.455.849-.869 1.332-1.237a7.85 7.85 0 0 0 2.308-3.615c.859-.364 1.75-.858 2.609-1.222a7.92 7.92 0 0 1 4.293-.84l2.912.056a6.92 6.92 0 0 1 2.545.37 2.38 2.38 0 0 1 1.041.741c.274.338.451.746.512 1.178a.6.6 0 0 1-.025.294c-.032.094-.088.178-.162.244a.67.67 0 0 1-.368.084c-.804.029-1.147.231-1.951.26zm-23.21 9.216c.113-.108.195-.247.236-.399a.87.87 0 0 0-.004-.466c-.277-.108-.578-.136-.87-.08a1.58 1.58 0 0 0-.781.395 2.81 2.81 0 0 0-.442.59 2.64 2.64 0 0 0-.47.99c-.086.36-.096.734-.029 1.098.018.077.051.149.097.213s.105.118.172.159c.099.04.206.057.313.049a10.41 10.41 0 0 0 1.261-.078c.257-.032.556-.105.655-.347.13-.317-.185-.676-.093-1.007.06-.148.152-.281.269-.389a.52.52 0 0 0 .158-.432c-.037-.155-.272-.243-.357-.109m2.071-3.049c-.375-.086-.761-.111-1.143-.072a.49.49 0 0 0-.244.056.41.41 0 0 0-.15.219c-.08.262-.061.545.056.793a1.08 1.08 0 0 0 .573.543 1.35 1.35 0 0 1 .39.159c.323.253.117.771.178 1.179.069.459.508.844.428 1.3-.064.36-.444.645-.383 1.005.064.378.538.491.916.521.219.039.444.013.649-.075.205-.142.351-.355.409-.599a3.87 3.87 0 0 0 .192-1.445 1.39 1.39 0 0 0-.161-.638c-.114-.156-.24-.302-.378-.436-.724-.851.039-2.119-1.332-2.51z"/></g><g fill="#ff6384"><path d="M202.74 272.078c1.341 0 2.429-1.098 2.429-2.453s-1.088-2.453-2.429-2.453-2.429 1.099-2.429 2.453 1.088 2.453 2.429 2.453z"/><use xlink:href="#L"/><path d="M317.738 271.74c1.341 0 2.429-1.098 2.429-2.453s-1.088-2.453-2.429-2.453-2.429 1.098-2.429 2.453 1.087 2.453 2.429 2.453z"/><use xlink:href="#L" x="135.769" y="8.459"/><path d="M281.136 306.928c1.341 0 2.429-1.098 2.429-2.453s-1.088-2.453-2.429-2.453-2.429 1.098-2.429 2.453 1.088 2.453 2.429 2.453z"/></g><path d="M304.154 161.814l.058-1.707c.026-7.471-2.888-14.647-8.1-19.948s-12.297-8.294-19.695-8.321l-.104 29.877 27.841.099z" fill="#ff9f40"/><path d="M273.831 163.739l.104-29.877a27.7 27.7 0 0 0-15.337 4.575c-4.56 3.004-8.15 7.29-10.328 12.33s-2.846 10.613-1.925 16.033a28.27 28.27 0 0 0 7.111 14.465c3.717 4.017 8.518 6.849 13.81 8.144s10.843.998 15.969-.855a27.91 27.91 0 0 0 12.88-9.572c3.276-4.392 5.208-9.657 5.557-15.144l-27.841-.099zm-87.341-16.584l-6.506-.023c-.353-.002-.69-.145-.939-.398a1.35 1.35 0 0 1-.387-.951l.023-6.57c.002-.356.143-.697.393-.948s.589-.392.942-.391l6.506.023a1.33 1.33 0 0 1 .939.397 1.35 1.35 0 0 1 .387.952l-.023 6.57a1.35 1.35 0 0 1-.394.948c-.25.251-.589.392-.941.391z" fill="#4bc0c0"/><path d="M186.49 164.854l-6.506-.023a1.32 1.32 0 0 1-.939-.397 1.35 1.35 0 0 1-.387-.951l.023-6.57a1.35 1.35 0 0 1 .393-.949c.251-.251.589-.391.942-.39l6.506.023a1.32 1.32 0 0 1 .939.397 1.35 1.35 0 0 1 .387.951l-.023 6.57a1.35 1.35 0 0 1-.394.949c-.25.251-.589.391-.941.39z" fill="#ff9f40"/><path d="M186.088 181.623l-6.505-.023a1.33 1.33 0 0 1-.939-.397 1.35 1.35 0 0 1-.387-.952l.023-6.57a1.35 1.35 0 0 1 .393-.948c.25-.251.589-.392.942-.391l6.505.023a1.33 1.33 0 0 1 .94.398 1.35 1.35 0 0 1 .386.951l-.022 6.57c-.002.356-.144.697-.394.948s-.589.392-.942.391z" fill="#ff6384"/><path d="M227.782 143.239l-31.345-.111c-.175 0-.348-.035-.51-.103s-.309-.167-.432-.293a1.36 1.36 0 0 1-.388-.952 1.34 1.34 0 0 1 .104-.515 1.35 1.35 0 0 1 .291-.436 1.32 1.32 0 0 1 .434-.289c.163-.067.335-.101.51-.1l31.345.112c.175 0 .348.035.51.103s.308.167.432.292a1.34 1.34 0 0 1 .288.438c.067.164.1.338.1.515a1.34 1.34 0 0 1-.104.515 1.32 1.32 0 0 1-.291.435c-.124.125-.271.223-.434.29s-.335.1-.51.099zm-.004 17.701l-31.345-.111c-.353-.002-.691-.144-.939-.397s-.388-.596-.387-.952a1.35 1.35 0 0 1 .393-.949 1.33 1.33 0 0 1 .943-.39l31.345.111a1.31 1.31 0 0 1 .509.103 1.33 1.33 0 0 1 .432.293 1.36 1.36 0 0 1 .387.953c0 .176-.035.351-.103.514s-.166.311-.291.435a1.32 1.32 0 0 1-.944.39zm0 16.768l-31.345-.111c-.353-.002-.691-.144-.939-.397a1.35 1.35 0 0 1-.387-.952c.002-.356.143-.698.393-.949a1.33 1.33 0 0 1 .943-.39l31.345.111a1.32 1.32 0 0 1 .939.397 1.35 1.35 0 0 1 .387.952 1.36 1.36 0 0 1-.393.949 1.33 1.33 0 0 1-.943.39z" fill="#ccc"/><path d="M439.055 328.926l87.261 36.153a6.06 6.06 0 0 0 4.673-.018 6.15 6.15 0 0 0 3.295-3.347l26.712-65.757a4.56 4.56 0 0 0-.014-3.457c-.458-1.105-1.331-1.982-2.427-2.438l-90.211-37.376a4.52 4.52 0 0 0-3.483.014c-1.113.47-1.996 1.367-2.455 2.494l-26.683 65.685c-.613 1.514-.606 3.211.018 4.719s1.817 2.706 3.314 3.328z" fill="#fff" fill-opacity=".2"/><path d="M526.507 364.617l-87.26-36.153c-1.374-.571-2.469-1.67-3.044-3.057s-.58-2.948-.017-4.34l90.321 43.55zm0 0c1.375.568 2.917.562 4.287-.017s2.46-1.684 3.026-3.074l-7.313 3.091zm34.025-68.848l-26.711 65.757 26.711-65.757zm0 0a4.06 4.06 0 0 0-.012-3.078m.012 3.078l-.012-3.078m0 0c-.407-.984-1.184-1.763-2.157-2.167m2.157 2.167l-2.157-2.167m0 0l-90.21-37.376 90.21 37.376zm-93.307-37.363c.99-.418 2.103-.423 3.096-.013l-3.096.013zm0 0a4.08 4.08 0 0 0-2.187 2.222l2.187-2.222zm-2.187 2.222l-26.683 65.684 26.683-65.684z" stroke="#000" stroke-opacity=".15"/><g fill="#e6e6e6"><use xlink:href="#M"/><path d="M468.923 280.662l2.266.939.077-.189-2.266-.939-.077.189zm4.533 1.878l2.266.939.077-.189-2.267-.939-.076.189zm4.532 1.878l2.267.939.076-.189-2.266-.939-.077.189zm4.533 1.878l2.266.939.077-.189-2.266-.939-.077.189zm4.533 1.878l2.266.939.077-.189-2.267-.939-.076.189zm4.532 1.878l2.266.939.077-.189-2.266-.939-.077.189zm4.533 1.878l2.266.938.077-.188-2.267-.939-.076.189zm4.532 1.877l2.267.939.076-.188-2.266-.939-.077.188zm4.533 1.878l2.266.939.077-.188-2.266-.939-.077.188zm4.533 1.878l2.266.939.077-.189-2.267-.939-.076.189zm4.532 1.878l2.267.939.076-.189-2.266-.939-.077.189zm4.533 1.878l2.266.939.077-.189-2.266-.939-.077.189zm4.532 1.878l2.267.939.076-.189-2.266-.939-.077.189zm4.533 1.878l2.266.939.077-.189-2.266-.939-.077.189zm4.533 1.878l2.266.939.077-.189-2.267-.939-.076.189zm4.532 1.878l2.267.939.076-.189-2.266-.939-.077.189zm4.61 1.689l1.121.465-.076.188-1.122-.464.077-.189zm-46.21 1.371l1.121.464-.077.189-1.121-.465.077-.188zm3.277 1.578l2.233.925.077-.188-2.233-.925-.077.188zm4.466 1.85l2.232.925.077-.188-2.233-.925-.076.188zm4.465 1.85l2.233.925.076-.188-2.232-.925-.077.188zm4.465 1.85l2.233.925.077-.188-2.233-.925-.077.188zm4.466 1.851l2.232.925.077-.189-2.233-.925-.076.189zm4.465 1.85l2.232.925.077-.189-2.232-.925-.077.189zm4.465 1.85l2.233.925.076-.189-2.232-.925-.077.189zm4.465 1.85l2.233.925.077-.189-2.233-.925-.077.189z"/><use xlink:href="#M" x="68.776" y="49.011"/><use xlink:href="#M" x="48.2" y="50.193"/><path d="M517.154 330.868l2.297.951.077-.189-2.297-.951-.077.189zm4.594 1.903l2.297.952.077-.189-2.297-.952-.077.189zm4.594 1.903l2.297.952.077-.189-2.297-.951-.077.188zm4.671 1.715l1.122.465-.077.188-1.121-.465.076-.188zm-22.96 7.052l1.121.464-.076.189-1.122-.465.077-.188zm3.342 1.605l2.297.951.076-.188-2.297-.952-.076.189zm4.594 1.903l2.297.952.076-.189-2.297-.952-.076.189zm4.594 1.904l2.297.951.077-.189-2.298-.951-.076.189z"/><use xlink:href="#M" x="59.642" y="71.498"/></g><path d="M519.915 348.745l-64.662-26.79a6.42 6.42 0 0 1-3.463-3.478c-.653-1.577-.66-3.351-.02-4.933l13.065-32.161.126.056 15.868 38.318 11.769-4.969c.217-.093.453-.133.688-.118s.464.084.668.203a1.64 1.64 0 0 1 .674.806l8.317 20.079 8.604-3.633c.186-.078.385-.119.587-.12a1.54 1.54 0 0 1 .587.116c.186.077.355.191.498.334s.256.314.334.501l6.36 15.789z" fill="#36a2eb"/><path d="M520.114 349.048l.187-.079-6.654-16.069a1.73 1.73 0 0 0-.933-.935 1.71 1.71 0 0 0-1.315.004l-8.434 3.563-8.269-19.969c-.176-.424-.512-.761-.933-.935a1.71 1.71 0 0 0-1.315.004l-11.599 4.898-15.949-38.517-.187.078 16.028 38.706 11.785-4.977c.184-.078.381-.118.58-.119a1.52 1.52 0 0 1 .58.115c.184.076.352.188.493.33a1.52 1.52 0 0 1 .33.496l8.347 20.157 8.621-3.641a1.5 1.5 0 0 1 1.16-.004 1.53 1.53 0 0 1 .824.825l6.653 16.069zm-6.34-18.263c-.781 0-1.415-.639-1.415-1.428s.634-1.429 1.415-1.429 1.414.64 1.414 1.429a1.42 1.42 0 0 1-1.414 1.428zm-18.501-17.371c-.781 0-1.415-.64-1.415-1.429s.634-1.429 1.415-1.429 1.415.64 1.415 1.429-.634 1.429-1.415 1.429zm-28.807-32.872a1.42 1.42 0 0 1-1.415-1.428c0-.789.633-1.429 1.415-1.429s1.414.64 1.414 1.429a1.42 1.42 0 0 1-1.414 1.428z" fill="#3f3d56"/><path d="M545.647 327.736c-.735-.37-1.382-.898-1.893-1.547a5.7 5.7 0 0 1-1.068-2.21c-.191-.807-.205-1.646-.041-2.459s.503-1.579.993-2.246l-4.202-41.486h9.08l3.339 40.509a5.72 5.72 0 0 1 1.935 3.551 5.75 5.75 0 0 1-.888 3.953 5.65 5.65 0 0 1-3.264 2.36 5.6 5.6 0 0 1-3.991-.425zm-8.337-72.843c-7.095 0-12.846-5.808-12.846-12.973s5.751-12.974 12.846-12.974 12.846 5.808 12.846 12.974-5.751 12.973-12.846 12.973z" fill="#ffb8b8"/><path d="M534.892 301.949a2.34 2.34 0 0 0 1.423-.486c.409-.315.704-.756.841-1.257 1.029-3.776 3.707-10.161 7.958-18.978.96-1.994 1.491-4.169 1.559-6.384s-.328-4.42-1.162-6.469-2.089-3.898-3.681-5.423-3.485-2.694-5.555-3.429a15.41 15.41 0 0 0-6.12-.868c-2.077.127-4.107.673-5.971 1.606s-3.524 2.235-4.882 3.828-2.385 3.444-3.021 5.444c-3.296 10.434-3.136 21.611-2.915 25.932a2.4 2.4 0 0 0 .557 1.415c.334.397.787.673 1.291.785l19.173 4.228a2.32 2.32 0 0 0 .505.056z" fill="#ff6584"/><path d="M516.325 425.143h-6.412l-3.05-24.978h9.463l-.001 24.978z" fill="#ffb8b8"/><path d="M497.547 431.156h20.152l.001-7.863-12.367-.001a7.72 7.72 0 0 0-2.979.599 7.78 7.78 0 0 0-2.527 1.704 7.88 7.88 0 0 0-1.688 2.551 7.94 7.94 0 0 0-.592 3.01z" fill="#333"/><path d="M580.445 416.751l-5.62 3.12-14.589-20.404 8.293-4.605 11.916 21.889z" fill="#ffb8b8"/><path d="M566.857 431.156l17.66-9.805-3.751-6.89-10.837 6.016c-1.809 1.005-3.15 2.695-3.726 4.697s-.34 4.155.654 5.982z" fill="#333"/><path d="M516.625 411.279a2.34 2.34 0 0 0 1.552-.592c.429-.381.706-.907.78-1.479l8.019-62.408c.036-.276.156-.533.346-.736s.436-.339.707-.391.551-.016.8.102.456.314.589.558l33.421 61.236a2.38 2.38 0 0 0 1.252 1.081c.532.197 1.116.194 1.647-.007l7.285-2.803c.293-.112.56-.283.787-.502a2.37 2.37 0 0 0 .533-.771 2.4 2.4 0 0 0 .195-.92c.004-.316-.055-.631-.173-.924l-23.152-57.437c-.059-.145-.098-.298-.118-.455-3.136-24.51-11.114-36.975-13.485-40.211-.173-.238-.287-.515-.332-.806a1.86 1.86 0 0 1 .073-.87l.326-.988a2.39 2.39 0 0 0 .077-1.216c-.079-.406-.262-.783-.53-1.096-8.542-9.825-23.43-4.464-23.579-4.408l-.075.027-.047.065c-16.694 23.121-10.521 98.218-9.114 113.038.052.557.298 1.077.694 1.468s.915.629 1.468.671l9.871.768a2.82 2.82 0 0 0 .183.006z" fill="#000"/><path d="M487.369 256.99a5.61 5.61 0 0 1 .125.866l22.468 13.09 5.462-3.175 5.822 7.697-9.127 6.57a4.15 4.15 0 0 1-2.531.783c-.905-.022-1.779-.34-2.49-.907l-23.168-18.458c-1.046.39-2.184.451-3.265.172s-2.05-.883-2.782-1.732a5.57 5.57 0 0 1-1.315-3.023c-.124-1.119.092-2.249.619-3.241s1.342-1.798 2.334-2.312 2.116-.709 3.222-.561a5.46 5.46 0 0 1 2.966 1.387 5.54 5.54 0 0 1 1.66 2.844z" fill="#ffb8b8"/><path d="M510.713 271.566l7.262 9.505c.207.27.469.493.768.652s.629.251.967.269a2.33 2.33 0 0 0 .99-.161c.315-.125.599-.317.834-.563l8.22-8.621c1.364-1.076 2.251-2.654 2.464-4.388a6.65 6.65 0 0 0-1.323-4.864c-1.062-1.381-2.621-2.279-4.337-2.5s-3.45.255-4.82 1.322l-10.31 5.823c-.296.167-.552.396-.751.671a2.39 2.39 0 0 0-.406.927c-.068.335-.063.68.013 1.013a2.39 2.39 0 0 0 .429.915zm28.146 16.513l11.698-2.133c.332-.061.648-.193.926-.388s.51-.449.682-.743a2.39 2.39 0 0 0 .314-.962 2.4 2.4 0 0 0-.111-1.006l-3.792-11.34c-.317-1.718-1.296-3.239-2.722-4.229a6.48 6.48 0 0 0-4.884-1.054c-1.702.315-3.211 1.3-4.196 2.737a6.65 6.65 0 0 0-1.056 4.93l.37 11.924a2.41 2.41 0 0 0 .244.983 2.38 2.38 0 0 0 .628.79 2.35 2.35 0 0 0 .896.455c.328.085.67.097 1.003.036h0z" fill="#ff6584"/><path d="M535.277 238.935c-3.302 2.283-7.637 4.628-11.009 2.198a6.2 6.2 0 0 1-2.184-3.233c-.363-1.288-.304-2.66.17-3.911 1.615-4.663 6.051-6.716 10.293-8.29 5.515-2.046 11.52-3.673 17.214-2.208s10.725 7.032 9.697 12.874c-.826 4.698-5.214 8.607-4.592 13.337.627 4.76 5.928 7.266 10.608 8.117s9.917 1.124 13.28 4.519c4.291 4.331 3.22 12.071-.818 16.644s-10.129 6.645-16.033 8.054c-7.821 1.867-16.281 2.848-23.71-.251s-13.209-11.438-11.057-19.258c.909-3.303 3.05-6.095 5.12-8.813s4.165-5.56 4.954-8.895c.658-2.778.171-6.005-1.654-8.089a2.35 2.35 0 0 1-.596-1.319c-.056-.492.044-.99.285-1.421l.032-.055z" fill="#2f2e41"/><path d="M486.315 431.47h105.752c.148 0 .29-.059.394-.164a.57.57 0 0 0 .163-.398c0-.149-.059-.292-.163-.397a.55.55 0 0 0-.394-.165H486.315c-.148 0-.289.059-.394.165s-.163.248-.163.397a.57.57 0 0 0 .163.398c.105.105.246.164.394.164z" fill="#979797"/><defs><filter id="A" x="347.755" y="140.097" width="247.502" height="92.338" filterUnits="userSpaceOnUse" color-interpolation-filters="sRGB"><feFlood flood-opacity="0"/><feGaussianBlur in="BackgroundImage" stdDeviation="2"/><feComposite in2="SourceAlpha" operator="in"/><feBlend in="SourceGraphic"/></filter><linearGradient id="B" x1="44" y1="124" x2="130" y2="124" xlink:href="#N"><stop stop-color="#fd749b" stop-opacity=".71"/><stop offset="1" stop-color="#ff9f40"/></linearGradient><linearGradient id="C" x1="379.938" y1="558.679" x2="438.492" y2="524.873" xlink:href="#N"><stop stop-color="#979797"/><stop offset="1" stop-color="#ccc"/></linearGradient><linearGradient id="D" x1="0" y1="388" x2="452" y2="388" xlink:href="#N"><stop stop-color="#fd749b" stop-opacity=".71"/><stop offset="1" stop-color="#ff9f40"/></linearGradient><linearGradient id="E" x1="364.137" y1="83.515" x2="505.359" y2="471.522" xlink:href="#N"><stop stop-color="#4bc0c0"/><stop offset="1" stop-color="#36a2eb" stop-opacity=".64"/></linearGradient><linearGradient id="F" x1="431.753" y1="446.325" x2="637.147" y2="482.541" xlink:href="#N"><stop stop-color="#979797"/><stop offset="1" stop-color="#ccc"/></linearGradient><path id="G" d="M328.315 374.374a6.55 6.55 0 0 1-6.549-6.55 6.55 6.55 0 0 1 6.549-6.549 6.55 6.55 0 0 1 6.55 6.549 6.55 6.55 0 0 1-6.55 6.55z"/><path id="H" d="M80.157 368.552h215.41a.73.73 0 0 0 .728-.728c0-.193-.077-.378-.213-.514a.73.73 0 0 0-.515-.214H80.157c-.193 0-.378.077-.515.214s-.213.321-.213.514a.73.73 0 0 0 .728.728z"/><path id="I" d="M164.809 110.281c1.797 0 3.255-1.472 3.255-3.287s-1.458-3.287-3.255-3.287-3.255 1.471-3.255 3.287 1.457 3.287 3.255 3.287z"/><path id="J" d="M598.431 126.807H342.317v1.016h256.114v-1.016z"/><path id="K" d="M573.65 155.777v40.906h-10.567v-52.086h-17.108v52.086h-10.567v-32.268h-17.107v32.268H480.06v-22.104h-17.108v22.104h-27.925v9.909h-10.316v-21.85h-17.107v21.85h-27.675v10.163h-27.674v11.18h27.674 72.457 10.566 17.108 93.59 17.107v-11.18-30.489-30.489H573.65z"/><path id="L" d="M224.684 324.522c1.342 0 2.429-1.098 2.429-2.453s-1.087-2.453-2.429-2.453-2.429 1.098-2.429 2.453 1.088 2.453 2.429 2.453z"/><path id="M" d="M465.612 279.069l1.122.465-.077.189-1.121-.465.076-.189z"/><linearGradient id="N" gradientUnits="userSpaceOnUse"/></defs></svg>