<?xml version="1.0" encoding="UTF-8"?>
<svg fill="none" viewBox="0 0 683 527" xmlns="http://www.w3.org/2000/svg">
<path d="m44.003 46.471c0.246-17.786 16.752-29.479 33.724-34.165 14.394-3.974 28.648 2.557 37.905 14.388 10.872 13.896 20.058 32.394 10.109 46.98-10.461 15.335-31.501 15.862-49.002 10.038-17.25-5.741-32.99-18.882-32.736-37.241z" clip-rule="evenodd" fill="url(#e)" fill-rule="evenodd"/>
<path d="m378.89 482c-6.824-12.206-0.183-26.656 9.531-36.518 8.237-8.364 20.51-9.521 31.463-5.104 12.865 5.188 26.391 14.171 25.351 28.013-1.094 14.553-15.212 23.183-29.418 26.097-14.002 2.872-29.884 0.112-36.927-12.488z" clip-rule="evenodd" fill="url(#d)" fill-rule="evenodd"/>
<path d="m0.221 284.64c2.774-64.105 36.01-124.09 90.31-160.43 50.108-33.54 112.64-25.139 172.64-15.57 67.561 10.774 151.36 11.686 180.7 71.919 29.276 60.101-27.75 121.32-57.375 181.26-29.64 59.968-44.914 135.72-109.73 156.83-69.47 22.623-145.6-8.889-200.9-55.677-52.453-44.384-78.577-110.72-75.652-178.33z" clip-rule="evenodd" fill="url(#c)" fill-rule="evenodd"/>
<path d="m638.2 87.416c-60.315-79.956-181.48-109.42-297.59-70.11-61.383 20.782-119.69 60.433-146.14 134.56-47.292 132.5 66.18 170.87 139.75 181.95 35.555 5.385 69.322 15.13 100.32 28.954 55.824 24.824 153.59 45.337 221.57-67.301 49.274-81.639 22.264-154.78-17.912-208.04z" fill="url(#b)"/>
<path d="m430.86 376.55c-5.381 33.956 30.115 63.162 69.078 79.228 33.042 13.626 69.278 7.198 95.356-11.422 30.63-21.87 58.778-53.208 39.911-85.159-19.837-33.593-69.91-43.456-113.66-39.741-43.125 3.663-85.126 22.045-90.681 57.094z" clip-rule="evenodd" fill="url(#a)" fill-rule="evenodd"/>
<path d="m38.735 431.8h336.82c3.376-4e-3 6.613-1.347 9.001-3.734 2.388-2.388 3.731-5.625 3.734-9.001v-162.4c-2e-3 -2.525-1.007-4.946-2.792-6.732s-4.207-2.79-6.732-2.793h-343.09c-2.566 3e-3 -5.025 1.023-6.839 2.838s-2.834 4.273-2.837 6.839v162.24c4e-3 3.376 1.347 6.613 3.7344 9.001 2.3874 2.387 5.6243 3.73 9.0006 3.734h-1e-3zm340.04-183.2c2.139 3e-3 4.19 0.854 5.703 2.367 1.513 1.512 2.364 3.564 2.366 5.703v162.4c-3e-3 2.991-1.192 5.858-3.307 7.973s-4.982 3.304-7.973 3.307h-336.82c-2.99-4e-3 -5.858-1.193-7.972-3.308s-3.304-4.982-3.307-7.972v-162.24c0.0024-2.18 0.8695-4.27 2.411-5.811 1.541-1.541 3.631-2.408 5.811-2.411h343.09z" fill="#ccc"/>
<path d="m363.92 419.06h-313.54c-3.088 0-6.05-1.227-8.233-3.411-1.0813-1.081-1.939-2.365-2.5241-3.777-0.5851-1.413-0.8861-2.927-0.8859-4.456v-135.76c0-3.088 1.227-6.049 3.41-8.233 1.0811-1.081 2.3646-1.939 3.7772-2.524 1.4127-0.585 2.9268-0.886 4.4558-0.886h313.54c3.088 0 6.05 1.226 8.234 3.41s3.41 5.145 3.41 8.233v135.76c0 3.088-1.227 6.05-3.41 8.233s-5.146 3.411-8.234 3.411z" fill="#F2F2F2"/>
<path d="m328.32 299.51c-1.737 0-3.403-0.69-4.631-1.919-1.228-1.228-1.918-2.894-1.918-4.631s0.69-3.402 1.918-4.631c1.229-1.228 2.894-1.918 4.631-1.918s3.403 0.69 4.631 1.918c1.229 1.228 1.919 2.894 1.919 4.631 0 0.86-0.169 1.712-0.499 2.507-0.329 0.794-0.811 1.516-1.419 2.125-0.609 0.608-1.331 1.09-2.125 1.419-0.795 0.33-1.647 0.499-2.507 0.499z" fill="#ccc"/>
<path d="m328.32 324.26c-1.737 0-3.403-0.69-4.631-1.919-1.228-1.228-1.918-2.894-1.918-4.631s0.69-3.402 1.918-4.631c1.229-1.228 2.894-1.918 4.631-1.918s3.403 0.69 4.631 1.918c1.229 1.228 1.919 2.894 1.919 4.631 0 0.86-0.169 1.712-0.499 2.507-0.329 0.794-0.811 1.516-1.419 2.125-0.609 0.608-1.331 1.09-2.125 1.419-0.795 0.33-1.647 0.499-2.507 0.499z" fill="#ccc"/>
<path d="m328.32 349c-1.737 0-3.403-0.691-4.631-1.919s-1.918-2.894-1.918-4.631 0.69-3.402 1.918-4.631c1.229-1.228 2.894-1.918 4.631-1.918s3.403 0.69 4.631 1.918c1.229 1.228 1.919 2.894 1.919 4.631 0 0.86-0.169 1.712-0.499 2.507-0.329 0.794-0.811 1.516-1.419 2.124-0.609 0.609-1.331 1.091-2.125 1.42-0.795 0.33-1.647 0.499-2.507 0.499z" fill="#ccc"/>
<path d="m328.32 373.74c-1.737 0-3.403-0.69-4.631-1.919-1.228-1.228-1.918-2.894-1.918-4.631s0.69-3.402 1.918-4.631c1.229-1.228 2.894-1.918 4.631-1.918s3.403 0.69 4.631 1.918c1.229 1.228 1.919 2.894 1.919 4.631 0 0.86-0.169 1.712-0.499 2.507-0.329 0.794-0.811 1.516-1.419 2.125-0.609 0.608-1.331 1.09-2.125 1.419-0.795 0.33-1.647 0.499-2.507 0.499z" fill="#ccc"/>
<path d="m80.157 293.69h215.41c0.193-1e-3 0.378-0.077 0.514-0.214 0.137-0.136 0.214-0.321 0.214-0.514s-0.077-0.378-0.213-0.514c-0.137-0.137-0.322-0.214-0.515-0.214h-215.41c-0.193 0-0.378 0.077-0.515 0.214s-0.213 0.321-0.213 0.514c5e-4 0.193 0.0774 0.378 0.2138 0.514 0.1364 0.137 0.3213 0.213 0.5142 0.214z" fill="#ccc"/>
<path d="m80.157 318.44h215.41c0.193-1e-3 0.378-0.077 0.514-0.214 0.137-0.136 0.214-0.321 0.214-0.514s-0.077-0.378-0.213-0.514c-0.137-0.137-0.322-0.214-0.515-0.214h-215.41c-0.193 0-0.378 0.077-0.515 0.214s-0.213 0.321-0.213 0.514c5e-4 0.193 0.0774 0.378 0.2138 0.514 0.1364 0.137 0.3213 0.213 0.5142 0.214z" fill="#ccc"/>
<path d="m80.157 343.18h215.41c0.193-1e-3 0.378-0.077 0.514-0.214 0.137-0.136 0.214-0.321 0.214-0.514s-0.077-0.378-0.213-0.514-0.322-0.213-0.515-0.213h-215.41c-0.193 0-0.378 0.076-0.515 0.213s-0.213 0.321-0.213 0.514c5e-4 0.193 0.0774 0.378 0.2138 0.514 0.1364 0.137 0.3213 0.213 0.5142 0.214z" fill="#ccc"/>
<path d="m80.157 367.92h215.41c0.193-1e-3 0.378-0.077 0.514-0.214 0.137-0.136 0.214-0.321 0.214-0.514s-0.077-0.378-0.213-0.514c-0.137-0.137-0.322-0.214-0.515-0.214h-215.41c-0.193 0-0.378 0.077-0.515 0.214s-0.213 0.321-0.213 0.514c5e-4 0.193 0.0774 0.378 0.2138 0.514 0.1364 0.137 0.3213 0.213 0.5142 0.214z" fill="#ccc"/>
<path d="m254.81 392.66h21.104c0.965-1e-3 1.89-0.385 2.572-1.067s1.066-1.607 1.067-2.572v-19.648c-1e-3 -0.965-0.385-1.89-1.067-2.572s-1.607-1.066-2.572-1.067h-21.104c-0.965 1e-3 -1.889 0.385-2.572 1.067s-1.065 1.607-1.067 2.572v19.648c2e-3 0.965 0.385 1.89 1.067 2.572s1.607 1.066 2.572 1.067zm-47.303 0h21.104c0.965-1e-3 1.89-0.385 2.572-1.067s1.066-1.607 1.067-2.572v-44.392c-1e-3 -0.965-0.385-1.889-1.067-2.571s-1.607-1.066-2.572-1.067h-21.104c-0.965 1e-3 -1.889 0.385-2.572 1.067s-1.065 1.607-1.067 2.571v44.392c2e-3 0.965 0.385 1.89 1.067 2.572s1.607 1.066 2.572 1.067zm-48.03 0h21.104c0.965-1e-3 1.89-0.385 2.572-1.067s1.066-1.607 1.067-2.572v-69.135c-1e-3 -0.965-0.385-1.889-1.067-2.571s-1.607-1.066-2.572-1.067h-21.104c-0.965 1e-3 -1.89 0.385-2.572 1.067s-1.066 1.606-1.067 2.571v69.135c1e-3 0.965 0.385 1.89 1.067 2.572s1.607 1.066 2.572 1.067zm-49.486 0h21.104c0.965-1e-3 1.89-0.385 2.572-1.067s1.066-1.607 1.067-2.572v-93.15c-1e-3 -0.965-0.385-1.889-1.067-2.572s-1.607-1.065-2.572-1.067h-21.104c-0.965 2e-3 -1.89 0.385-2.572 1.067s-1.066 1.607-1.067 2.572v93.15c1e-3 0.965 0.385 1.89 1.067 2.572s1.607 1.066 2.572 1.067z" fill="#4F7A99"/>
<path d="m80.157 392.66h215.41c0.193-1e-3 0.378-0.077 0.514-0.214 0.137-0.136 0.214-0.321 0.214-0.514s-0.077-0.378-0.213-0.514c-0.137-0.137-0.322-0.214-0.515-0.214h-215.41c-0.193 0-0.378 0.077-0.515 0.214s-0.213 0.321-0.213 0.514c5e-4 0.193 0.0774 0.378 0.2138 0.514 0.1364 0.137 0.3213 0.213 0.5142 0.214z" fill="#3F3D56"/>
<path d="m589.48 20.469h-418.48c-11.046 0-20 8.955-20 20v236.44c0 11.046 8.954 20 20 20h418.48c11.046 0 20-8.954 20-20v-236.44c0-11.045-8.954-20-20-20z" fill="#fff"/>
<path d="m171 20.969h418.48c10.77 0 19.5 8.731 19.5 19.5v236.44c0 10.77-8.73 19.5-19.5 19.5h-418.48c-10.77 0-19.5-8.73-19.5-19.5v-236.44c0-10.769 8.73-19.5 19.5-19.5z" stroke="#fff" stroke-opacity=".5"/>
<path d="m164.81 35.421c1.797 0 3.255-1.472 3.255-3.287s-1.458-3.287-3.255-3.287-3.255 1.471-3.255 3.287 1.457 3.287 3.255 3.287z" fill="#C96379"/>
<path d="m173.13 35.421c1.798 0 3.255-1.472 3.255-3.287s-1.457-3.287-3.255-3.287-3.255 1.471-3.255 3.287 1.457 3.287 3.255 3.287z" fill="#DD6C37"/>
<path d="m181.44 35.421c1.797 0 3.255-1.472 3.255-3.287s-1.458-3.287-3.255-3.287-3.255 1.471-3.255 3.287 1.457 3.287 3.255 3.287z" fill="#5A928B"/>
<path d="m322.06 144.44h-160.51v5.59h160.51v-5.59z" fill="#C96379"/>
<g fill="#979797" opacity=".3">
<path d="m598.43 51.947h-256.11v1.016h256.11v-1.016z" opacity=".3"/>
<path d="m598.43 62.11h-256.11v1.017h256.11v-1.017z" opacity=".3"/>
<path d="m598.43 72.274h-256.11v1.016h256.11v-1.016z" opacity=".3"/>
<path d="m598.43 82.437h-256.11v1.016h256.11v-1.016z" opacity=".3"/>
<path d="m598.43 92.599h-256.11v1.017h256.11v-1.017z" opacity=".3"/>
<path d="m598.43 102.76h-256.11v1.016h256.11v-1.016z" opacity=".3"/>
<path d="m598.43 112.93h-256.11v1.016h256.11v-1.016z" opacity=".3"/>
<path d="m598.43 123.09h-256.11v1.016h256.11v-1.016z" opacity=".3"/>
<path d="m598.43 133.25h-256.11v1.016h256.11v-1.016z" opacity=".3"/>
<path d="m598.43 143.42h-256.11v1.017h256.11v-1.017z" opacity=".3"/>
<path d="m598.43 153.58h-256.11v1.016h256.11v-1.016z" opacity=".3"/>
</g>
<path d="m369.36 137.83h-17.108v4.066h17.108v-4.066zm27.674-9.655h-17.108v4.066h17.108v-4.066zm27.675-20.326h-17.108v4.065h17.108v-4.065zm27.674 9.655h-17.108v4.066h17.108v-4.066zm27.674-19.818h-17.108v4.065h17.108v-4.065zm27.675 19.818h-17.108v4.066h17.108v-4.066zm27.674-29.981h-17.108v4.065h17.108v-4.065zm27.674-19.818h-17.108v4.065h17.108v-4.065zm27.675 10.163h-17.108v4.065h17.108v-4.065z" fill="#C96379"/>
<g opacity=".3">
<path d="m573.65 80.917v40.906h-10.567v-52.086h-17.108v52.086h-10.567v-32.268h-17.107v32.268h-38.241v-22.104h-17.108v22.104h-27.925v9.909h-10.316v-21.85h-17.107v21.85h-27.675v10.163h-27.674v11.18h238.5v-72.158h-17.107z" fill="#C96379" opacity=".3"/>
<path d="m573.65 80.917v40.906h-10.567v-52.086h-17.108v52.086h-10.567v-32.268h-17.107v32.268h-38.241v-22.104h-17.108v22.104h-27.925v9.909h-10.316v-21.85h-17.107v21.85h-27.675v10.163h-27.674v11.18h238.5v-72.158h-17.107z" opacity=".3" stroke="#ccc"/>
</g>
<path d="m222.15 182.18c-0.076-0.605-0.229-1.198-0.456-1.764-0.029-0.107-0.08-0.207-0.149-0.293s-0.155-0.156-0.253-0.207c-0.131-0.034-0.267-0.036-0.399-4e-3l-2.047 0.316c-0.172 8e-3 -0.336 0.072-0.467 0.183-0.267 0.283-4e-3 0.739-0.012 1.13-0.025 0.219-0.116 0.424-0.263 0.588-0.146 0.164-0.339 0.278-0.552 0.326-0.428 0.087-0.869 0.082-1.295-0.016l-2.863-0.449c0.844-0.272 1.594-0.778 2.166-1.46 0.377-0.451 0.577-1.292 0.033-1.505-0.162-0.045-0.331-0.059-0.497-0.041-1.297 0.01-2.318-1.083-3.532-1.544-0.777-0.276-1.621-0.296-2.41-0.058-0.791 0.238-1.486 0.722-1.985 1.381l1.525 0.075c0.144-8e-3 0.286 0.03 0.406 0.109 0.334 0.277-0.081 0.81-0.034 1.244 0.061 0.564 0.803 0.685 1.362 0.742s1.268 0.516 0.999 1.014c-2.81 0.978-5.67-1.911-8.621-1.555-0.738 0.143-1.467 0.334-2.181 0.572-4.455 1.139-9.061-1.899-13.612-1.255-1.012 0.174-2.006 0.439-2.971 0.791-0.638 0.156-1.227 0.466-1.716 0.904-0.237 0.226-0.387 0.53-0.423 0.858-0.036 0.327 0.045 0.657 0.228 0.931-1.175 0.098-2.359-0.016-3.494-0.336 0.307 0.173 0.563 0.426 0.74 0.732 0.177 0.307 0.269 0.656 0.267 1.011-1.835 0.302-3.621 0.852-5.311 1.635 0.315 0.53 0.684 1.025 1.099 1.479l-2.323 1.507c0.19 0.062 0.363 0.165 0.507 0.304s0.255 0.308 0.326 0.495c0.07 0.188 0.098 0.39 0.081 0.59s-0.078 0.393-0.18 0.566c0.814-0.365 1.318-1.311 2.189-1.503 0.584-0.062 1.173 0.053 1.69 0.331 0.519 0.278 1.116 0.373 1.695 0.27 0.56-0.166 0.973-0.899 0.617-1.366 2.393-0.705 4.866-1.095 7.358-1.161 0.192-0.024 0.387 0.013 0.557 0.107 0.325 0.227 0.239 0.718 0.222 1.116s0.29 0.922 0.642 0.742c-0.414 0.364-0.06 1.047 0.338 1.429s0.877 0.909 0.634 1.406c-0.064 0.13-0.172 0.233-0.233 0.364-0.18 0.386 0.106 0.837 0.444 1.093 0.371 0.206 0.705 0.473 0.988 0.791 0.235 0.355 0.128 0.977-0.292 1.026l-1.194-1.531c-0.409 0.428-0.688 0.964-0.806 1.544 0.615 0.55 0.997 1.313 1.07 2.135 0.074 0.823-0.167 1.643-0.674 2.295-0.601 0.586-1.267 1.101-1.984 1.534-0.357 0.22-0.66 0.52-0.884 0.877s-0.364 0.762-0.409 1.182c3e-3 1.458-0.115 2.812 0.426 4.164 0.998 2.492 2.15 4.919 3.449 7.265 0.341 0.617 0.782 1.292 1.473 1.398-0.874-2.148-1.661-4.33-2.359-6.542 0.226-0.033 0.456-0.013 0.672 0.059 0.216 0.071 0.413 0.191 0.576 0.352 0.16 0.345 0.242 0.721 0.243 1.102 0.087 0.363 0.233 0.709 0.431 1.024l4.17 7.503c0.277 0.662 0.773 1.207 1.403 1.541 0.443 0.083 0.879 0.205 1.301 0.363 0.304 0.181 0.51 0.504 0.82 0.675 0.879 0.484 2.101-0.444 2.922 0.134 0.211 0.195 0.411 0.401 0.6 0.617 0.758 0.663 2.002 0.219 2.878 0.714 0.523 0.389 0.924 0.922 1.157 1.534 0.754 1.448 1.973 2.866 3.589 2.981 0.508-0.021 1.016-4e-3 1.521 0.053 0.496 0.114 0.985 0.551 0.905 1.059-0.136 0.869 0.289 1.822 0.175 2.695-0.208 1.59-2.442 2.289-2.634 3.882 1e-3 0.351-0.019 0.701-0.058 1.05-0.101 0.418-0.412 0.759-0.523 1.174-0.209 0.788 0.35 1.572 0.964 2.103s1.346 0.987 1.682 1.729c0.355 0.784 0.181 1.699 0.296 2.553 0.252 1.865 1.847 3.248 3.489 4.14 0.526 0.224 0.992 0.568 1.361 1.005 0.423 0.616 0.38 1.426 0.522 2.161 0.345 1.8 1.845 3.283 1.888 5.116 0.03 1.303-0.687 2.485-1.115 3.714-0.402 1.178-0.547 2.429-0.426 3.669 0.121 1.238 0.505 2.436 1.126 3.514 0.355 0.525 0.666 1.078 0.931 1.654 0.404 1.057 0.273 2.259 0.646 3.328 0.493 1.413 1.848 2.58 1.718 4.073 0.615 1.29 1.974 1.924 3.339 2.308l2.448 0.688c0.459 0.168 0.951 0.226 1.436 0.169 0.241-0.035 0.464-0.152 0.631-0.331 0.167-0.18 0.269-0.411 0.29-0.656-1.22-0.191-2.388-0.634-3.429-1.303-0.99-0.738-1.668-2.054-1.292-3.238 0.174-0.548 0.544-1.182 0.192-1.635-0.202-0.26-0.57-0.328-0.798-0.565-0.145-0.212-0.221-0.464-0.217-0.721 4e-3 -0.258 0.088-0.508 0.239-0.715 0.312-0.408 0.557-0.862 0.727-1.347 0.052-0.282 0.017-0.574-0.1-0.835-0.115-0.261-0.309-0.48-0.553-0.628 0.454-0.173 0.867-0.441 1.212-0.785 0.169-0.176 0.281-0.4 0.319-0.642s2e-3 -0.49-0.104-0.71c0.744 0.095 1.623 0.142 2.112-0.433 0.168-0.252 0.275-0.539 0.311-0.84 0.037-0.301 2e-3 -0.606-0.102-0.891-0.212-0.566-0.354-1.156-0.423-1.757 1.717 0.082 3.438 0.023 5.146-0.176-0.247-0.84-0.809-1.55-1.565-1.979 0.773-0.132 1.478-1.067 1.722-1.82 0.208-0.768 0.219-1.577 0.031-2.35-0.058-0.2-0.066-0.412-0.023-0.616 0.124-0.268 0.342-0.481 0.612-0.597l3.839-2.227c0.229-0.116 0.437-0.27 0.614-0.457 0.172-0.262 0.274-0.564 0.298-0.877s-0.032-0.627-0.162-0.912c-0.265-0.567-0.471-1.159-0.615-1.768-0.237-1.858 1.733-3.192 2.398-4.941 0.227-0.701 0.35-1.431 0.364-2.167 0.055-0.788 0.059-1.703-0.54-2.211-0.575-0.487-1.472-0.378-2.073-0.831-0.551-0.415-0.741-1.221-1.343-1.556-0.546-0.305-1.231-0.111-1.839-0.254-1.071-0.252-1.744-1.498-2.837-1.614-0.617-0.065-1.315 0.24-1.82-0.123-0.446-0.319-0.464-0.962-0.548-1.507-0.148-0.846-0.55-1.626-1.153-2.237-0.599-0.608-1.371-1.017-2.211-1.171-0.636-0.103-1.328-0.064-1.869-0.417-0.548-0.357-0.799-1.026-1.229-1.521-0.694-0.798-1.786-1.081-2.809-1.324l-4.162-0.988c-0.739-0.176-1.691-0.269-2.087 0.385-0.118 0.249-0.201 0.513-0.247 0.784-0.149 0.492-0.448 0.923-0.854 1.232-0.406 0.308-0.899 0.479-1.408 0.488-0.347-0.599-0.912-1.041-1.577-1.233-0.432-0.073-0.858-0.176-1.276-0.307-0.22-0.108-0.415-0.26-0.574-0.447s-0.279-0.404-0.351-0.639c-0.073-0.235-0.097-0.483-0.072-0.728s0.1-0.482 0.219-0.697c0.24-0.432 0.332-0.931 0.263-1.421-0.068-0.489-0.295-0.942-0.645-1.29-0.377-0.294-0.808-0.51-1.268-0.636-0.46-0.125-0.94-0.158-1.412-0.096-0.249-0.548 0.167-1.166 0.615-1.564s0.991-0.789 1.089-1.383c0.153-0.935-1.028-1.646-1.925-1.367s-1.469 1.159-1.847 2.026c-0.182 0.512-0.433 0.997-0.745 1.441-0.159 0.22-0.376 0.391-0.626 0.495-0.249 0.103-0.523 0.134-0.789 0.09-0.739-0.19-1.024-1.076-1.187-1.828-0.263-1-0.395-2.029-0.394-3.063 6e-3 -1.045 0.416-2.046 1.143-2.79 1.228-1.138 3.111-1.027 4.768-0.845-0.178-0.239-0.264-0.534-0.241-0.831 0.022-0.297 0.152-0.575 0.365-0.784 0.221-0.199 0.487-0.34 0.774-0.411s0.587-0.071 0.874 2e-3c0.5 0.105 0.949 0.376 1.277 0.771 0.471 0.579 0.605 1.362 0.961 2.02s1.156 1.219 1.811 0.866c0.565-0.305 0.655-1.097 0.514-1.729-0.222-0.608-0.353-1.245-0.388-1.891 0.097-1.232 1.361-1.973 2.477-2.481s2.393-1.189 2.57-2.412c6e-3 -0.239 0.051-0.476 0.132-0.701 0.123-0.198 0.295-0.362 0.5-0.474 3.256-2.174 6.566-4.373 10.288-5.561 0.193-0.062 0.216 7e-3 0.413-0.041 0.277-0.162 0.094-0.607-0.171-0.787s-0.619-0.318-0.686-0.632c-0.049-0.232 0.086-0.459 0.121-0.693 9e-3 -0.141-0.017-0.283-0.075-0.412-0.057-0.129-0.145-0.241-0.256-0.328-0.111-0.086-0.241-0.145-0.38-0.169-0.139-0.023-0.281-0.012-0.414 0.032-0.299-0.4 0.293-0.864 0.771-0.997 1.436-0.4 2.91-0.643 4.398-0.726 0.172-0.028 0.348 3e-3 0.501 0.086 0.109 0.107 0.174 0.251 0.181 0.404 9e-3 0.153-0.042 0.304-0.141 0.421-0.204 0.227-0.429 0.433-0.673 0.617-0.242 0.238-0.413 0.537-0.497 0.866s-0.077 0.675 0.021 1c0.776 0.399 1.62 0.81 2.48 0.669s1.624-1.116 1.22-1.895c-0.377-0.726-1.508-0.89-1.702-1.685-0.228-0.932 1.078-1.76 0.784-2.672-0.129-0.4-0.523-0.635-0.826-0.923-0.357-0.354-0.6-0.808-0.697-1.304s-0.043-1.009 0.154-1.474c-0.493 0.088-0.999 0.055-1.477-0.096s-0.913-0.416-1.267-0.771c-0.657-0.669-1.18-1.725-2.113-1.695-0.855 0.028-1.592 1.036-2.392 0.728-0.196-0.075-0.404-0.229-0.595-0.139-0.062 0.041-0.114 0.096-0.153 0.16-0.038 0.064-0.062 0.137-0.068 0.212-0.204 0.981 0.146 2.1-0.384 2.948-0.576 0.923-1.909 1.05-2.608 1.883-0.379 0.451-0.526 1.06-0.875 1.536s-1.088 0.78-1.507 0.364c0.206-0.427 0.262-0.912 0.159-1.375-0.102-0.463-0.357-0.877-0.723-1.175-0.389-0.256-0.807-0.462-1.247-0.613-0.491-0.21-0.958-0.472-1.392-0.783-0.218-0.133-0.395-0.324-0.511-0.553-0.092-0.286-0.08-0.596 0.035-0.873 0.211-0.613 0.585-1.157 1.082-1.574 0.496-0.415 1.095-0.685 1.732-0.782 0.557-0.076 1.206-0.049 1.574-0.478 0.195-0.227 0.298-0.57 0.581-0.662 0.181-0.037 0.369-0.013 0.536 0.067l2.079 0.739c0.232 0.106 0.488 0.148 0.741 0.124 0.126-0.018 0.24-0.082 0.321-0.181 0.08-0.099 0.121-0.225 0.113-0.352-0.066-0.349-0.598-0.517-0.549-0.868 0.027-0.114 0.088-0.217 0.174-0.296 0.749-0.805 1.666-1.434 2.687-1.842 1.019-0.406 2.115-0.58 3.209-0.509 0.262 0.435-0.153 0.951-0.498 1.322s-0.623 1.036-0.205 1.322c0.171 0.088 0.361 0.131 0.553 0.126 0.512 0.07 1.01 0.222 1.474 0.451 0.718 0.316 1.423 0.661 2.114 1.037-0.1-0.455-0.081-0.929 0.053-1.375 0.075-0.219 0.228-0.402 0.431-0.514 0.202-0.111 0.438-0.142 0.661-0.086 0.414 0.161 0.625 0.713 1.066 0.764 0.587 0.068 0.818-0.808 0.573-1.351s-0.731-0.998-0.771-1.593c-0.027-0.402 0.124-0.9-0.194-1.143-0.113-0.073-0.241-0.119-0.375-0.133l-7.932-1.474c-0.471-0.087-1.151-0.02-1.172 0.463-0.012 0.27 0.227 0.536 0.121 0.784-0.113 0.265-0.483 0.241-0.753 0.335-0.202 0.093-0.368 0.25-0.474 0.447s-0.146 0.423-0.115 0.645c0.074 0.443 0.244 0.863 0.497 1.231-0.516-0.217-1.297-0.257-1.813-0.475zm-6.329-6.8c-0.5-0.168-1.039-0.175-1.544-0.023s-0.951 0.459-1.278 0.876c-0.076 0.077-0.129 0.175-0.152 0.281-0.023 0.107-0.016 0.217 0.021 0.32 0.157 0.27 0.557 0.163 0.851 0.067 0.433-0.156 0.904-0.168 1.344-0.033 0.276 0.096 0.524 0.266 0.802 0.358 0.135 0.057 0.283 0.076 0.428 0.055 0.145-0.022 0.281-0.083 0.395-0.176 0.163-0.223 0.236-0.501 0.203-0.777 0.013-0.092 5e-3 -0.186-0.022-0.275-0.027-0.088-0.074-0.17-0.136-0.238-0.111-0.065-0.236-0.103-0.364-0.109-0.288-0.054-0.549-0.208-0.735-0.434l0.187 0.108zm2.86-0.805c-0.112-6e-3 -0.224 0.017-0.324 0.067-0.101 0.05-0.187 0.125-0.25 0.219s-0.102 0.202-0.112 0.314c-0.01 0.113 9e-3 0.226 0.054 0.33 0.344 0.094 0.703 0.118 1.056 0.069 0.177-0.028 0.341-0.107 0.472-0.229s0.224-0.28 0.267-0.454c-0.416 0.076-0.845-7e-3 -1.204-0.232l0.041-0.084zm9.596-1.343c-0.936 0.202-1.845 0.513-2.708 0.929 0.408 0.159 0.754 0.444 0.987 0.815 0.234 0.372 0.344 0.81 0.313 1.249-0.037 0.168-0.032 0.343 0.012 0.51 0.1 0.243 0.388 0.335 0.641 0.397 0.455 0.14 0.93 0.201 1.406 0.182 0.238-0.013 0.469-0.085 0.672-0.211 0.203-0.125 0.372-0.3 0.492-0.508 0.069-0.197 0.149-0.39 0.242-0.577 0.607-0.934 2.411 0.195 3.063-0.708 0.23-0.318 0.209-0.796 0.508-1.048 0.155-0.11 0.334-0.179 0.522-0.202 1.311-0.263 2.636-0.453 3.968-0.57 0.631-0.056 1.453-0.285 1.459-0.924-2.378-0.472-4.845-0.137-7.011 0.952-0.781 0.395-1.815 1.227-2.567 0.703-0.282-0.196-0.268-0.725-0.656-0.945-0.429-0.173-0.904-0.188-1.343-0.044zm7.773 1.468 1.116 0.217c-0.205-9e-3 -0.41 0.026-0.601 0.103s-0.363 0.194-0.506 0.344c-0.142 0.15-0.251 0.329-0.32 0.524-0.068 0.196-0.095 0.404-0.077 0.611 1.044 0.353 2.184 0.01 3.284 0.056s2.381 0.841 2.193 1.937c-0.056 0.332-0.246 0.663-0.147 0.984 0.106 0.209 0.232 0.408 0.376 0.593 0.089 0.229 0.114 0.479 0.07 0.721-0.043 0.242-0.152 0.467-0.315 0.651-0.292 0.392-0.685 0.706-0.941 1.123-0.638 1.039-0.276 2.381 0.104 3.542 0.11 0.438 0.313 0.846 0.595 1.198 0.562 0.605 1.479 0.657 2.301 0.669 0.597 9e-3 1.282-0.021 1.66-0.488 0.494-0.611 0.149-1.564 0.474-2.281 0.295-0.651 1.047-0.93 1.728-1.128 1.262-0.312 2.499-0.719 3.699-1.219 1.466-0.681 2.835-1.741 4.445-1.829 0.452 0.019 0.905-0.013 1.35-0.096 0.223-0.047 0.423-0.166 0.57-0.34 0.147-0.173 0.234-0.392 0.245-0.62-0.028-0.39-0.354-0.675-0.609-0.969s-0.455-0.745-0.221-1.055l4.221-0.797c-0.299-0.823-0.532-1.907 0.155-2.443 0.248-0.194 0.581-0.271 0.792-0.505 0.152-0.222 0.212-0.494 0.168-0.76s-0.189-0.504-0.405-0.664c-0.446-0.301-0.971-0.462-1.509-0.462-1.855-0.112-3.715-0.095-5.567 0.05l-10.874 0.602c-0.754-0.031-1.509 0.046-2.241 0.23-0.517 0.294-1.058 0.541-1.618 0.741-1.196 0.253-2.512 0.082-3.595 0.76zm19.988 8.906c-0.114-0.018-0.23 9e-3 -0.325 0.075-0.063 0.07-0.1 0.159-0.106 0.253-0.072 0.414 0.014 0.841 0.241 1.195 0.114 0.173 0.273 0.313 0.46 0.403 0.186 0.091 0.394 0.129 0.601 0.111 0.502-0.065 0.872-0.498 1.334-0.709 0.712-0.325 3.735-0.832 1.644-1.973-0.721-0.393-1.187-0.046-1.755 0.213-0.646 0.334-1.37 0.483-2.094 0.432zm18.317-9.55c-0.245 0.101-0.45 0.281-0.581 0.511-0.061 0.117-0.076 0.253-0.04 0.38s0.118 0.236 0.231 0.303c0.091 0.034 0.188 0.049 0.285 0.046l0.993 0.03c0.421 0.013 0.948 0.103 1.062 0.514 0.084 0.305-0.105 0.696 0.123 0.914 0.097 0.076 0.215 0.123 0.337 0.133 0.328 0.085 0.669 0.096 1.001 0.033 0.722-0.196 0.343-0.641 0.57-1.038 0.348-0.606 0.288-0.239 0.902-0.587 0.453-0.257 1.038-0.722 0.66-1.377-0.658-1.138-4.573-0.351-5.543 0.138zm19.596-0.572-0.576 0.078c-1.305 0.138-2.597 0.388-3.86 0.746 0.542 0.216 1.11 0.357 1.69 0.419 0.319 0.016 0.636 0.061 0.947 0.136 0.553 0.166 1.111 0.595 1.645 0.376 0.331-0.137 0.439-0.485 0.714-0.67 0.189-0.127 0.908-0.334 0.988-0.462 0.65-1.041-1.048-0.69-1.548-0.623zm2.532 2.646c-0.771 0.436-1.486 0.964-2.128 1.574-0.15 0.112-0.275 0.255-0.365 0.419s-0.144 0.346-0.158 0.533c0.033 0.497 0.558 0.786 1.013 0.981l1.843 0.788c0.224-0.318 0.019-0.758-0.212-1.07s-0.506-0.675-0.404-1.051c0.117-0.43 0.635-0.576 1.07-0.65 0.709-0.121 2.62-0.111 2.39-1.264-0.27-1.359-2.338-0.661-3.049-0.26zm-0.371 76.887c-0.101 0.252-0.144 0.525-0.124 0.796 0.019 0.272 0.1 0.535 0.236 0.77 0.186 0.24 0.438 0.421 0.723 0.521s0.595 0.114 0.889 0.041c0.587-0.158 1.11-0.497 1.496-0.972 0.353-0.397 0.643-0.846 0.861-1.333 0.304-0.758 0.518-1.549 0.638-2.357l0.572-3.034c0.128-0.679 0.123-2.758-1.111-2.08-0.337 0.185-1.118 1.646-1.471 2.06-0.637 0.747-0.721 1.471-1.057 2.376-0.42 1.133-1.263 2.078-1.652 3.212zm65.185 15.528c-0.404-0.159-0.796-0.348-1.173-0.564-0.378 1.05-0.579 2.156-0.594 3.272l2.763-1.579c0.416-0.237 0.887-0.567 0.878-1.05 4e-3 -0.059-8e-3 -0.119-0.035-0.172s-0.068-0.098-0.118-0.13c-0.061-0.025-0.128-0.033-0.194-0.023-0.404 0.074-0.798 0.202-1.169 0.38-0.187 0.088-0.39 0.134-0.596 0.135s-0.41-0.043-0.598-0.129l0.836-0.14zm14.577 0.937c-0.303 0.084-0.599 0.191-0.886 0.322-0.634 0.326-1.066 0.944-1.636 1.374-0.568 0.381-1.192 0.67-1.849 0.855-0.039 0.049-0.068 0.105-0.085 0.166-0.016 0.061-0.019 0.125-0.01 0.187 0.01 0.063 0.033 0.122 0.067 0.175s0.079 0.098 0.131 0.132c0.221 0.127 0.476 0.185 0.73 0.165 0.67 0.074 1.347-0.032 1.964-0.305 0.331-0.217 0.641-0.465 0.925-0.741 0.711-0.548 1.494-0.996 2.327-1.33 0.297-0.113 0.572-0.279 0.811-0.489 0.513-0.511 0.549-1.298-0.19-1.472-0.598-0.14-1.73 0.776-2.299 0.961z" fill="#ccc"/>
<path d="m382.32 265.23c0.033-0.351-0.013-0.706-0.135-1.036-0.121-0.33-0.316-0.628-0.57-0.872 0.059 0.704-0.087 1.411-0.42 2.032-0.279 0.414-0.716 0.694-1.021 1.088-0.172 0.181-0.274 0.418-0.289 0.667-0.015 0.25 0.058 0.497 0.206 0.698 0.229 0.176 0.508 0.273 0.795 0.277 0.714 0.085 1.539 0.132 2.039-0.388 0.273-0.284 0.406-0.705 0.739-0.914 0.124-0.052 0.235-0.132 0.324-0.234 0.137-0.221-0.081-0.512-0.327-0.591s-0.517-0.042-0.764-0.118-0.474-0.356-0.347-0.583l-0.23-0.026zm-11.447-25.758c-0.374 0.091-0.762 0.115-1.144 0.068-0.618-0.199-1.181-0.541-1.642-0.998-1.215-0.936-2.697-1.458-4.23-1.492-1.393-0.027-2.799 0.354-4.167 0.088 0.067 0.246 0.189 0.474 0.357 0.666 0.168 0.191 0.377 0.341 0.612 0.437 0.454 0.223 0.955 0.336 1.411 0.555 0.732 0.357 1.311 0.965 1.631 1.714 0.114 0.359 0.269 0.703 0.462 1.026 0.263 0.279 0.59 0.489 0.952 0.612s0.748 0.154 1.125 0.091c0.992-0.066 2.028-0.354 2.951 0.019 0.666 0.371 1.273 0.841 1.8 1.395 0.589 0.485 1.419 0.845 2.096 0.495-0.703-0.23-1.315-0.681-1.746-1.287s-0.66-1.335-0.652-2.081c0.664 0.062 2.576 0.038 2.473-1.101-0.087-0.965-1.719-0.312-2.289-0.207zm-8.683 7.853c0.117-0.652 0.762-1.229 0.561-1.861-0.095-0.208-0.251-0.383-0.446-0.502-0.195-0.118-0.421-0.174-0.649-0.161-0.454-0.011-0.9 0.126-1.354 0.139-0.296-0.016-0.592-0.012-0.887 0.012-0.902 0.15-1.458 1.104-2.307 1.444-0.538 0.136-1.084 0.239-1.635 0.309-1.219 0.324-1.991 1.488-2.844 2.427-1.373 1.507-3.169 2.564-5.152 3.034-0.709 0.084-1.389 0.331-1.99 0.721-0.73 0.602-0.909 1.635-1.072 2.572-0.449 2.59-1.134 5.133-2.048 7.594l2.896 0.374c0.546 0.11 1.109 0.102 1.652-0.024 0.385-0.147 0.75-0.344 1.086-0.585 1.29-0.809 2.734-1.335 4.238-1.545 0.756-0.143 1.537-0.087 2.265 0.161 0.362 0.129 0.682 0.356 0.926 0.656s0.401 0.661 0.456 1.045c0.308-0.097 0.636-0.107 0.949-0.03 0.314 0.077 0.6 0.239 0.829 0.467 0.454 0.466 0.751 1.065 0.849 1.711 0.077 0.4 0.153 0.88 0.521 1.048 0.3 0.137 0.644-0.011 0.972-0.037 1.113-0.09 2.037 1.221 3.132 0.995 1.174-0.242 1.462-2.017 2.607-2.373 0.658-0.204 1.58 0.044 1.895-0.574 0.278-0.544-0.276-1.173-0.219-1.782 0.07-0.751 0.947-1.07 1.623-1.39 1.146-0.598 2.023-1.615 2.451-2.843 0.429-1.229 0.377-2.574-0.144-3.766-0.669-1.385-1.985-2.474-2.229-3.995-0.187-1.17 0.27-2.535-0.469-3.456-0.375-0.468-1.012-0.727-1.235-1.286-0.087-0.369-0.14-0.744-0.16-1.123-0.076-0.372-0.397-0.76-0.761-0.664-1.055 0.28-1.391 3.571-1.956 4.371-0.173 0.259-0.432 0.448-0.731 0.533-0.298 0.085-0.616 0.06-0.898-0.07s-0.51-0.356-0.642-0.639c-0.133-0.284-0.161-0.605-0.08-0.907zm-19.503-6.609c-0.35-0.142-0.737-0.162-1.099-0.057-0.346 0.146-0.548 0.658-0.27 0.912 2.167-0.149 4.342-0.106 6.502 0.128 2.478 0.342 4.931 1.191 7.42 0.942-1.422-0.424-2.867-0.763-4.328-1.015l-2.437-0.47c-0.654-0.138-1.314-0.241-1.979-0.309-1.39-0.115-2.442 0.256-3.809-0.131zm2.172-7.631c-0.18-0.015-0.403-0.028-0.497 0.128-0.089 0.15 0.013 0.347-0.035 0.515-0.065 0.229-0.362 0.287-0.596 0.256-0.226-0.07-0.469-0.067-0.694 8e-3 -0.105 0.073-0.184 0.177-0.225 0.299s-0.041 0.254-2e-3 0.376c0.085 0.242 0.222 0.463 0.401 0.645 0.307 0.39 0.656 0.744 1.041 1.055 0.745 0.555 1.755 0.823 2.225 1.63 0.066 0.156 0.168 0.295 0.297 0.404 0.124 0.05 0.258 0.069 0.391 0.056 0.132-0.014 0.26-0.059 0.371-0.133l0.851-0.393c0.153-0.056 0.29-0.15 0.398-0.273 0.073-0.148 0.104-0.314 0.088-0.479-0.015-0.165-0.077-0.322-0.176-0.453-0.204-0.262-0.322-0.581-0.337-0.913 0.062-0.587 0.809-0.811 1.116-1.313s0.108-1.157 0.144-1.751c0.041-0.694 0.473-1.597-0.222-2.116-0.59-0.441-1.155-0.033-1.579 0.453-0.894 1.027-1.317 2.138-2.96 1.999zm5.164-10.371c0.29 0.561 0.896 0.897 1.213 1.444 0.343 0.592 0.304 1.358 0.676 1.933 0.383 0.59 1.151 0.903 1.366 1.573 0.234 0.732-0.297 1.622 0.126 2.262 0.079 0.104 0.178 0.191 0.292 0.255s0.24 0.103 0.37 0.115c0.129 0.012 0.26-3e-3 0.383-0.045 0.124-0.042 0.238-0.109 0.334-0.197 0.178-0.197 0.274-0.455 0.266-0.721s-0.118-0.519-0.308-0.704c-0.25-0.231-0.61-0.331-0.819-0.6-0.109-0.156-0.182-0.334-0.212-0.522-0.114-0.542-0.096-1.104 0.053-1.638 0.056-0.135 0.07-0.284 0.041-0.428-0.095-0.276-0.465-0.296-0.725-0.424-0.591-0.291-0.577-1.133-0.474-1.789-0.068 0.436-1.608-0.306-1.769-0.553-0.321-0.492-0.146-1.439-0.21-1.982-0.336 0.196-0.585 0.514-0.697 0.89s-0.079 0.78 0.094 1.131zm-15.513 8.641c-0.284-0.321-0.712-0.657-1.093-0.463-0.137 0.09-0.237 0.226-0.284 0.383s-0.038 0.327 0.027 0.479c0.138 0.298 0.352 0.556 0.62 0.746 0.827 0.619 1.61 1.296 2.342 2.027 1.239 1.376 1.896 3.233 3.244 4.5 0.27 0.293 0.629 0.49 1.022 0.558 0.196 0.027 0.394-0.021 0.557-0.134 0.162-0.114 0.277-0.285 0.322-0.478-4e-3 -0.164-0.043-0.326-0.113-0.474s-0.171-0.279-0.295-0.386l-1.591-1.706c-0.229-0.231-0.372-0.533-0.407-0.858-3e-3 -0.324 0.29-0.662 0.6-0.582-0.377-0.098-0.657-0.733-1.212-0.852-0.463-0.1-0.575 0.189-1.126-0.049-1.052-0.456-1.877-1.878-2.613-2.711zm24.706-31.286c-0.302-0.091-0.598-0.198-0.888-0.321-0.781-0.237-1.814 0.343-1.71 1.159 0.069 0.543 0.569 0.909 0.845 1.379 0.169 0.369 0.263 0.768 0.278 1.174s-0.051 0.81-0.193 1.19c-0.053 0.242-0.153 0.471-0.295 0.673-0.198 0.213-0.436 0.386-0.7 0.508-1.056 0.599-1.986 1.396-2.738 2.349-0.081 0.088-0.139 0.197-0.165 0.315-0.037 0.276 0.237 0.476 0.392 0.706 0.345 0.511 0.096 1.198 0.13 1.815-5e-3 0.087 0.012 0.174 0.049 0.253 0.038 0.079 0.094 0.147 0.165 0.198 0.208 0.106 0.454-0.075 0.566-0.281 0.374-0.683 0.093-1.78 0.793-2.11 0.133-0.062 0.294-0.089 0.382-0.206 0.14-0.187 5e-3 -0.463 0.076-0.686 0.107-0.335 0.56-0.35 0.908-0.335 0.6 0.025 1.199-0.055 1.771-0.238 0.224-0.054 0.428-0.173 0.586-0.343 0.175-0.293 0.228-0.643 0.149-0.975-0.21-1.674-0.735-3.291-1.546-4.765 0.608 0.147 1.247 0.085 1.816-0.176 0.298-0.182 0.654-0.724 0.507-1.093-0.234-0.584-0.655-0.093-1.178-0.19zm-78.918 9.204c0.107 0.393 0.113 0.807 0.017 1.203-0.054 0.195-0.179 0.363-0.35 0.472-0.17 0.109-0.374 0.15-0.572 0.116-0.298-0.092-0.471-0.395-0.683-0.626-1.179-1.285-3.838-0.541-4.566-2.131-0.297-0.649-0.096-1.426-0.298-2.111-0.127-0.395-0.382-0.737-0.724-0.972-0.341-0.234-0.749-0.347-1.161-0.321-0.375 0.054-0.74 0.165-1.084 0.327-2.301 0.93-4.718 1.541-7.185 1.814-0.469 0.029-0.932 0.114-1.38 0.254-0.992 0.462-1.775 1.277-2.197 2.286-0.416 1.002-0.923 1.964-1.515 2.873-0.754 0.852-1.619 1.599-2.572 2.22-0.349 0.227-0.64 0.535-0.849 0.898-0.163 0.424-0.221 0.882-0.17 1.334l0.185 5.502c-0.025 0.71 0.1 1.417 0.368 2.074 0.392 0.791 1.165 1.309 1.702 2.007 0.548 0.72 0.834 1.606 0.808 2.511-0.012 0.365-0.048 0.795 0.233 1.024 0.171 0.112 0.371 0.17 0.575 0.167l7.369 0.609c1.297 0.107 2.733 0.283 3.58 1.281 0.399 0.471 0.72 1.148 1.332 1.198 0.262-0.015 0.523-0.051 0.78-0.108 0.333 0.013 0.657 0.113 0.939 0.291 0.283 0.179 0.514 0.428 0.672 0.723 0.556 0.852 0.808 1.87 0.715 2.886-0.06 0.638-0.256 1.258-0.298 1.897-0.16 2.432 1.881 4.546 1.921 6.983 0.023 1.434-0.651 2.774-1.308 4.045 1.061 1.622 0.192 3.783 0.615 5.68 0.4 1.799 1.886 3.208 2.256 5.014 0.169 0.827 0.179 1.844 0.901 2.27 0.317 0.156 0.668 0.227 1.02 0.206 2.122 0.026 4.22-0.457 6.122-1.407 0.893-0.448 1.818-1.115 1.974-2.11 0.126-0.801-0.277-1.698 0.133-2.396 0.483-0.823 1.719-0.758 2.43-1.391 1.152-1.026 0.254-2.984 0.721-4.462 0.419-1.329 1.864-2.035 2.58-3.228 0.282-0.514 0.484-1.067 0.6-1.642 0.328-1.374 0.532-2.775 0.61-4.186 0.019-0.858 0.082-1.714 0.188-2.565 0.772-4.845 5.515-8.089 7.055-12.743 0.147-0.445 0.216-1.037-0.176-1.288-0.232-0.112-0.496-0.14-0.746-0.079l-3.397 0.432c-0.418 0.093-0.853 0.067-1.257-0.073-0.198-0.079-0.357-0.233-0.443-0.428-0.086-0.197-0.092-0.419-0.016-0.62 0.577-1.055-0.61-2.389-1.137-3.471-1.419-2.91-3.11-5.679-5.051-8.271-0.124-0.134-0.202-0.304-0.221-0.486l0.964 0.033c-0.325-1.18-0.863-2.471-1.997-2.902-0.661-0.181-1.352-0.223-2.03-0.121-2.005 0.04-4.01-0.124-5.982-0.492zm5.984-26.579c0.452 0.606 1.095 1.039 1.824 1.225 1.306 0.169 2.246-1.196 2.844-2.381 0.022 0.302 0.16 0.584 0.385 0.785 0.223 0.201 0.517 0.305 0.817 0.291 0.323-0.055 0.63-0.176 0.904-0.357 2.589-1.428 5.489-2.185 8.439-2.203-0.028-0.225 0.027-0.453 0.155-0.641 0.129-0.186 0.321-0.319 0.541-0.371 0.6-0.12 1.14 0.404 1.429 0.948 0.215 0.579 0.53 1.114 0.93 1.582 0.459 0.407 1.349 0.389 1.531-0.2 0.174-0.566-0.41-1.049-0.895-1.383s-0.996-0.952-0.67-1.444c2.462-0.627 4.975-1.035 7.509-1.221 0.432 0.016 0.863-0.059 1.264-0.219 0.199-0.085 0.365-0.234 0.472-0.424 0.106-0.19 0.148-0.41 0.119-0.626-0.554 0.132-1.134 0.094-1.666-0.109s-0.992-0.561-1.321-1.028c3.519-0.294 7.262-0.544 10.381 1.129 0.375 0.811-1.533 1.486-1.023 2.218 0.1 0.101 0.221 0.177 0.355 0.224 0.134 0.046 0.277 0.06 0.417 0.042 2.167 0.103 4.338 0.019 6.49-0.25 0.775-0.173 1.569-0.238 2.361-0.193 1.309 0.163 2.429 1.046 3.718 1.333 0.258 0.077 0.529 0.1 0.796 0.068s0.525-0.119 0.758-0.255c0.112-0.073 0.207-0.167 0.282-0.279 0.074-0.111 0.125-0.237 0.15-0.368 0.026-0.132 0.024-0.267-4e-3 -0.398s-0.082-0.255-0.158-0.364c1.213-1.201 3.226-0.904 4.827-0.329s3.116 1.502 4.81 1.63c1.214 0.092 2.446-0.238 3.646-0.028 0.742 0.189 1.474 0.415 2.193 0.679 1.395 0.393 2.869 0.31 4.317 0.329 3.693 0.051 7.346 0.784 10.778 2.163 0.446 0.147 0.855 0.391 1.198 0.715 0.168 0.165 0.284 0.378 0.331 0.61s0.026 0.473-0.063 0.692l-3.547-0.523c0.335 0.664 1.199 0.777 1.901 1.006s1.43 1.012 1.008 1.623c-0.761-0.244-1.45 0.524-1.834 1.23s-0.853 1.553-1.65 1.596c-0.713 0.039-1.577-0.575-2.042-0.027 0.643 0.819 1.193 1.708 1.641 2.649 0.46 0.968 0.787 2.186 0.166 3.056-0.098 0.155-0.246 0.272-0.419 0.328-0.508 0.13-0.837-0.497-1.201-0.877-0.519-0.411-1.126-0.697-1.773-0.838-0.621-0.225-1.275-0.667-1.324-1.331 0.022-0.414 0.14-0.818 0.345-1.179 0.268-0.644 0.385-1.342 0.342-2.038-3e-3 -0.568-0.213-1.114-0.589-1.536-0.192-0.203-0.451-0.33-0.728-0.359-0.278-0.029-0.557 0.043-0.787 0.202-0.2 0.167-0.36 0.435-0.619 0.445-0.458 0.018-0.81-0.789-1.179-0.514 0.044 0.293-0.016 0.592-0.17 0.846-1.1 0.967-2.79 0.558-4.208 0.899-0.675 0.195-1.321 0.48-1.92 0.847-0.225 0.097-0.416 0.259-0.549 0.465-0.069 0.183-0.074 0.385-0.014 0.571s0.181 0.345 0.344 0.453c0.331 0.205 0.703 0.333 1.089 0.375 1.729 0.331 3.483 0.843 4.848 1.964s2.26 2.976 1.828 4.699l-3.409-3.291c0.129 1.382 0.203 2.767 0.22 4.157 0.022 0.271-0.015 0.544-0.108 0.799-0.243 0.542-0.902 0.725-1.479 0.844-0.161 0.031-0.313 0.096-0.447 0.19-0.134 0.095-0.247 0.217-0.331 0.359-0.084 0.141-0.137 0.299-0.157 0.463s-4e-3 0.33 0.045 0.488c0.266 0.654 0.67 1.243 1.185 1.726 0.517 0.486 0.864 1.126 0.991 1.824 0.061 0.704-0.465 1.497-1.162 1.448-0.261-0.052-0.504-0.172-0.705-0.347s-0.353-0.4-0.442-0.653c-0.172-0.507-0.407-0.989-0.699-1.436-1.026-1.246-3.33-0.712-4.249-2.041-0.235 0.269-0.397 0.594-0.472 0.943-0.075 0.35-0.061 0.712 0.042 1.055 0.231-0.104 0.49-0.123 0.733-0.055 0.244 0.069 0.457 0.22 0.601 0.429 0.278 0.425 0.521 0.872 0.725 1.337 0.341 0.595 0.882 1.123 0.93 1.809-0.013 0.259-8e-3 0.519 0.013 0.778 0.151 0.395 0.379 0.756 0.673 1.061 0.255 0.423 0.403 0.902 0.433 1.396s-0.06 0.987-0.261 1.439c-0.411 0.896-0.97 1.716-1.655 2.426-1.091 1.325-2.296 2.552-3.603 3.665-0.404 0.276-0.751 0.629-1.023 1.039-0.131 0.208-0.19 0.454-0.169 0.7 0.02 0.245 0.12 0.477 0.284 0.66-0.26 0.013-0.727 0.143-0.988 0.156-0.091-1.055-0.111-2.115-0.059-3.172-1.028-0.499-2.134 0.836-2.001 1.979s0.951 2.061 1.534 3.05c0.474 0.704 0.687 1.552 0.601 2.396-0.057 0.418-0.261 0.801-0.574 1.08-0.312 0.279-0.714 0.436-1.132 0.441-1.321-0.116-1.873-2.031-3.181-2.25-0.115-0.027-0.236-0.015-0.344 0.034-0.194 0.108-0.228 0.37-0.239 0.594-0.134 1.093-0.023 2.202 0.324 3.247 0.62 1.479 2.222 2.721 1.886 4.29-1.81-0.849-2.751-2.899-3.179-4.868s-0.498-4.036-1.264-5.897c-0.581 0.752-1.804 0.13-2.335-0.66-0.504-0.748-0.814-1.614-1.303-2.373-0.216-0.396-0.522-0.737-0.893-0.995-0.37-0.257-0.794-0.423-1.24-0.485-0.938-0.044-1.753 0.607-2.468 1.222-0.624 0.467-1.147 1.055-1.538 1.729-0.501 1.017-0.37 2.216-0.394 3.351 0.053 1.237-0.342 2.451-1.112 3.421-0.828 0.899-2.357 1.212-3.271 0.402-0.442-0.466-0.757-1.038-0.914-1.661-0.991-2.923-1.817-5.9-2.473-8.918-0.154 0.689-0.753 1.576-1.325 1.171-0.128-0.11-0.232-0.245-0.305-0.397-1.067-1.827-3.043-2.923-5.04-3.58s-4.098-0.963-6.073-1.685c-1.107-0.406-2.164-0.938-3.15-1.585-0.251 0.373-0.398 0.808-0.425 1.259-0.026 0.45 0.068 0.9 0.274 1.301 0.221 0.392 0.564 0.699 0.976 0.874 0.412 0.174 0.87 0.205 1.302 0.088 0.438-0.141 0.808-0.449 1.243-0.6 0.21-0.097 0.447-0.115 0.668-0.052 0.222 0.064 0.415 0.205 0.542 0.398 0.182 0.405-0.093 0.895 0.043 1.318 0.208 0.644 1.17 0.694 1.507 1.28 0.1 0.232 0.123 0.489 0.067 0.735-0.057 0.246-0.19 0.468-0.38 0.633-0.388 0.319-0.815 0.584-1.271 0.79-1.416 0.795-2.423 2.152-3.66 3.208s-2.983 1.828-4.458 1.15c0.352-1.797-1.769-3.117-2.159-4.907-0.128-0.589-0.061-1.214-0.245-1.788-0.265-0.831-0.995-1.403-1.594-2.032-0.726-0.772-1.292-1.684-1.664-2.68-0.372-0.998-0.543-2.059-0.502-3.123 0.1-0.734 0.1-1.478 0-2.212-0.059-0.366-0.238-0.701-0.508-0.953-0.269-0.25-0.615-0.403-0.982-0.433-1.673 0.075-3.78 0.201-4.657-1.239-0.313-0.514-0.45-1.267 3e-3 -1.661 0.178-0.114 0.376-0.191 0.584-0.227s0.421-0.03 0.627 0.017l3.768 0.375c0.881 0.087 1.834 0.16 2.591-0.306s1.084-1.7 0.383-2.248c-0.511-0.4-1.428-0.378-1.577-1.014-0.124-0.53 0.457-1.131 0.143-1.574-0.225-0.317-0.73-0.229-1.036 9e-3 -0.268 0.28-0.56 0.536-0.872 0.766-0.601 0.316-1.32 0.015-1.967-0.189s-1.514-0.222-1.828 0.385c-0.351 0.679 0.312 1.568-0.037 2.248-0.46 0.899-2.02 0.387-2.666 1.161-0.742 0.887 0.505 2.21 0.254 3.344-0.319 0.16-0.674 0.233-1.03 0.213s-0.701-0.133-1.001-0.328c-0.294-0.203-0.529-0.482-0.679-0.809-0.151-0.327-0.21-0.688-0.173-1.046 0.062-0.51 0.325-1.031 0.149-1.513-0.191-0.37-0.506-0.661-0.89-0.822l-3.662-2.044c-0.34 0.637 0.089 1.427 0.627 1.905s1.211 0.839 1.564 1.469c0.223 0.437 0.273 0.942 0.14 1.414s-0.44 0.875-0.858 1.127c-0.052 0.036-0.112 0.061-0.175 0.072s-0.127 8e-3 -0.188-8e-3c-0.059-0.035-0.11-0.081-0.15-0.136s-0.07-0.118-0.086-0.184c-0.646-1.67-1.616-3.317-3.167-4.189s-3.779-0.693-4.796 0.777c-0.242 0.349-0.404 0.747-0.615 1.116-1.118 1.96-3.515 2.888-5.754 2.828-0.219 0.012-0.437-0.04-0.628-0.149-0.362-0.253-0.345-0.788-0.29-1.229l0.235-1.87c1e-3 -0.382 0.148-0.749 0.41-1.025 0.415-0.331 1.013-0.122 1.542-0.13 0.4-0.019 0.785-0.161 1.102-0.409 0.318-0.248 0.552-0.588 0.671-0.973 0.107-0.39 0.106-0.802-2e-3 -1.192-0.107-0.389-0.319-0.741-0.611-1.019-0.242-0.23-0.567-0.519-0.439-0.828 0.051-0.086 0.12-0.159 0.202-0.215s0.175-0.093 0.273-0.108c0.949-0.279 1.952-0.352 2.885-0.68 0.478-0.131 0.916-0.38 1.276-0.725s0.629-0.774 0.783-1.248c0.068-0.298 0.099-0.659 0.364-0.807 0.133-0.057 0.276-0.086 0.42-0.087 0.507-0.073 0.968-0.335 1.291-0.732 0.325-0.4 0.49-0.906 0.463-1.421 0.247-0.119 0.524-0.158 0.793-0.113s0.519 0.172 0.714 0.365c0.384 0.392 0.839 0.706 1.341 0.924 0.981 0.27 1.929-0.608 2.946-0.612 0.421 0.074 0.851 0.076 1.273 5e-3 0.407-0.149 0.651-0.559 0.964-0.861s0.862-0.488 1.151-0.162l-0.246-1.841c0.496 0.127 1.012 0.145 1.515 0.053s0.981-0.292 1.402-0.585l-3.181-1.086c-0.111-0.028-0.213-0.083-0.298-0.16-0.231-0.252-1e-3 -0.644 0.187-0.929 0.45-0.684 0.525-1.811-0.215-2.151-0.504-0.233-1.084 0.046-1.569 0.319l-2.321 1.308c-0.074 0.445 0.466 0.698 0.8 0.998 0.203 0.182 0.346 0.421 0.411 0.686s0.049 0.544-0.045 0.8-0.263 0.477-0.485 0.635c-0.221 0.157-0.485 0.243-0.756 0.247 0.153 0.201 0.26 0.434 0.311 0.681 0.052 0.248 0.047 0.504-0.012 0.75l-1.562 0.114c-0.176 0.035-0.358-1e-3 -0.507-0.1-0.167-0.15-0.144-0.413-0.183-0.635-0.07-0.264-0.216-0.5-0.42-0.68-0.203-0.179-0.455-0.294-0.724-0.329-0.538-0.059-1.082-8e-3 -1.599 0.15-0.223 0.081-0.469 0.075-0.688-0.016-0.126-0.083-0.221-0.205-0.272-0.347-0.091-0.292-0.106-0.603-0.044-0.902 0.061-0.299 0.199-0.577 0.399-0.808 0.404-0.455 0.849-0.869 1.332-1.237 1.09-0.967 1.889-2.219 2.308-3.615 0.859-0.364 1.75-0.858 2.609-1.222 1.324-0.677 2.812-0.969 4.293-0.84l2.912 0.056c0.864-0.037 1.727 0.089 2.545 0.37 0.408 0.147 0.768 0.404 1.041 0.741 0.274 0.338 0.451 0.746 0.512 1.178 0.016 0.099 8e-3 0.2-0.025 0.294-0.032 0.094-0.088 0.178-0.162 0.244-0.112 0.063-0.24 0.092-0.368 0.084-0.804 0.029-1.147 0.231-1.951 0.26zm-23.21 9.216c0.113-0.108 0.195-0.247 0.236-0.399 0.041-0.153 0.04-0.314-4e-3 -0.466-0.277-0.108-0.578-0.136-0.87-0.08s-0.563 0.192-0.781 0.395c-0.173 0.176-0.321 0.375-0.442 0.59-0.224 0.293-0.384 0.631-0.47 0.99-0.086 0.36-0.096 0.734-0.029 1.098 0.018 0.077 0.051 0.149 0.097 0.213s0.105 0.118 0.172 0.159c0.099 0.04 0.206 0.057 0.313 0.049 0.422 0 0.843-0.027 1.261-0.078 0.257-0.032 0.556-0.105 0.655-0.347 0.13-0.317-0.185-0.676-0.093-1.007 0.06-0.148 0.152-0.281 0.269-0.389 0.058-0.055 0.102-0.123 0.129-0.198 0.028-0.075 0.038-0.155 0.029-0.234-0.037-0.155-0.272-0.243-0.357-0.109l-0.115-0.187zm2.186-2.862c-0.375-0.086-0.761-0.111-1.143-0.072-0.085-3e-3 -0.169 0.017-0.244 0.056-0.073 0.054-0.126 0.131-0.15 0.219-0.08 0.262-0.061 0.545 0.056 0.793 0.116 0.247 0.32 0.441 0.573 0.543 0.138 0.032 0.269 0.086 0.39 0.159 0.323 0.253 0.117 0.771 0.178 1.179 0.069 0.459 0.508 0.844 0.428 1.3-0.064 0.36-0.444 0.645-0.383 1.005 0.064 0.378 0.538 0.491 0.916 0.521 0.219 0.039 0.444 0.013 0.649-0.075 0.205-0.142 0.351-0.355 0.409-0.599 0.155-0.465 0.22-0.956 0.192-1.445-2e-3 -0.222-0.057-0.441-0.161-0.638-0.114-0.156-0.24-0.302-0.378-0.436-0.724-0.851 0.039-2.119-1.332-2.51z" fill="#ccc"/>
<path d="m202.74 197.22c1.341 0 2.429-1.098 2.429-2.453s-1.088-2.453-2.429-2.453-2.429 1.099-2.429 2.453 1.088 2.453 2.429 2.453z" fill="#C96379"/>
<path d="m224.68 249.66c1.342 0 2.429-1.098 2.429-2.453s-1.087-2.453-2.429-2.453-2.429 1.098-2.429 2.453 1.088 2.453 2.429 2.453z" fill="#C96379"/>
<path d="m317.74 196.88c1.341 0 2.429-1.098 2.429-2.453s-1.088-2.453-2.429-2.453-2.429 1.098-2.429 2.453 1.087 2.453 2.429 2.453z" fill="#C96379"/>
<path d="m360.45 258.12c1.342 0 2.429-1.098 2.429-2.453s-1.087-2.453-2.429-2.453-2.429 1.098-2.429 2.453 1.088 2.453 2.429 2.453z" fill="#C96379"/>
<path d="m281.14 232.07c1.341 0 2.429-1.098 2.429-2.453s-1.088-2.453-2.429-2.453-2.429 1.098-2.429 2.453 1.088 2.453 2.429 2.453z" fill="#C96379"/>
<path d="m304.15 86.954 0.058-1.707c0.026-7.471-2.888-14.647-8.1-19.948s-12.297-8.294-19.695-8.321l-0.104 29.877 27.841 0.099z" fill="#DD6C37"/>
<path d="m273.83 88.879 0.104-29.877c-5.451-0.0173-10.786 1.5741-15.337 4.575-4.56 3.004-8.15 7.29-10.328 12.33s-2.846 10.613-1.925 16.033c0.916 5.4096 3.387 10.436 7.111 14.465 3.717 4.017 8.518 6.849 13.81 8.144s10.843 0.998 15.969-0.855c5.138-1.861 9.616-5.189 12.88-9.572 3.276-4.392 5.208-9.657 5.557-15.144l-27.841-0.099zm-87.341-16.584-6.506-0.023c-0.353-2e-3 -0.69-0.145-0.939-0.398-0.249-0.2537-0.388-0.5954-0.387-0.951l0.023-6.57c2e-3 -0.356 0.143-0.697 0.393-0.948s0.589-0.392 0.942-0.391l6.506 0.023c0.175 0.0012 0.348 0.0368 0.509 0.105 0.161 0.0681 0.307 0.1673 0.43 0.292 0.249 0.2539 0.389 0.5961 0.387 0.952l-0.023 6.57c-1e-3 0.3556-0.143 0.6962-0.394 0.948-0.25 0.251-0.589 0.392-0.941 0.391z" fill="#5A928B"/>
<path d="m186.49 89.994-6.506-0.023c-0.175-6e-4 -0.348-0.036-0.509-0.1042-0.162-0.0681-0.308-0.1677-0.43-0.2928-0.249-0.2536-0.388-0.5954-0.387-0.951l0.023-6.57c1e-3 -0.3558 0.142-0.6968 0.393-0.949 0.251-0.251 0.589-0.391 0.942-0.39l6.506 0.023c0.175 6e-4 0.348 0.036 0.509 0.1042 0.162 0.0681 0.308 0.1677 0.43 0.2928 0.249 0.2537 0.388 0.5954 0.387 0.951l-0.023 6.57c-1e-3 0.3559-0.143 0.697-0.394 0.949-0.25 0.251-0.589 0.391-0.941 0.39z" fill="#DD6C37"/>
<path d="m186.09 106.76-6.505-0.023c-0.175-1e-3 -0.348-0.037-0.509-0.105s-0.307-0.167-0.43-0.292c-0.249-0.254-0.389-0.596-0.387-0.952l0.023-6.57c1e-3 -0.3554 0.142-0.696 0.393-0.948 0.25-0.251 0.589-0.392 0.942-0.391l6.505 0.023c0.175 0.0012 0.348 0.0369 0.51 0.1052 0.161 0.0683 0.307 0.1678 0.43 0.2928 0.249 0.2538 0.388 0.5956 0.386 0.951l-0.022 6.57c-2e-3 0.356-0.144 0.697-0.394 0.948s-0.589 0.392-0.942 0.391z" fill="#C96379"/>
<path d="m227.78 68.379-31.345-0.111c-0.175 0-0.348-0.035-0.51-0.103s-0.309-0.167-0.432-0.293c-0.249-0.2543-0.388-0.5961-0.388-0.952 0-0.1768 0.036-0.3519 0.104-0.515 0.068-0.1629 0.166-0.3111 0.291-0.436 0.124-0.1242 0.272-0.2225 0.434-0.289 0.163-0.067 0.335-0.101 0.51-0.1l31.345 0.112c0.175 0 0.348 0.035 0.51 0.103s0.308 0.167 0.432 0.292c0.124 0.1256 0.222 0.2745 0.288 0.438 0.067 0.164 0.1 0.338 0.1 0.515 0 0.1768-0.036 0.3519-0.104 0.515-0.067 0.163-0.166 0.3109-0.291 0.435-0.124 0.125-0.271 0.223-0.434 0.29s-0.335 0.1-0.51 0.099zm-4e-3 17.701-31.345-0.111c-0.353-2e-3 -0.691-0.144-0.939-0.397s-0.388-0.596-0.387-0.952c1e-3 -0.3558 0.142-0.6968 0.393-0.949 0.124-0.1239 0.271-0.2221 0.433-0.289 0.161-0.067 0.335-0.1013 0.51-0.101l31.345 0.111c0.175 0 0.348 0.035 0.509 0.103 0.162 0.0682 0.309 0.1678 0.432 0.293 0.249 0.2548 0.388 0.5969 0.387 0.953 0 0.176-0.035 0.351-0.103 0.514s-0.166 0.311-0.291 0.435c-0.124 0.1245-0.271 0.2231-0.433 0.29-0.162 0.067-0.336 0.101-0.511 0.1zm0 16.768-31.345-0.111c-0.353-2e-3 -0.691-0.144-0.939-0.397-0.249-0.254-0.389-0.596-0.387-0.952s0.143-0.698 0.393-0.949c0.124-0.124 0.271-0.222 0.433-0.289 0.161-0.067 0.335-0.101 0.51-0.101l31.345 0.111c0.175 1e-3 0.348 0.036 0.509 0.104 0.162 0.068 0.308 0.168 0.43 0.293 0.249 0.254 0.389 0.596 0.387 0.952s-0.143 0.696-0.393 0.949c-0.124 0.124-0.271 0.222-0.433 0.289-0.161 0.067-0.335 0.101-0.51 0.101z" fill="#ccc"/>
<path d="m465.61 204.21 1.122 0.465-0.077 0.189-1.121-0.465 0.076-0.189z" fill="#E6E6E6"/>
<path d="m468.92 205.8 2.266 0.939 0.077-0.189-2.266-0.939-0.077 0.189zm4.533 1.878 2.266 0.939 0.077-0.189-2.267-0.939-0.076 0.189zm4.532 1.878 2.267 0.939 0.076-0.189-2.266-0.939-0.077 0.189zm4.533 1.878 2.266 0.939 0.077-0.189-2.266-0.939-0.077 0.189zm4.533 1.878 2.266 0.939 0.077-0.189-2.267-0.939-0.076 0.189zm4.532 1.878 2.266 0.939 0.077-0.189-2.266-0.939-0.077 0.189zm4.533 1.878 2.266 0.938 0.077-0.188-2.267-0.939-0.076 0.189zm4.532 1.877 2.267 0.939 0.076-0.188-2.266-0.939-0.077 0.188zm4.533 1.878 2.266 0.939 0.077-0.188-2.266-0.939-0.077 0.188zm4.533 1.878 2.266 0.939 0.077-0.189-2.267-0.939-0.076 0.189zm4.532 1.878 2.267 0.939 0.076-0.189-2.266-0.939-0.077 0.189zm4.533 1.878 2.266 0.939 0.077-0.189-2.266-0.939-0.077 0.189zm4.532 1.878 2.267 0.939 0.076-0.189-2.266-0.939-0.077 0.189zm4.533 1.878 2.266 0.939 0.077-0.189-2.266-0.939-0.077 0.189zm4.533 1.878 2.266 0.939 0.077-0.189-2.267-0.939-0.076 0.189zm4.532 1.878 2.267 0.939 0.076-0.189-2.266-0.939-0.077 0.189zm4.61 1.689 1.121 0.465-0.076 0.188-1.122-0.464 0.077-0.189zm-46.21 1.371 1.121 0.464-0.077 0.189-1.121-0.465 0.077-0.188zm3.277 1.578 2.233 0.925 0.077-0.188-2.233-0.925-0.077 0.188zm4.466 1.85 2.232 0.925 0.077-0.188-2.233-0.925-0.076 0.188zm4.465 1.85 2.233 0.925 0.076-0.188-2.232-0.925-0.077 0.188zm4.465 1.85 2.233 0.925 0.077-0.188-2.233-0.925-0.077 0.188zm4.466 1.851 2.232 0.925 0.077-0.189-2.233-0.925-0.076 0.189zm4.465 1.85 2.232 0.925 0.077-0.189-2.232-0.925-0.077 0.189zm4.465 1.85 2.233 0.925 0.076-0.189-2.232-0.925-0.077 0.189zm4.465 1.85 2.233 0.925 0.077-0.189-2.233-0.925-0.077 0.189z" fill="#E6E6E6"/>
<path d="m534.39 253.22 1.122 0.465-0.077 0.189-1.121-0.465 0.076-0.189z" fill="#E6E6E6"/>
<path d="m513.81 254.4 1.122 0.465-0.077 0.189-1.121-0.465 0.076-0.189z" fill="#E6E6E6"/>
<path d="m517.15 256.01 2.297 0.951 0.077-0.189-2.297-0.951-0.077 0.189zm4.594 1.903 2.297 0.952 0.077-0.189-2.297-0.952-0.077 0.189zm4.594 1.903 2.297 0.952 0.077-0.189-2.297-0.951-0.077 0.188zm4.671 1.715 1.122 0.465-0.077 0.188-1.121-0.465 0.076-0.188zm-22.96 7.052 1.121 0.464-0.076 0.189-1.122-0.465 0.077-0.188zm3.342 1.605 2.297 0.951 0.076-0.188-2.297-0.952-0.076 0.189zm4.594 1.903 2.297 0.952 0.076-0.189-2.297-0.952-0.076 0.189zm4.594 1.904 2.297 0.951 0.077-0.189-2.298-0.951-0.076 0.189z" fill="#E6E6E6"/>
<path d="m525.25 275.71 1.122 0.465-0.077 0.189-1.121-0.465 0.076-0.189z" fill="#E6E6E6"/>
<path d="m529.22 286.62-85.14-35.771 85.14 35.771zm0 0 2e-3 1e-3c1.212 0.507 2.57 0.501 3.778-0.016 1.209-0.518 2.176-1.51 2.681-2.765l26.062-65.061v-1e-3c0.342-0.856 0.338-1.818-0.01-2.671s-1.009-1.522-1.831-1.869l-88.019-36.98h-1e-3c-0.84-0.352-1.78-0.348-2.617 0.011-0.838 0.359-1.51 1.047-1.862 1.921l-26.033 64.99h-1e-3c-0.501 1.257-0.496 2.668 0.016 3.92 0.511 1.252 1.483 2.238 2.694 2.749l85.141 35.771z" stroke="#D5D5D5" stroke-width="2"/>
<path d="m519.92 273.88-64.662-26.79c-1.569-0.655-2.815-1.906-3.463-3.478-0.653-1.577-0.66-3.351-0.02-4.933l13.065-32.161 0.126 0.056 15.868 38.318 11.769-4.969c0.217-0.093 0.453-0.133 0.688-0.118s0.464 0.084 0.668 0.203c0.307 0.187 0.544 0.471 0.674 0.806l8.317 20.079 8.604-3.633c0.186-0.078 0.385-0.119 0.587-0.12 0.201 0 0.401 0.039 0.587 0.116s0.355 0.191 0.498 0.334 0.256 0.314 0.334 0.501l6.36 15.789z" fill="#4F7A99"/>
<path d="m520.11 274.19 0.187-0.079-6.654-16.069c-0.175-0.423-0.511-0.759-0.933-0.935-0.209-0.086-0.432-0.13-0.658-0.129-0.226 0-0.449 0.046-0.657 0.133l-8.434 3.563-8.269-19.969c-0.176-0.424-0.512-0.761-0.933-0.935-0.209-0.086-0.432-0.13-0.658-0.129-0.226 0-0.449 0.046-0.657 0.133l-11.599 4.898-15.949-38.517-0.187 0.078 16.028 38.706 11.785-4.977c0.184-0.078 0.381-0.118 0.58-0.119 0.199 0 0.396 0.039 0.58 0.115s0.352 0.188 0.493 0.33c0.142 0.142 0.254 0.311 0.33 0.496l8.347 20.157 8.621-3.641c0.183-0.078 0.38-0.118 0.58-0.119 0.199 0 0.396 0.039 0.58 0.115 0.373 0.155 0.669 0.452 0.824 0.825l6.653 16.069zm-6.34-18.263c-0.781 0-1.415-0.639-1.415-1.428s0.634-1.429 1.415-1.429 1.414 0.64 1.414 1.429c1e-3 0.187-0.035 0.372-0.105 0.544-0.071 0.173-0.175 0.331-0.306 0.463-0.131 0.133-0.287 0.238-0.46 0.31-0.172 0.073-0.356 0.11-0.543 0.111zm-18.501-17.371c-0.781 0-1.415-0.64-1.415-1.429s0.634-1.429 1.415-1.429 1.415 0.64 1.415 1.429-0.634 1.429-1.415 1.429zm-28.807-32.872c-0.187-1e-3 -0.372-0.038-0.544-0.11s-0.328-0.178-0.46-0.311c-0.131-0.132-0.235-0.289-0.306-0.462-0.07-0.173-0.106-0.358-0.105-0.545 0-0.789 0.633-1.429 1.415-1.429s1.414 0.64 1.414 1.429c1e-3 0.187-0.035 0.372-0.105 0.544-0.071 0.173-0.175 0.331-0.306 0.463-0.131 0.133-0.287 0.238-0.46 0.31-0.172 0.073-0.356 0.11-0.543 0.111z" fill="#3F3D56"/>
<path d="m545.65 252.88c-0.735-0.37-1.382-0.898-1.893-1.547-0.512-0.65-0.877-1.405-1.068-2.21-0.191-0.807-0.205-1.646-0.041-2.459s0.503-1.579 0.993-2.246l-4.202-41.486h9.08l3.339 40.509c1.056 0.909 1.744 2.171 1.935 3.551 0.193 1.382-0.122 2.787-0.888 3.953-0.761 1.161-1.923 2.001-3.264 2.36-1.337 0.356-2.759 0.205-3.991-0.425zm-8.337-72.843c-7.095 0-12.846-5.808-12.846-12.973s5.751-12.974 12.846-12.974 12.846 5.808 12.846 12.974-5.751 12.973-12.846 12.973z" fill="#FFB8B8"/>
<path d="m534.89 227.09c0.515-1e-3 1.015-0.172 1.423-0.486 0.409-0.315 0.704-0.756 0.841-1.257 1.029-3.776 3.707-10.161 7.958-18.978 0.96-1.994 1.491-4.169 1.559-6.384s-0.328-4.42-1.162-6.469-2.089-3.898-3.681-5.423-3.485-2.694-5.555-3.429c-1.96-0.7-4.042-0.995-6.12-0.868-2.077 0.127-4.107 0.673-5.971 1.606s-3.524 2.235-4.882 3.828-2.385 3.444-3.021 5.444c-3.296 10.434-3.136 21.611-2.915 25.932 0.027 0.52 0.223 1.016 0.557 1.415 0.334 0.397 0.787 0.673 1.291 0.785l19.173 4.228c0.166 0.037 0.335 0.056 0.505 0.056z" fill="#C96379"/>
<path d="m516.32 350.28h-6.412l-3.05-24.978h9.463l-1e-3 24.978z" fill="#FFB8B8"/>
<path d="m497.55 356.3h20.152l1e-3 -7.863-12.367-1e-3c-1.023 0-2.035 0.204-2.979 0.599-0.946 0.396-1.805 0.975-2.527 1.704-0.724 0.732-1.297 1.599-1.688 2.551-0.391 0.955-0.592 1.978-0.592 3.01z" fill="#333"/>
<path d="m580.44 341.89-5.62 3.12-14.589-20.404 8.293-4.605 11.916 21.889z" fill="#FFB8B8"/>
<path d="m566.86 356.3 17.66-9.805-3.751-6.89-10.837 6.016c-1.809 1.005-3.15 2.695-3.726 4.697s-0.34 4.155 0.654 5.982z" fill="#333"/>
<path d="m516.62 336.42c0.572-1e-3 1.124-0.211 1.552-0.592 0.429-0.381 0.706-0.907 0.78-1.479l8.019-62.408c0.036-0.276 0.156-0.533 0.346-0.736s0.436-0.339 0.707-0.391 0.551-0.016 0.8 0.102 0.456 0.314 0.589 0.558l33.421 61.236c0.275 0.498 0.719 0.882 1.252 1.081 0.532 0.197 1.116 0.194 1.647-7e-3l7.285-2.803c0.293-0.112 0.56-0.283 0.787-0.502s0.408-0.481 0.533-0.771c0.125-0.291 0.191-0.603 0.195-0.92 4e-3 -0.316-0.055-0.631-0.173-0.924l-23.152-57.437c-0.059-0.145-0.098-0.298-0.118-0.455-3.136-24.51-11.114-36.975-13.485-40.211-0.173-0.238-0.287-0.515-0.332-0.806-0.045-0.292-0.02-0.59 0.073-0.87l0.326-0.988c0.13-0.392 0.157-0.811 0.077-1.216-0.079-0.406-0.262-0.783-0.53-1.096-8.542-9.825-23.43-4.464-23.579-4.408l-0.075 0.027-0.047 0.065c-16.694 23.121-10.521 98.218-9.114 113.04 0.052 0.557 0.298 1.077 0.694 1.468s0.915 0.629 1.468 0.671l9.871 0.768c0.061 4e-3 0.122 6e-3 0.183 6e-3z" fill="#000"/>
<path d="m487.37 182.13c0.064 0.285 0.106 0.575 0.125 0.866l22.468 13.09 5.462-3.175 5.822 7.697-9.127 6.57c-0.735 0.531-1.624 0.806-2.531 0.783-0.905-0.022-1.779-0.34-2.49-0.907l-23.168-18.458c-1.046 0.39-2.184 0.451-3.265 0.172s-2.05-0.883-2.782-1.732c-0.733-0.852-1.192-1.906-1.315-3.023-0.124-1.119 0.092-2.249 0.619-3.241s1.342-1.798 2.334-2.312 2.116-0.709 3.222-0.561c1.107 0.148 2.143 0.632 2.966 1.387 0.829 0.758 1.408 1.75 1.66 2.844z" fill="#FFB8B8"/>
<path d="m510.71 196.71 7.262 9.505c0.207 0.27 0.469 0.493 0.768 0.652s0.629 0.251 0.967 0.269c0.338 0.019 0.676-0.036 0.99-0.161 0.315-0.125 0.599-0.317 0.834-0.563l8.22-8.621c1.364-1.076 2.251-2.654 2.464-4.388 0.214-1.732-0.261-3.479-1.323-4.864-1.062-1.381-2.621-2.279-4.337-2.5s-3.45 0.255-4.82 1.322l-10.31 5.823c-0.296 0.167-0.552 0.396-0.751 0.671-0.2 0.276-0.338 0.593-0.406 0.927-0.068 0.335-0.063 0.68 0.013 1.013 0.076 0.332 0.222 0.644 0.429 0.915zm28.146 16.513 11.698-2.133c0.332-0.061 0.648-0.193 0.926-0.388s0.51-0.449 0.682-0.743c0.172-0.295 0.279-0.623 0.314-0.962s-3e-3 -0.682-0.111-1.006l-3.792-11.34c-0.317-1.718-1.296-3.239-2.722-4.229-0.704-0.49-1.498-0.836-2.336-1.017-0.839-0.181-1.705-0.193-2.548-0.037-1.702 0.315-3.211 1.3-4.196 2.737-0.985 1.441-1.365 3.212-1.056 4.93l0.37 11.924c0.011 0.341 0.094 0.676 0.244 0.983 0.15 0.305 0.365 0.575 0.628 0.79 0.262 0.215 0.568 0.37 0.896 0.455s0.67 0.097 1.003 0.036z" fill="#C96379"/>
<path d="m535.28 164.08c-3.302 2.283-7.637 4.628-11.009 2.198-1.057-0.815-1.823-1.948-2.184-3.233-0.363-1.288-0.304-2.66 0.17-3.911 1.615-4.663 6.051-6.716 10.293-8.29 5.515-2.046 11.52-3.673 17.214-2.208s10.725 7.032 9.697 12.874c-0.826 4.698-5.214 8.607-4.592 13.337 0.627 4.76 5.928 7.266 10.608 8.117s9.917 1.124 13.28 4.519c4.291 4.331 3.22 12.071-0.818 16.644s-10.129 6.645-16.033 8.054c-7.821 1.867-16.281 2.848-23.71-0.251s-13.209-11.438-11.057-19.258c0.909-3.303 3.05-6.095 5.12-8.813s4.165-5.56 4.954-8.895c0.658-2.778 0.171-6.005-1.654-8.089-0.332-0.366-0.541-0.828-0.596-1.319-0.056-0.492 0.044-0.99 0.285-1.421l0.032-0.055z" fill="#2F2E41"/>
<path d="m486.32 356.61h105.75c0.148 0 0.29-0.059 0.394-0.164 0.104-0.106 0.163-0.249 0.163-0.398s-0.059-0.292-0.163-0.397c-0.051-0.052-0.113-0.094-0.18-0.122-0.068-0.029-0.141-0.043-0.214-0.043h-105.75c-0.148 0-0.289 0.059-0.394 0.165s-0.163 0.248-0.163 0.397 0.059 0.292 0.163 0.398c0.105 0.105 0.246 0.164 0.394 0.164z" fill="#979797"/>
<defs>
<linearGradient id="e" x1="54.5" x2="130" y1="28" y2="71.5" gradientUnits="userSpaceOnUse">
<stop stop-color="#C96379" offset=".032234"/>
<stop stop-color="#DD6C37" stop-opacity=".7" offset="1"/>
</linearGradient>
<linearGradient id="d" x1="384.5" x2="442" y1="453" y2="477.5" gradientUnits="userSpaceOnUse">
<stop stop-color="#979797" offset="0"/>
<stop stop-color="#ccc" offset="1"/>
</linearGradient>
<linearGradient id="c" x1="21.5" x2="380.5" y1="402" y2="247" gradientUnits="userSpaceOnUse">
<stop stop-color="#C96379" offset="0"/>
<stop stop-color="#DD6C37" stop-opacity=".7" offset="1"/>
</linearGradient>
<linearGradient id="b" x1="657.5" x2="266.5" y1="98" y2="215" gradientUnits="userSpaceOnUse">
<stop stop-color="#4F7A99" stop-opacity=".7" offset="0"/>
<stop stop-color="#5A928B" offset=".87966"/>
</linearGradient>
<linearGradient id="a" x1="621" x2="430" y1="401" y2="357.5" gradientUnits="userSpaceOnUse">
<stop stop-color="#ccc" offset="0"/>
<stop stop-color="#979797" offset="1"/>
</linearGradient>
</defs>
</svg>
